{"glyphs":{"0":{"ha":1415,"x_min":122,"x_max":1293,"o":"m 711 -26 q 400 78 532 -26 q 195 383 268 182 q 122 872 122 585 q 141 1137 122 1015 q 196 1358 160 1258 q 283 1535 232 1458 q 399 1663 333 1611 q 544 1740 465 1714 q 711 1767 622 1767 q 1018 1663 888 1767 q 1221 1358 1149 1558 q 1293 872 1293 1158 q 1274 606 1293 728 q 1220 383 1256 483 q 1134 207 1185 283 q 1018 78 1083 131 q 876 0 953 26 q 711 -26 799 -26 m 707 92 q 838 115 778 92 q 949 183 899 138 q 1040 296 1000 229 q 1107 449 1079 363 q 1149 642 1135 536 q 1163 872 1163 749 q 1107 1294 1163 1121 q 949 1558 1051 1467 q 707 1649 847 1649 q 577 1626 638 1649 q 466 1558 517 1603 q 376 1447 415 1513 q 309 1294 336 1381 q 267 1103 282 1208 q 253 872 253 997 q 308 449 253 624 q 467 183 364 275 q 707 92 569 92 z "},"1":{"ha":833,"x_min":22,"x_max":510,"o":"m 450 -19 q 403 -9 417 -19 q 389 19 389 1 l 389 1594 q 301 1513 347 1554 q 206 1436 254 1472 q 113 1371 158 1400 q 73 1360 92 1358 q 39 1385 54 1361 q 26 1426 22 1410 q 54 1460 29 1443 q 160 1536 110 1496 q 265 1625 211 1576 q 376 1736 318 1674 q 399 1755 389 1749 q 421 1764 408 1761 q 454 1767 433 1767 q 499 1755 488 1767 q 510 1729 510 1743 l 510 19 q 496 -9 510 1 q 450 -19 482 -19 z "},"2":{"ha":1231,"x_min":85,"x_max":1101,"o":"m 135 0 q 102 15 117 0 q 86 51 88 29 q 104 92 85 72 l 442 444 q 591 608 522 529 q 717 763 660 688 q 817 911 774 839 q 890 1053 860 983 q 936 1189 921 1122 q 951 1319 951 1256 q 907 1512 951 1439 q 781 1618 863 1585 q 589 1651 700 1651 q 395 1610 483 1651 q 219 1490 307 1569 q 178 1468 197 1469 q 139 1486 160 1467 q 117 1526 117 1507 q 136 1564 118 1544 q 256 1665 186 1618 q 415 1739 326 1711 q 603 1767 503 1767 q 787 1740 701 1767 q 938 1658 872 1713 q 1040 1519 1004 1603 q 1076 1322 1076 1436 q 1059 1175 1076 1250 q 1008 1022 1042 1100 q 926 865 975 944 q 816 702 878 785 q 680 533 754 619 q 519 358 606 447 l 283 111 l 1063 111 q 1092 100 1082 111 q 1101 60 1101 89 q 1094 15 1101 31 q 1063 0 1086 0 l 135 0 z "},"3":{"ha":1314,"x_min":63,"x_max":1172,"o":"m 622 -26 q 425 3 521 -26 q 242 92 329 32 q 82 242 156 153 q 66 276 69 257 q 88 317 63 294 q 127 336 108 335 q 164 314 146 338 q 302 186 229 238 q 455 110 375 135 q 621 85 535 85 q 799 110 721 85 q 933 185 878 135 q 1016 309 988 235 q 1044 481 1044 383 q 988 690 1044 601 q 831 828 932 779 q 593 878 731 878 l 474 878 q 444 893 451 878 q 436 938 436 908 q 446 978 436 967 q 474 989 456 989 l 600 989 q 767 1017 696 989 q 883 1094 838 1046 q 951 1206 929 1143 q 974 1339 974 1269 q 943 1483 974 1424 q 861 1580 913 1543 q 746 1634 810 1617 q 614 1651 682 1651 q 467 1633 535 1651 q 337 1583 399 1615 q 217 1504 275 1550 q 175 1485 192 1486 q 139 1504 158 1485 q 118 1545 115 1526 q 135 1578 121 1564 q 258 1670 185 1628 q 422 1740 331 1713 q 614 1767 513 1767 q 803 1741 715 1767 q 958 1663 892 1715 q 1063 1531 1025 1611 q 1100 1340 1100 1450 q 1083 1211 1100 1274 q 1029 1095 1065 1149 q 936 1001 993 1042 q 797 938 879 961 q 1010 844 928 910 q 1133 684 1093 778 q 1172 479 1172 590 q 1137 266 1172 360 q 1032 107 1101 172 q 860 8 963 42 q 622 -26 757 -26 z "},"4":{"ha":1339,"x_min":74,"x_max":1286,"o":"m 996 -19 q 950 -10 965 -19 q 935 19 935 0 l 935 493 l 131 493 q 89 516 104 493 q 86 568 74 539 l 635 1736 q 659 1765 643 1757 q 703 1767 675 1772 q 737 1754 724 1763 q 753 1733 750 1746 q 747 1701 757 1721 l 231 604 l 935 604 l 935 1217 q 996 1256 935 1256 q 1042 1246 1026 1256 q 1057 1217 1057 1236 l 1057 604 l 1247 604 q 1276 593 1267 604 q 1286 551 1286 582 q 1278 508 1286 524 q 1247 493 1271 493 l 1057 493 l 1057 19 q 996 -19 1057 -19 z "},"5":{"ha":1314,"x_min":125,"x_max":1188,"o":"m 654 -26 q 517 -10 585 -26 q 384 40 449 7 q 259 124 319 74 q 144 242 199 174 q 128 276 131 257 q 149 317 125 294 q 188 336 169 335 q 225 314 207 338 q 358 186 289 238 q 500 110 426 135 q 654 85 574 85 q 833 119 757 85 q 960 215 910 153 q 1036 363 1011 278 q 1061 551 1061 449 q 1035 724 1061 644 q 957 863 1008 804 q 831 953 906 921 q 660 985 756 985 q 524 969 588 985 q 407 926 460 954 q 315 857 354 897 q 265 828 289 831 q 226 840 240 826 q 213 869 213 853 l 243 1700 q 256 1727 244 1718 q 288 1736 268 1736 l 1088 1736 q 1116 1725 1106 1736 q 1126 1682 1126 1714 q 1118 1639 1126 1653 q 1088 1625 1110 1625 l 351 1625 l 329 992 q 419 1043 368 1019 q 532 1081 471 1067 q 661 1096 593 1096 q 946 1027 828 1096 q 1126 836 1064 958 q 1188 551 1188 714 q 1151 315 1188 421 q 1046 132 1115 208 q 878 15 976 56 q 654 -26 779 -26 z "},"6":{"ha":1413,"x_min":175,"x_max":1286,"o":"m 744 -26 q 434 63 561 -26 q 241 317 307 151 q 175 710 175 482 q 207 1063 175 903 q 303 1349 239 1224 q 467 1562 368 1474 q 703 1701 567 1650 q 1013 1764 839 1753 q 1081 1759 1065 1768 q 1100 1721 1097 1750 q 1094 1675 1103 1689 q 1060 1658 1086 1661 q 764 1599 890 1646 q 549 1470 638 1551 q 406 1276 461 1389 q 326 1022 351 1164 q 301 710 301 879 q 335 432 301 550 q 430 237 369 314 q 571 122 490 160 q 744 85 651 85 q 918 117 842 85 q 1049 209 994 149 q 1131 356 1103 269 q 1160 554 1160 443 q 1110 764 1160 674 q 968 906 1060 854 q 753 957 876 957 q 622 941 685 957 q 504 895 560 925 q 403 826 449 865 q 324 738 357 786 q 271 636 290 689 l 233 722 q 309 860 258 797 q 429 970 360 924 q 582 1042 499 1017 q 754 1068 665 1068 q 976 1031 878 1068 q 1144 927 1074 994 q 1250 765 1214 860 q 1286 556 1286 671 q 1249 310 1286 418 q 1141 126 1211 201 q 971 13 1071 51 q 744 -26 871 -26 z "},"7":{"ha":1067,"x_min":25,"x_max":1043,"o":"m 249 -15 q 210 10 217 -4 q 214 51 203 24 l 889 1625 l 64 1625 q 35 1635 44 1625 q 25 1676 25 1646 q 33 1720 25 1704 q 64 1736 40 1736 l 988 1736 q 1029 1713 1015 1736 q 1032 1664 1043 1689 l 333 33 q 303 -16 318 -3 q 249 -15 289 -29 z "},"8":{"ha":1314,"x_min":101,"x_max":1214,"o":"m 658 -26 q 431 8 533 -26 q 256 105 329 42 q 142 256 182 168 q 101 451 101 344 q 127 603 101 531 q 203 740 153 676 q 327 853 254 803 q 494 935 400 903 q 326 1038 397 975 q 215 1180 254 1100 q 175 1353 175 1260 q 210 1530 175 1453 q 309 1660 244 1607 q 464 1741 374 1714 q 663 1768 554 1768 q 858 1742 771 1768 q 1009 1663 946 1715 q 1106 1536 1072 1611 q 1140 1363 1140 1461 q 1120 1239 1140 1299 q 1060 1125 1100 1179 q 960 1026 1019 1071 q 825 949 901 981 q 1032 834 944 906 q 1167 669 1119 763 q 1214 467 1214 576 q 1174 267 1214 357 q 1060 110 1133 176 q 884 9 986 44 q 658 -26 782 -26 m 660 89 q 833 115 756 89 q 967 191 911 142 q 1054 310 1024 240 q 1085 464 1085 379 q 1032 646 1085 564 q 881 788 979 728 q 647 883 783 849 q 473 815 550 857 q 341 716 396 772 q 258 594 286 660 q 229 453 229 528 q 260 303 229 371 q 349 188 292 236 q 485 115 406 140 q 660 89 564 89 m 678 994 q 857 1077 782 1024 q 972 1203 932 1131 q 1013 1364 1013 1276 q 988 1488 1013 1433 q 916 1578 963 1542 q 804 1634 869 1615 q 660 1653 739 1653 q 514 1633 579 1653 q 401 1576 449 1614 q 329 1482 354 1538 q 304 1354 304 1426 q 348 1203 304 1274 q 476 1080 392 1133 q 678 994 560 1026 z "},"9":{"ha":1413,"x_min":125,"x_max":1236,"o":"m 668 1772 q 978 1683 851 1772 q 1171 1430 1106 1594 q 1236 1036 1236 1265 q 1205 683 1236 843 q 1109 397 1174 522 q 945 184 1044 272 q 710 44 846 96 q 400 -18 575 -7 q 331 -13 346 -22 q 313 25 315 -4 q 319 71 311 57 q 353 88 326 85 q 649 147 522 100 q 863 276 775 194 q 1006 469 951 357 q 1085 724 1060 582 q 1110 1036 1110 867 q 1076 1314 1110 1196 q 981 1509 1042 1432 q 841 1624 921 1586 q 668 1661 761 1661 q 494 1629 571 1661 q 363 1537 417 1597 q 281 1390 308 1476 q 253 1192 253 1303 q 303 982 253 1072 q 444 840 353 892 q 660 789 535 789 q 790 805 726 789 q 908 851 853 821 q 1010 920 964 881 q 1089 1008 1056 960 q 1142 1110 1122 1057 l 1179 1024 q 1103 885 1154 949 q 983 776 1053 822 q 831 703 914 729 q 657 678 749 678 q 436 715 535 678 q 268 819 338 751 q 162 981 199 886 q 125 1190 125 1075 q 163 1436 125 1328 q 271 1619 200 1544 q 442 1733 342 1694 q 668 1772 542 1772 z "},"\r":{"ha":417,"x_min":0,"x_max":0,"o":""}," ":{"ha":417,"x_min":0,"x_max":0,"o":""}," ":{"ha":139,"x_min":0,"x_max":0,"o":""}," ":{"ha":417,"x_min":0,"x_max":0,"o":""},"Ð":{"ha":1613,"x_min":24,"x_max":1451,"o":"m 313 0 q 251 39 251 0 l 251 1697 q 267 1726 251 1717 q 313 1736 282 1736 l 650 1736 q 994 1680 844 1736 q 1245 1520 1143 1624 q 1399 1274 1347 1417 q 1451 957 1451 1132 q 1414 630 1451 779 q 1302 364 1376 481 q 1119 166 1228 247 q 866 42 1010 85 q 546 0 722 0 l 313 0 m 374 118 l 544 118 q 818 154 696 118 q 1033 260 940 190 q 1190 431 1126 329 q 1285 664 1253 532 q 1318 957 1318 796 q 1274 1230 1318 1108 q 1143 1438 1229 1351 q 933 1572 1057 1525 q 650 1618 810 1618 l 374 1618 l 374 118 m 63 824 q 31 839 38 824 q 24 872 24 854 q 31 908 24 892 q 63 925 38 925 l 697 925 q 728 908 721 925 q 735 872 735 892 q 728 839 735 854 q 697 824 721 824 l 63 824 z "},"Ŋ":{"ha":1647,"x_min":251,"x_max":1396,"o":"m 1396 -236 q 1368 -391 1396 -329 q 1290 -483 1340 -453 q 1171 -512 1240 -512 q 1042 -474 1097 -512 q 963 -375 988 -435 q 960 -337 953 -354 q 990 -307 967 -321 q 1031 -298 1014 -293 q 1061 -324 1047 -303 q 1092 -365 1076 -347 q 1128 -394 1108 -383 q 1174 -404 1149 -404 q 1238 -383 1215 -404 q 1268 -326 1260 -362 q 1276 -240 1276 -289 l 1276 15 l 374 1513 l 374 19 q 358 -10 374 0 q 313 -19 343 -19 q 251 19 251 -19 l 251 1729 q 267 1758 251 1749 q 313 1767 282 1767 q 353 1758 338 1767 q 382 1729 369 1749 l 1274 249 l 1274 1729 q 1289 1758 1274 1749 q 1335 1767 1304 1767 q 1396 1729 1396 1767 l 1396 -236 z "},"Þ":{"ha":1336,"x_min":251,"x_max":1219,"o":"m 313 -19 q 267 -10 282 -19 q 251 19 251 0 l 251 1729 q 267 1758 251 1749 q 313 1767 282 1767 q 358 1758 343 1767 q 374 1729 374 1749 l 374 1463 l 668 1463 q 972 1419 849 1463 q 1157 1281 1094 1376 q 1219 1029 1219 1185 q 1171 791 1219 892 q 1039 622 1122 690 q 851 515 956 554 q 632 458 746 475 q 494 444 560 449 q 374 438 429 439 l 374 19 q 358 -10 374 0 q 313 -19 343 -19 m 374 547 q 449 551 408 549 q 536 558 490 553 q 629 568 582 563 q 861 640 757 588 q 1028 788 965 693 q 1092 1026 1092 882 q 1044 1215 1092 1144 q 901 1319 996 1286 q 668 1351 807 1351 l 374 1351 l 374 547 z "},"ẞ":{"ha":1604,"x_min":238,"x_max":1468,"o":"m 951 -26 q 830 -17 889 -26 q 715 13 771 -7 q 601 61 660 32 q 574 91 579 72 q 581 136 569 110 q 610 167 593 160 q 650 164 626 175 q 751 124 703 140 q 848 100 799 108 q 951 92 897 92 q 1106 119 1036 92 q 1229 199 1176 147 q 1310 321 1282 250 q 1339 475 1339 392 q 1313 628 1339 564 q 1241 743 1286 693 q 1140 833 1196 793 q 1026 911 1085 874 q 911 988 967 949 q 810 1075 856 1026 q 739 1187 765 1124 q 713 1335 713 1250 q 736 1465 713 1406 q 801 1573 760 1525 q 897 1653 843 1621 q 634 1593 739 1636 q 469 1478 529 1550 q 384 1301 408 1406 q 360 1057 360 1196 l 360 19 q 344 -10 360 0 q 299 -19 329 -19 q 253 -10 268 -19 q 238 19 238 0 l 238 1056 q 265 1317 238 1203 q 355 1517 293 1432 q 518 1657 417 1601 q 767 1740 619 1713 q 1115 1767 915 1767 l 1165 1767 q 1195 1754 1186 1767 q 1204 1710 1204 1742 q 1195 1665 1204 1678 q 1165 1653 1186 1653 q 1038 1633 1097 1653 q 935 1574 979 1613 q 865 1481 890 1536 q 840 1357 840 1426 q 867 1231 840 1285 q 938 1134 893 1176 q 1038 1056 982 1092 q 1154 982 1094 1019 q 1269 900 1214 944 q 1370 797 1325 856 q 1442 660 1415 739 q 1468 475 1468 581 q 1429 273 1468 365 q 1320 114 1390 181 q 1156 10 1250 47 q 951 -26 1063 -26 z "},"ŋ":{"ha":851,"x_min":131,"x_max":731,"o":"m 731 -151 q 706 -272 731 -228 q 641 -335 681 -317 q 554 -354 601 -354 q 447 -324 490 -354 q 382 -256 403 -294 q 381 -219 372 -235 q 410 -190 389 -203 q 451 -181 435 -176 q 481 -204 467 -186 q 515 -238 500 -226 q 554 -250 531 -250 q 599 -226 588 -250 q 611 -160 611 -201 l 611 453 q 597 537 611 501 q 551 591 582 572 q 469 610 521 610 q 408 601 439 610 q 349 575 378 593 q 294 526 319 557 q 250 451 269 496 l 250 15 q 235 -12 250 -3 q 189 -21 219 -21 q 145 -12 160 -21 q 131 15 131 -3 l 131 679 q 145 706 131 697 q 189 715 160 715 q 235 706 219 715 q 250 679 250 697 l 250 589 q 296 642 271 618 q 351 684 321 667 q 415 711 382 701 q 486 721 449 721 q 613 694 558 721 q 699 612 668 668 q 731 464 731 556 l 731 -151 z "},"$":{"ha":1265,"x_min":126,"x_max":1129,"o":"m 600 -26 q 478 -15 542 -26 q 353 22 415 -3 q 235 88 290 47 q 136 188 179 129 q 127 215 126 203 q 147 247 128 228 q 180 270 167 268 q 219 249 193 272 q 323 165 267 200 q 448 111 379 131 q 600 92 517 92 q 769 117 694 92 q 895 189 844 142 q 973 304 946 236 q 1000 461 1000 372 q 973 597 1000 540 q 898 694 946 653 q 785 767 850 736 q 643 826 719 799 q 512 881 578 851 q 388 949 446 910 q 284 1041 329 988 q 213 1167 239 1094 q 186 1336 186 1239 q 222 1519 186 1439 q 320 1653 257 1599 q 467 1738 383 1708 q 649 1767 551 1767 q 824 1739 746 1767 q 967 1666 901 1711 q 1092 1565 1032 1621 q 1104 1537 1107 1551 q 1088 1507 1101 1522 q 1053 1482 1069 1489 q 1022 1486 1038 1475 q 906 1572 965 1536 q 784 1628 847 1608 q 649 1649 721 1649 q 509 1628 571 1649 q 404 1567 447 1607 q 338 1469 361 1526 q 315 1336 315 1411 q 344 1182 315 1244 q 425 1077 374 1119 q 542 1003 476 1035 q 682 946 608 972 q 839 881 760 918 q 984 790 918 844 q 1090 656 1050 736 q 1129 461 1129 576 q 1092 258 1129 349 q 985 105 1054 168 q 818 8 915 42 q 600 -26 721 -26 m 642 -208 q 586 -169 586 -208 l 586 1932 q 642 1969 586 1969 q 697 1932 697 1969 l 697 -169 q 642 -208 697 -208 z "},"€":{"ha":1438,"x_min":18,"x_max":1367,"o":"m 840 -26 q 566 38 688 -26 q 359 222 444 103 q 229 505 274 340 q 185 871 185 669 q 207 1122 185 1004 q 271 1340 229 1240 q 373 1518 313 1439 q 509 1653 433 1597 q 674 1738 585 1708 q 864 1767 764 1767 q 1029 1744 947 1767 q 1185 1674 1111 1721 q 1317 1554 1260 1628 q 1324 1525 1329 1539 q 1301 1496 1319 1511 q 1269 1476 1283 1479 q 1242 1486 1256 1474 q 1126 1574 1188 1538 q 1000 1630 1065 1611 q 864 1649 935 1649 q 713 1625 785 1649 q 579 1555 640 1601 q 469 1441 518 1508 q 385 1287 419 1374 q 331 1096 350 1200 q 313 871 313 992 q 350 546 313 690 q 458 300 388 401 q 625 145 528 199 q 842 92 722 92 q 968 110 908 92 q 1082 160 1028 128 q 1185 235 1136 193 q 1281 322 1235 276 q 1308 331 1292 335 q 1343 310 1324 328 q 1363 282 1360 294 q 1354 254 1367 269 q 1195 99 1278 161 q 1024 5 1113 36 q 840 -26 936 -26 m 56 940 q 26 951 35 940 q 18 993 18 963 q 26 1036 18 1025 q 56 1047 35 1047 l 1056 1047 q 1085 1036 1076 1047 q 1094 993 1094 1025 q 1085 951 1094 963 q 1056 940 1076 940 l 56 940 m 56 701 q 26 713 35 701 q 18 754 18 724 q 26 797 18 786 q 56 808 35 808 l 1056 808 q 1085 797 1076 808 q 1094 754 1094 786 q 1085 713 1094 724 q 1056 701 1076 701 l 56 701 z "},"¢":{"ha":983,"x_min":100,"x_max":883,"o":"m 524 -26 q 299 35 394 -26 q 151 213 203 97 q 100 492 100 329 q 119 674 100 590 q 176 824 139 757 q 264 935 213 890 q 382 1005 315 981 q 526 1029 449 1029 q 639 1012 582 1029 q 747 960 696 994 q 840 874 799 925 q 849 842 853 857 q 828 810 846 828 q 796 791 810 793 q 765 803 782 789 q 692 866 728 840 q 617 905 657 892 q 524 918 576 918 q 421 899 468 918 q 337 845 374 881 q 274 758 300 810 q 235 640 249 706 q 222 494 222 574 q 259 276 222 368 q 363 134 296 183 q 524 85 431 85 q 624 101 581 85 q 708 151 668 118 q 788 235 747 183 q 819 252 803 251 q 854 238 836 253 q 879 208 875 224 q 872 174 883 192 q 769 60 828 104 q 647 -5 711 17 q 524 -26 583 -26 m 513 -208 q 457 -169 457 -208 l 457 1185 q 513 1224 457 1224 q 568 1185 568 1224 l 568 -169 q 513 -208 568 -208 z "},"£":{"ha":1253,"x_min":74,"x_max":1206,"o":"m 113 0 q 81 13 89 0 q 74 57 74 26 q 83 99 74 88 q 113 111 93 111 l 365 111 l 365 694 l 160 694 q 130 706 138 694 q 122 750 122 718 q 131 793 122 782 q 160 804 140 804 l 365 804 l 365 1325 q 413 1559 365 1460 q 551 1713 461 1658 q 765 1767 640 1767 q 972 1729 876 1767 q 1149 1619 1067 1692 q 1167 1588 1161 1607 q 1153 1544 1174 1569 q 1116 1522 1133 1522 q 1076 1536 1099 1521 q 922 1626 994 1597 q 768 1654 850 1654 q 560 1567 635 1654 q 486 1321 486 1479 l 486 804 l 888 804 q 916 793 907 804 q 925 750 925 782 q 917 706 925 718 q 888 694 910 694 l 486 694 l 486 111 l 1167 111 q 1196 99 1186 111 q 1206 57 1206 88 q 1198 13 1206 26 q 1167 0 1190 0 l 113 0 z "},"¥":{"ha":1251,"x_min":40,"x_max":1213,"o":"m 621 -19 q 560 19 560 -19 l 560 482 l 194 482 q 165 494 174 482 q 156 536 156 506 q 165 579 156 568 q 194 590 174 590 l 560 590 l 560 721 l 194 721 q 165 733 174 721 q 156 775 156 744 q 165 818 156 807 q 194 829 174 829 l 515 829 l 50 1690 q 48 1724 40 1708 q 85 1753 56 1739 q 128 1768 111 1768 q 158 1744 146 1768 l 622 879 l 1097 1744 q 1126 1768 1110 1768 q 1168 1753 1142 1768 q 1205 1724 1197 1739 q 1203 1690 1213 1708 l 728 829 l 1051 829 q 1081 818 1072 829 q 1090 775 1090 807 q 1081 733 1090 744 q 1051 721 1072 721 l 682 721 l 682 590 l 1051 590 q 1081 579 1072 590 q 1090 536 1090 568 q 1081 494 1090 506 q 1051 482 1072 482 l 682 482 l 682 19 q 621 -19 682 -19 z "},"%":{"ha":1528,"x_min":101,"x_max":1424,"o":"m 404 1011 q 247 1060 315 1011 q 140 1194 178 1108 q 101 1390 101 1279 q 115 1513 101 1456 q 156 1617 129 1569 q 219 1697 182 1664 q 303 1749 256 1731 q 404 1767 350 1767 q 562 1718 494 1767 q 667 1585 629 1669 q 704 1390 704 1500 q 690 1266 704 1324 q 649 1161 675 1208 q 587 1081 624 1114 q 503 1029 550 1047 q 404 1011 457 1011 m 404 1117 q 465 1128 438 1117 q 515 1161 493 1139 q 554 1216 538 1183 q 579 1292 571 1249 q 588 1390 588 1336 q 536 1592 588 1524 q 404 1661 485 1661 q 342 1650 371 1661 q 291 1617 314 1639 q 251 1562 268 1594 q 226 1486 235 1529 q 218 1390 218 1443 q 269 1186 218 1256 q 404 1117 321 1117 m 324 -12 q 299 -28 314 -29 q 260 -12 283 -28 q 228 15 233 3 q 232 43 222 26 l 1200 1753 q 1224 1769 1210 1768 q 1264 1753 1238 1769 q 1297 1726 1290 1736 q 1292 1697 1303 1715 l 324 -12 m 1125 -26 q 967 22 1036 -26 q 860 156 899 71 q 821 351 821 242 q 835 475 821 418 q 876 579 850 532 q 940 660 903 626 q 1024 711 976 693 q 1125 729 1071 729 q 1281 681 1214 729 q 1386 547 1349 632 q 1424 351 1424 463 q 1410 228 1424 286 q 1369 124 1396 171 q 1306 43 1343 76 q 1224 -8 1269 10 q 1125 -26 1178 -26 m 1125 81 q 1185 92 1157 81 q 1236 125 1214 103 q 1275 180 1258 147 q 1300 256 1292 213 q 1308 351 1308 299 q 1257 555 1308 486 q 1125 624 1206 624 q 1063 613 1092 624 q 1012 579 1035 601 q 972 524 989 557 q 947 449 956 492 q 938 351 938 406 q 990 149 938 218 q 1125 81 1042 81 z "},".":{"ha":435,"x_min":131,"x_max":304,"o":"m 217 -47 q 152 -24 174 -47 q 131 43 131 -1 q 152 111 131 89 q 217 133 174 133 q 283 111 261 133 q 304 43 304 89 q 283 -24 304 -1 q 217 -47 261 -47 z "},",":{"ha":435,"x_min":72,"x_max":285,"o":"m 126 -356 q 90 -342 107 -356 q 72 -311 72 -329 q 76 -297 72 -306 q 86 -276 81 -289 q 124 -186 110 -231 q 144 -83 138 -142 q 151 65 151 -24 q 169 104 151 92 q 217 117 186 117 q 267 102 249 117 q 285 61 285 88 q 272 -80 285 -7 q 233 -219 258 -153 q 167 -332 207 -285 q 151 -348 160 -340 q 126 -356 142 -356 z "},":":{"ha":435,"x_min":131,"x_max":304,"o":"m 217 -47 q 152 -24 174 -47 q 131 43 131 -1 q 152 111 131 89 q 217 133 174 133 q 283 111 261 133 q 304 43 304 89 q 283 -24 304 -1 q 217 -47 261 -47 m 217 558 q 152 581 174 558 q 131 649 131 604 q 152 717 131 694 q 217 739 174 739 q 283 717 261 739 q 304 649 304 694 q 283 581 304 604 q 217 558 261 558 z "},";":{"ha":435,"x_min":72,"x_max":304,"o":"m 217 558 q 152 581 174 558 q 131 649 131 604 q 152 717 131 694 q 217 739 174 739 q 283 717 261 739 q 304 649 304 694 q 283 581 304 604 q 217 558 261 558 m 126 -356 q 90 -342 107 -356 q 72 -311 72 -329 q 76 -297 72 -306 q 86 -276 81 -289 q 124 -186 110 -231 q 144 -83 138 -142 q 151 65 151 -24 q 169 104 151 92 q 217 117 186 117 q 267 102 249 117 q 285 61 285 88 q 272 -80 285 -7 q 233 -219 258 -153 q 167 -332 207 -285 q 151 -348 160 -340 q 126 -356 142 -356 z "},"…":{"ha":1178,"x_min":131,"x_max":1047,"o":"m 589 -47 q 524 -24 546 -47 q 503 43 503 -1 q 524 111 503 89 q 589 133 546 133 q 655 111 633 133 q 676 43 676 89 q 655 -24 676 -1 q 589 -47 633 -47 m 960 -47 q 895 -24 917 -47 q 874 43 874 -1 q 895 111 874 89 q 960 133 917 133 q 1026 111 1004 133 q 1047 43 1047 89 q 1026 -24 1047 -1 q 960 -47 1004 -47 m 217 -47 q 152 -24 174 -47 q 131 43 131 -1 q 152 111 131 89 q 217 133 174 133 q 283 111 261 133 q 304 43 304 89 q 283 -24 304 -1 q 217 -47 261 -47 z "},"!":{"ha":674,"x_min":260,"x_max":415,"o":"m 338 300 q 276 339 276 300 l 276 1729 q 292 1758 276 1749 q 338 1767 307 1767 q 399 1729 399 1767 l 399 339 q 383 310 399 319 q 338 300 368 300 m 338 -19 q 279 2 299 -19 q 260 68 260 24 q 279 135 260 113 q 338 157 299 157 q 394 135 375 157 q 414 68 414 113 q 395 2 415 24 q 338 -19 375 -19 z "},"¡":{"ha":674,"x_min":260,"x_max":415,"o":"m 338 396 q 399 357 399 396 l 399 -1033 q 383 -1061 399 -1051 q 338 -1071 368 -1071 q 276 -1033 276 -1071 l 276 357 q 292 386 276 376 q 338 396 307 396 m 338 715 q 395 694 375 715 q 414 628 415 672 q 394 562 414 585 q 338 539 375 539 q 279 562 299 539 q 260 628 260 585 q 279 694 260 672 q 338 715 299 715 z "},"?":{"ha":988,"x_min":8,"x_max":957,"o":"m 386 300 q 340 310 356 300 q 325 339 325 319 l 325 788 q 338 815 325 804 q 372 825 350 825 q 554 855 471 825 q 699 942 638 885 q 795 1082 761 999 q 829 1274 829 1165 q 788 1476 829 1390 q 669 1609 747 1563 q 482 1656 592 1656 q 343 1637 413 1656 q 210 1585 274 1618 q 90 1507 146 1551 q 60 1499 76 1496 q 29 1518 44 1501 q 10 1553 13 1538 q 22 1583 8 1569 q 163 1681 86 1640 q 322 1744 239 1722 q 482 1767 404 1767 q 731 1708 624 1767 q 897 1539 838 1649 q 957 1272 957 1429 q 917 1053 957 1151 q 808 884 878 956 q 646 771 739 813 q 447 718 553 729 l 447 339 q 432 310 447 319 q 386 300 417 300 m 386 -19 q 328 2 347 -19 q 308 68 308 24 q 328 135 308 113 q 386 157 347 157 q 443 135 424 157 q 463 68 463 113 q 443 2 463 24 q 386 -19 424 -19 z "},"¿":{"ha":988,"x_min":10,"x_max":958,"o":"m 581 396 q 626 386 611 396 q 642 357 642 376 l 642 -92 q 630 -119 642 -108 q 594 -129 618 -129 q 413 -159 496 -129 q 267 -246 329 -189 q 170 -386 204 -303 q 136 -578 136 -469 q 178 -780 136 -693 q 297 -913 219 -867 q 485 -960 375 -960 q 624 -941 556 -960 q 757 -889 693 -922 q 876 -811 821 -856 q 906 -802 890 -799 q 938 -822 921 -806 q 956 -858 954 -842 q 944 -887 958 -874 q 804 -985 881 -944 q 646 -1049 728 -1026 q 485 -1071 564 -1071 q 235 -1012 343 -1071 q 69 -842 128 -953 q 10 -576 10 -732 q 49 -358 10 -456 q 157 -188 88 -260 q 319 -75 226 -117 q 519 -22 413 -33 l 519 357 q 535 386 519 376 q 581 396 550 396 m 581 715 q 639 694 619 715 q 658 628 658 672 q 639 562 658 585 q 581 539 619 539 q 524 562 543 539 q 504 628 504 585 q 524 694 504 672 q 581 715 543 715 z "},"'":{"ha":235,"x_min":58,"x_max":189,"o":"m 124 1168 q 90 1181 97 1168 q 81 1211 82 1194 l 60 1583 q 73 1622 58 1606 q 124 1639 88 1639 q 174 1622 160 1639 q 188 1583 189 1606 l 167 1211 q 158 1181 165 1194 q 124 1168 150 1168 z "},"\"":{"ha":492,"x_min":58,"x_max":446,"o":"m 124 1168 q 90 1181 97 1168 q 81 1211 82 1194 l 60 1583 q 73 1622 58 1606 q 124 1639 88 1639 q 174 1622 160 1639 q 188 1583 189 1606 l 167 1211 q 158 1181 165 1194 q 124 1168 150 1168 m 381 1168 q 347 1181 354 1168 q 338 1211 339 1194 l 317 1583 q 330 1622 315 1606 q 381 1639 344 1639 q 431 1622 417 1639 q 444 1583 446 1606 l 424 1211 q 415 1181 422 1194 q 381 1168 407 1168 z "},"‘":{"ha":297,"x_min":61,"x_max":256,"o":"m 129 1168 q 80 1183 99 1168 q 61 1224 61 1197 q 66 1328 61 1275 q 82 1434 71 1382 q 113 1533 93 1486 q 161 1617 132 1581 q 178 1631 168 1624 q 201 1639 188 1639 q 238 1626 221 1639 q 256 1596 256 1614 q 252 1581 256 1590 q 242 1561 249 1572 q 209 1470 219 1515 q 197 1367 199 1425 q 194 1219 194 1308 q 176 1181 194 1193 q 129 1168 158 1168 z "},"’":{"ha":303,"x_min":44,"x_max":239,"o":"m 171 1639 q 221 1624 203 1639 q 239 1583 239 1610 q 234 1478 239 1532 q 218 1372 229 1424 q 188 1272 207 1319 q 139 1190 169 1225 q 123 1176 132 1183 q 99 1168 114 1168 q 62 1181 79 1168 q 44 1211 44 1193 q 49 1226 44 1217 q 58 1246 53 1235 q 92 1336 82 1292 q 103 1440 101 1381 q 106 1588 106 1500 q 124 1626 106 1614 q 171 1639 142 1639 z "},"‚":{"ha":322,"x_min":49,"x_max":260,"o":"m 103 -356 q 66 -342 83 -356 q 49 -311 49 -329 q 53 -297 49 -306 q 63 -276 57 -289 q 100 -186 86 -231 q 121 -83 114 -142 q 128 65 128 -24 q 145 104 128 92 q 193 117 163 117 q 243 102 225 117 q 261 61 261 88 q 248 -80 261 -7 q 209 -219 235 -153 q 143 -332 183 -285 q 127 -348 136 -340 q 103 -356 118 -356 z "},"“":{"ha":560,"x_min":61,"x_max":518,"o":"m 129 1168 q 80 1183 99 1168 q 61 1224 61 1197 q 66 1328 61 1275 q 82 1434 71 1382 q 113 1533 93 1486 q 161 1617 132 1581 q 178 1631 168 1624 q 201 1639 188 1639 q 238 1626 221 1639 q 256 1596 256 1614 q 252 1581 256 1590 q 242 1561 249 1572 q 209 1470 219 1515 q 197 1367 199 1425 q 194 1219 194 1308 q 176 1181 194 1193 q 129 1168 158 1168 m 392 1168 q 342 1183 361 1168 q 324 1224 324 1197 q 328 1328 324 1275 q 344 1434 333 1382 q 375 1533 356 1486 q 424 1617 394 1581 q 440 1631 431 1624 q 464 1639 450 1639 q 501 1626 483 1639 q 518 1596 518 1614 q 515 1581 518 1590 q 504 1561 511 1572 q 472 1470 482 1515 q 459 1367 461 1425 q 457 1219 457 1308 q 439 1181 457 1193 q 392 1168 421 1168 z "},"”":{"ha":565,"x_min":44,"x_max":501,"o":"m 433 1639 q 483 1624 465 1639 q 501 1583 501 1610 q 497 1478 501 1532 q 481 1372 492 1424 q 451 1272 469 1319 q 401 1190 432 1225 q 385 1176 394 1183 q 361 1168 376 1168 q 324 1181 342 1168 q 307 1211 307 1193 q 311 1226 307 1217 q 321 1246 315 1235 q 354 1336 344 1292 q 366 1440 364 1381 q 368 1588 368 1500 q 386 1626 368 1614 q 433 1639 404 1639 m 171 1639 q 221 1624 203 1639 q 239 1583 239 1610 q 234 1478 239 1532 q 218 1372 229 1424 q 188 1272 207 1319 q 139 1190 169 1225 q 123 1176 132 1183 q 99 1168 114 1168 q 62 1181 79 1168 q 44 1211 44 1193 q 49 1226 44 1217 q 58 1246 53 1235 q 92 1336 82 1292 q 103 1440 101 1381 q 106 1588 106 1500 q 124 1626 106 1614 q 171 1639 142 1639 z "},"„":{"ha":576,"x_min":49,"x_max":514,"o":"m 357 -356 q 320 -342 338 -356 q 303 -311 303 -329 q 307 -297 303 -306 q 317 -276 311 -289 q 354 -186 340 -231 q 375 -83 368 -142 q 382 65 382 -24 q 399 104 382 92 q 447 117 417 117 q 497 102 479 117 q 515 61 515 88 q 502 -80 515 -7 q 463 -219 489 -153 q 397 -332 438 -285 q 381 -348 390 -340 q 357 -356 372 -356 m 103 -356 q 66 -342 83 -356 q 49 -311 49 -329 q 53 -297 49 -306 q 63 -276 57 -289 q 100 -186 86 -231 q 121 -83 114 -142 q 128 65 128 -24 q 145 104 128 92 q 193 117 163 117 q 243 102 225 117 q 261 61 261 88 q 248 -80 261 -7 q 209 -219 235 -153 q 143 -332 183 -285 q 127 -348 136 -340 q 103 -356 118 -356 z "},"«":{"ha":1007,"x_min":131,"x_max":875,"o":"m 458 -19 q 419 -11 438 -19 q 383 19 401 -3 l 164 297 q 138 331 144 321 q 131 349 131 342 q 138 367 131 357 q 164 401 144 378 l 383 678 q 419 708 401 700 q 458 715 438 715 q 499 703 483 715 q 518 675 515 692 q 507 640 521 658 l 275 349 l 507 56 q 512 5 528 29 q 458 -19 496 -19 m 806 -19 q 767 -11 785 -19 q 731 19 749 -3 l 511 297 q 485 331 492 321 q 478 349 478 342 q 485 367 478 357 q 511 401 492 378 l 731 678 q 767 708 749 700 q 806 715 785 715 q 847 703 831 715 q 865 675 863 692 q 854 640 868 658 l 622 349 l 854 56 q 859 5 875 29 q 806 -19 843 -19 z "},"»":{"ha":1007,"x_min":132,"x_max":876,"o":"m 201 -19 q 160 -8 176 -19 q 142 22 144 4 q 153 56 139 39 l 385 349 l 153 640 q 148 691 132 667 q 201 715 164 715 q 241 708 222 715 q 276 678 260 700 l 497 401 q 523 367 517 378 q 529 349 529 357 q 523 331 529 342 q 497 297 517 321 l 276 19 q 241 -11 260 -3 q 201 -19 222 -19 m 549 -19 q 508 -8 524 -19 q 489 22 492 4 q 500 56 486 39 l 732 349 l 500 640 q 495 691 479 667 q 549 715 511 715 q 588 708 569 715 q 624 678 607 700 l 844 401 q 870 367 864 378 q 876 349 876 357 q 870 331 876 342 q 844 297 864 321 l 624 19 q 588 -11 607 -3 q 549 -19 569 -19 z "},"‹":{"ha":660,"x_min":131,"x_max":528,"o":"m 458 -19 q 419 -11 438 -19 q 383 19 401 -3 l 164 297 q 138 331 144 321 q 131 349 131 342 q 138 367 131 357 q 164 401 144 378 l 383 678 q 419 708 401 700 q 458 715 438 715 q 499 703 483 715 q 518 675 515 692 q 507 640 521 658 l 275 349 l 507 56 q 512 5 528 29 q 458 -19 496 -19 z "},"›":{"ha":660,"x_min":132,"x_max":529,"o":"m 201 -19 q 160 -8 176 -19 q 142 22 144 4 q 153 56 139 39 l 385 349 l 153 640 q 148 691 132 667 q 201 715 164 715 q 241 708 222 715 q 276 678 260 700 l 497 401 q 523 367 517 378 q 529 349 529 357 q 523 331 529 342 q 497 297 517 321 l 276 19 q 241 -11 260 -3 q 201 -19 222 -19 z "},"Á":{"ha":1393,"x_min":43,"x_max":1350,"o":"m 106 -19 q 56 -2 69 -19 q 51 43 43 15 l 618 1711 q 647 1755 629 1743 q 696 1767 664 1767 q 746 1755 729 1767 q 772 1711 763 1743 l 1340 43 q 1335 -2 1350 15 q 1285 -19 1321 -19 q 1240 -8 1254 -19 q 1217 32 1226 4 l 1057 513 l 333 513 l 172 32 q 149 -8 163 4 q 106 -19 136 -19 m 372 624 l 1018 624 l 696 1582 l 372 624 m 619 1831 q 585 1849 601 1831 q 568 1881 568 1867 q 570 1892 568 1886 q 581 1907 572 1899 l 800 2114 q 813 2125 807 2121 q 831 2129 819 2129 q 861 2117 844 2129 q 890 2088 878 2104 q 903 2054 903 2071 q 899 2038 903 2044 q 882 2019 896 2031 l 647 1844 q 631 1835 638 1839 q 619 1831 625 1831 z "},"Ă":{"ha":1393,"x_min":43,"x_max":1350,"o":"m 106 -19 q 56 -2 69 -19 q 51 43 43 15 l 618 1711 q 647 1755 629 1743 q 696 1767 664 1767 q 746 1755 729 1767 q 772 1711 763 1743 l 1340 43 q 1335 -2 1350 15 q 1285 -19 1321 -19 q 1240 -8 1254 -19 q 1217 32 1226 4 l 1057 513 l 333 513 l 172 32 q 149 -8 163 4 q 106 -19 136 -19 m 372 624 l 1018 624 l 696 1582 l 372 624 m 696 1832 q 513 1895 581 1832 q 435 2089 444 1958 q 447 2117 433 2106 q 488 2129 461 2129 q 518 2119 510 2129 q 531 2089 526 2108 q 588 1988 550 2021 q 696 1956 625 1956 q 805 1988 767 1956 q 860 2089 843 2021 q 873 2119 865 2108 q 903 2129 881 2129 q 944 2117 929 2129 q 957 2089 958 2106 q 917 1949 951 2006 q 826 1862 882 1892 q 696 1832 769 1832 z "},"Ǎ":{"ha":1393,"x_min":43,"x_max":1350,"o":"m 106 -19 q 56 -2 69 -19 q 51 43 43 15 l 618 1711 q 647 1755 629 1743 q 696 1767 664 1767 q 746 1755 729 1767 q 772 1711 763 1743 l 1340 43 q 1335 -2 1350 15 q 1285 -19 1321 -19 q 1240 -8 1254 -19 q 1217 32 1226 4 l 1057 513 l 333 513 l 172 32 q 149 -8 163 4 q 106 -19 136 -19 m 372 624 l 1018 624 l 696 1582 l 372 624 m 925 2129 q 956 2113 938 2129 q 974 2082 974 2097 q 973 2074 974 2079 q 965 2060 972 2068 l 758 1858 q 737 1840 749 1850 q 697 1831 725 1831 q 659 1840 671 1831 q 639 1858 647 1850 l 428 2060 q 421 2074 421 2068 q 421 2082 421 2079 q 438 2113 421 2097 q 469 2129 456 2129 q 485 2124 478 2129 q 504 2113 493 2119 l 697 1969 l 890 2113 q 908 2124 901 2119 q 925 2129 915 2129 z "},"Â":{"ha":1393,"x_min":43,"x_max":1350,"o":"m 106 -19 q 56 -2 69 -19 q 51 43 43 15 l 618 1711 q 647 1755 629 1743 q 696 1767 664 1767 q 746 1755 729 1767 q 772 1711 763 1743 l 1340 43 q 1335 -2 1350 15 q 1285 -19 1321 -19 q 1240 -8 1254 -19 q 1217 32 1226 4 l 1057 513 l 333 513 l 172 32 q 149 -8 163 4 q 106 -19 136 -19 m 372 624 l 1018 624 l 696 1582 l 372 624 m 469 1831 q 438 1847 456 1831 q 421 1878 421 1864 q 421 1888 421 1882 q 428 1900 421 1893 l 635 2101 q 657 2120 644 2111 q 696 2129 669 2129 q 734 2120 722 2129 q 756 2101 746 2111 l 965 1900 q 973 1888 972 1893 q 974 1878 974 1882 q 956 1847 974 1864 q 924 1831 938 1831 q 908 1835 915 1831 q 890 1849 901 1840 l 696 1990 l 504 1849 q 485 1835 493 1840 q 469 1831 478 1831 z "},"Ä":{"ha":1393,"x_min":43,"x_max":1350,"o":"m 106 -19 q 56 -2 69 -19 q 51 43 43 15 l 618 1711 q 647 1755 629 1743 q 696 1767 664 1767 q 746 1755 729 1767 q 772 1711 763 1743 l 1340 43 q 1335 -2 1350 15 q 1285 -19 1321 -19 q 1240 -8 1254 -19 q 1217 32 1226 4 l 1057 513 l 333 513 l 172 32 q 149 -8 163 4 q 106 -19 136 -19 m 372 624 l 1018 624 l 696 1582 l 372 624 m 515 1885 q 456 1907 476 1885 q 436 1972 436 1929 q 456 2038 436 2017 q 515 2060 476 2060 q 572 2038 553 2060 q 592 1972 592 2017 q 574 1906 593 1928 q 515 1885 554 1885 m 879 1885 q 821 1907 840 1885 q 801 1972 801 1929 q 821 2038 801 2017 q 879 2060 840 2060 q 936 2038 917 2060 q 956 1972 956 2017 q 937 1907 957 1929 q 879 1885 917 1885 z "},"Ǽ":{"ha":1788,"x_min":32,"x_max":1710,"o":"m 1672 0 l 965 0 q 919 14 935 0 q 904 56 904 28 l 904 813 l 524 813 l 146 1 q 117 -21 136 -17 q 71 -14 97 -25 q 40 15 49 -3 q 42 50 32 32 l 811 1688 q 840 1726 825 1717 q 894 1736 856 1736 l 1672 1736 q 1701 1724 1693 1736 q 1710 1681 1710 1713 q 1701 1638 1710 1650 q 1672 1625 1693 1625 l 1026 1625 l 1026 924 l 1556 924 q 1585 912 1576 924 q 1594 868 1594 900 q 1585 825 1594 838 q 1556 813 1576 813 l 1026 813 l 1026 111 l 1672 111 q 1701 99 1693 111 q 1710 56 1710 88 q 1701 13 1710 25 q 1672 0 1693 0 m 576 924 l 904 924 l 904 1628 l 576 924 m 1197 1831 q 1163 1849 1179 1831 q 1146 1881 1146 1867 q 1148 1892 1146 1886 q 1158 1907 1150 1899 l 1378 2114 q 1391 2125 1385 2121 q 1408 2129 1397 2129 q 1439 2117 1422 2129 q 1468 2088 1456 2104 q 1481 2054 1481 2071 q 1477 2038 1481 2044 q 1460 2019 1474 2031 l 1225 1844 q 1209 1835 1215 1839 q 1197 1831 1203 1831 z "},"À":{"ha":1393,"x_min":43,"x_max":1350,"o":"m 106 -19 q 56 -2 69 -19 q 51 43 43 15 l 618 1711 q 647 1755 629 1743 q 696 1767 664 1767 q 746 1755 729 1767 q 772 1711 763 1743 l 1340 43 q 1335 -2 1350 15 q 1285 -19 1321 -19 q 1240 -8 1254 -19 q 1217 32 1226 4 l 1057 513 l 333 513 l 172 32 q 149 -8 163 4 q 106 -19 136 -19 m 372 624 l 1018 624 l 696 1582 l 372 624 m 772 1831 q 760 1835 767 1831 q 744 1844 754 1839 l 511 2019 q 494 2038 497 2031 q 490 2054 490 2044 q 502 2088 490 2071 q 531 2117 514 2104 q 561 2129 549 2129 q 578 2125 572 2129 q 592 2114 585 2121 l 811 1907 q 823 1892 821 1899 q 825 1881 825 1886 q 808 1849 825 1867 q 772 1831 790 1831 z "},"Ā":{"ha":1393,"x_min":43,"x_max":1350,"o":"m 106 -19 q 56 -2 69 -19 q 51 43 43 15 l 618 1711 q 647 1755 629 1743 q 696 1767 664 1767 q 746 1755 729 1767 q 772 1711 763 1743 l 1340 43 q 1335 -2 1350 15 q 1285 -19 1321 -19 q 1240 -8 1254 -19 q 1217 32 1226 4 l 1057 513 l 333 513 l 172 32 q 149 -8 163 4 q 106 -19 136 -19 m 372 624 l 1018 624 l 696 1582 l 372 624 m 493 1918 q 463 1934 469 1918 q 456 1975 456 1950 q 463 2019 456 2001 q 493 2036 469 2036 l 900 2036 q 931 2019 925 2036 q 938 1975 938 2001 q 931 1934 938 1950 q 900 1918 925 1918 l 493 1918 z "},"Ą":{"ha":1393,"x_min":43,"x_max":1375,"o":"m 106 -19 q 56 -2 69 -19 q 51 43 43 15 l 618 1711 q 647 1755 629 1743 q 696 1767 664 1767 q 746 1755 729 1767 q 772 1711 763 1743 l 1340 43 q 1335 -2 1350 15 q 1285 -19 1321 -19 q 1240 -8 1254 -19 q 1217 32 1226 4 l 1057 513 l 333 513 l 172 32 q 149 -8 163 4 q 106 -19 136 -19 m 372 624 l 1018 624 l 696 1582 l 372 624 m 1197 -394 q 1099 -362 1142 -394 q 1056 -262 1056 -329 q 1069 -187 1056 -224 q 1108 -116 1083 -151 q 1169 -46 1133 -81 q 1253 25 1206 -11 l 1339 26 l 1339 14 q 1276 -42 1307 -12 q 1219 -103 1244 -72 q 1179 -164 1194 -133 q 1164 -222 1164 -194 q 1180 -274 1164 -258 q 1218 -289 1196 -289 q 1258 -280 1239 -289 q 1303 -250 1276 -271 q 1326 -242 1313 -243 q 1354 -256 1340 -242 q 1372 -286 1368 -268 q 1368 -315 1375 -304 q 1321 -358 1351 -339 q 1258 -385 1290 -376 q 1197 -394 1225 -394 z "},"Å":{"ha":1393,"x_min":43,"x_max":1350,"o":"m 106 -19 q 56 -2 69 -19 q 51 43 43 15 l 618 1711 q 647 1755 629 1743 q 696 1767 664 1767 q 746 1755 729 1767 q 772 1711 763 1743 l 1340 43 q 1335 -2 1350 15 q 1285 -19 1321 -19 q 1240 -8 1254 -19 q 1217 32 1226 4 l 1057 513 l 333 513 l 172 32 q 149 -8 163 4 q 106 -19 136 -19 m 372 624 l 1018 624 l 696 1582 l 372 624 m 696 1821 q 594 1843 639 1821 q 526 1903 550 1865 q 501 1992 501 1942 q 526 2078 501 2040 q 594 2138 550 2117 q 696 2160 639 2160 q 800 2138 756 2160 q 869 2078 844 2117 q 894 1992 894 2040 q 869 1903 894 1942 q 800 1843 844 1865 q 696 1821 756 1821 m 696 1906 q 767 1931 742 1906 q 793 1992 793 1956 q 767 2051 793 2028 q 696 2075 742 2075 q 626 2051 651 2075 q 601 1992 601 2028 q 626 1931 601 1956 q 696 1906 651 1906 z "},"Ã":{"ha":1393,"x_min":43,"x_max":1350,"o":"m 106 -19 q 56 -2 69 -19 q 51 43 43 15 l 618 1711 q 647 1755 629 1743 q 696 1767 664 1767 q 746 1755 729 1767 q 772 1711 763 1743 l 1340 43 q 1335 -2 1350 15 q 1285 -19 1321 -19 q 1240 -8 1254 -19 q 1217 32 1226 4 l 1057 513 l 333 513 l 172 32 q 149 -8 163 4 q 106 -19 136 -19 m 372 624 l 1018 624 l 696 1582 l 372 624 m 478 1875 q 431 1913 431 1875 q 467 2044 432 1999 q 572 2089 503 2089 q 649 2073 615 2089 q 711 2037 683 2057 q 763 2001 739 2017 q 811 1985 788 1985 q 844 2007 833 1985 q 857 2061 856 2029 q 904 2090 861 2090 q 942 2081 931 2090 q 954 2053 954 2071 q 917 1922 953 1965 q 811 1878 882 1878 q 735 1894 769 1878 q 672 1931 700 1910 q 619 1967 643 1951 q 572 1983 594 1983 q 540 1965 550 1983 q 528 1911 531 1947 q 514 1885 526 1894 q 478 1875 501 1875 z "},"Ắ":{"ha":1393,"x_min":43,"x_max":1350,"o":"m 106 -19 q 56 -2 69 -19 q 51 43 43 15 l 618 1711 q 647 1755 629 1743 q 696 1767 664 1767 q 746 1755 729 1767 q 772 1711 763 1743 l 1340 43 q 1335 -2 1350 15 q 1285 -19 1321 -19 q 1240 -8 1254 -19 q 1217 32 1226 4 l 1057 513 l 333 513 l 172 32 q 149 -8 163 4 q 106 -19 136 -19 m 372 624 l 1018 624 l 696 1582 l 372 624 m 696 1832 q 513 1895 581 1832 q 435 2089 444 1958 q 447 2117 433 2106 q 488 2129 461 2129 q 518 2119 510 2129 q 531 2089 526 2108 q 588 1988 550 2021 q 696 1956 625 1956 q 805 1988 767 1956 q 860 2089 843 2021 q 873 2119 865 2108 q 903 2129 881 2129 q 944 2117 929 2129 q 957 2089 958 2106 q 917 1949 951 2006 q 826 1862 882 1892 q 696 1832 769 1832 m 619 2107 q 585 2124 601 2107 q 568 2157 568 2142 q 570 2169 568 2163 q 581 2183 572 2175 l 800 2390 q 813 2401 807 2397 q 831 2406 819 2406 q 861 2393 844 2406 q 890 2363 878 2381 q 903 2331 903 2346 q 899 2314 903 2321 q 882 2296 896 2307 l 647 2119 q 631 2110 638 2114 q 619 2107 625 2107 z "},"Ặ":{"ha":1393,"x_min":43,"x_max":1350,"o":"m 106 -19 q 56 -2 69 -19 q 51 43 43 15 l 618 1711 q 647 1755 629 1743 q 696 1767 664 1767 q 746 1755 729 1767 q 772 1711 763 1743 l 1340 43 q 1335 -2 1350 15 q 1285 -19 1321 -19 q 1240 -8 1254 -19 q 1217 32 1226 4 l 1057 513 l 333 513 l 172 32 q 149 -8 163 4 q 106 -19 136 -19 m 372 624 l 1018 624 l 696 1582 l 372 624 m 696 -326 q 638 -305 657 -326 q 618 -239 618 -283 q 638 -173 618 -194 q 696 -151 657 -151 q 753 -173 733 -151 q 772 -239 772 -194 q 753 -305 774 -283 q 696 -326 733 -326 m 696 1832 q 513 1895 581 1832 q 435 2089 444 1958 q 447 2117 433 2106 q 488 2129 461 2129 q 518 2119 510 2129 q 531 2089 526 2108 q 588 1988 550 2021 q 696 1956 625 1956 q 805 1988 767 1956 q 860 2089 843 2021 q 873 2119 865 2108 q 903 2129 881 2129 q 944 2117 929 2129 q 957 2089 958 2106 q 917 1949 951 2006 q 826 1862 882 1892 q 696 1832 769 1832 z "},"Ằ":{"ha":1393,"x_min":43,"x_max":1350,"o":"m 106 -19 q 56 -2 69 -19 q 51 43 43 15 l 618 1711 q 647 1755 629 1743 q 696 1767 664 1767 q 746 1755 729 1767 q 772 1711 763 1743 l 1340 43 q 1335 -2 1350 15 q 1285 -19 1321 -19 q 1240 -8 1254 -19 q 1217 32 1226 4 l 1057 513 l 333 513 l 172 32 q 149 -8 163 4 q 106 -19 136 -19 m 372 624 l 1018 624 l 696 1582 l 372 624 m 696 1832 q 513 1895 581 1832 q 435 2089 444 1958 q 447 2117 433 2106 q 488 2129 461 2129 q 518 2119 510 2129 q 531 2089 526 2108 q 588 1988 550 2021 q 696 1956 625 1956 q 805 1988 767 1956 q 860 2089 843 2021 q 873 2119 865 2108 q 903 2129 881 2129 q 944 2117 929 2129 q 957 2089 958 2106 q 917 1949 951 2006 q 826 1862 882 1892 q 696 1832 769 1832 m 772 2106 q 760 2110 767 2106 q 744 2119 754 2114 l 511 2296 q 494 2314 497 2307 q 490 2331 490 2321 q 502 2363 490 2346 q 531 2392 514 2379 q 561 2404 549 2404 q 578 2400 572 2404 q 592 2389 585 2396 l 811 2182 q 823 2167 821 2174 q 825 2156 825 2161 q 808 2124 825 2142 q 772 2106 790 2106 z "},"Ẳ":{"ha":1393,"x_min":43,"x_max":1350,"o":"m 106 -19 q 56 -2 69 -19 q 51 43 43 15 l 618 1711 q 647 1755 629 1743 q 696 1767 664 1767 q 746 1755 729 1767 q 772 1711 763 1743 l 1340 43 q 1335 -2 1350 15 q 1285 -19 1321 -19 q 1240 -8 1254 -19 q 1217 32 1226 4 l 1057 513 l 333 513 l 172 32 q 149 -8 163 4 q 106 -19 136 -19 m 372 624 l 1018 624 l 696 1582 l 372 624 m 696 1832 q 513 1895 581 1832 q 435 2089 444 1958 q 447 2117 433 2106 q 488 2129 461 2129 q 518 2119 510 2129 q 531 2089 526 2108 q 588 1988 550 2021 q 696 1956 625 1956 q 805 1988 767 1956 q 860 2089 843 2021 q 873 2119 865 2108 q 903 2129 881 2129 q 944 2117 929 2129 q 957 2089 958 2106 q 917 1949 951 2006 q 826 1862 882 1892 q 696 1832 769 1832 m 710 2411 q 819 2378 778 2411 q 861 2292 861 2344 q 844 2226 861 2254 q 788 2171 828 2199 q 762 2145 769 2157 q 757 2121 754 2133 l 758 2110 q 751 2085 763 2096 q 721 2069 739 2074 q 687 2068 703 2064 q 664 2088 671 2072 l 649 2124 q 651 2183 638 2156 q 694 2233 664 2211 q 722 2258 713 2247 q 731 2281 731 2269 q 719 2301 731 2292 q 688 2310 707 2310 q 641 2303 664 2310 q 607 2288 618 2297 q 547 2310 574 2267 q 556 2364 532 2342 q 625 2398 585 2385 q 710 2411 665 2411 z "},"Ẵ":{"ha":1393,"x_min":43,"x_max":1350,"o":"m 106 -19 q 56 -2 69 -19 q 51 43 43 15 l 618 1711 q 647 1755 629 1743 q 696 1767 664 1767 q 746 1755 729 1767 q 772 1711 763 1743 l 1340 43 q 1335 -2 1350 15 q 1285 -19 1321 -19 q 1240 -8 1254 -19 q 1217 32 1226 4 l 1057 513 l 333 513 l 172 32 q 149 -8 163 4 q 106 -19 136 -19 m 372 624 l 1018 624 l 696 1582 l 372 624 m 696 1832 q 513 1895 581 1832 q 435 2089 444 1958 q 447 2117 433 2106 q 488 2129 461 2129 q 518 2119 510 2129 q 531 2089 526 2108 q 588 1988 550 2021 q 696 1956 625 1956 q 805 1988 767 1956 q 860 2089 843 2021 q 873 2119 865 2108 q 903 2129 881 2129 q 944 2117 929 2129 q 957 2089 958 2106 q 917 1949 951 2006 q 826 1862 882 1892 q 696 1832 769 1832 m 478 2169 q 431 2206 431 2169 q 467 2338 432 2293 q 572 2382 503 2382 q 649 2366 615 2382 q 711 2330 683 2350 q 763 2294 739 2310 q 811 2278 788 2278 q 844 2300 833 2278 q 857 2354 856 2322 q 904 2385 861 2385 q 942 2375 931 2385 q 954 2346 954 2365 q 917 2215 953 2258 q 811 2171 882 2171 q 735 2187 769 2171 q 672 2224 700 2203 q 619 2260 643 2244 q 572 2276 594 2276 q 540 2259 550 2276 q 528 2206 531 2242 q 514 2178 526 2188 q 478 2169 501 2169 z "},"Ấ":{"ha":1393,"x_min":43,"x_max":1350,"o":"m 106 -19 q 56 -2 69 -19 q 51 43 43 15 l 618 1711 q 647 1755 629 1743 q 696 1767 664 1767 q 746 1755 729 1767 q 772 1711 763 1743 l 1340 43 q 1335 -2 1350 15 q 1285 -19 1321 -19 q 1240 -8 1254 -19 q 1217 32 1226 4 l 1057 513 l 333 513 l 172 32 q 149 -8 163 4 q 106 -19 136 -19 m 372 624 l 1018 624 l 696 1582 l 372 624 m 469 1831 q 438 1847 456 1831 q 421 1878 421 1864 q 421 1888 421 1882 q 428 1900 421 1893 l 635 2101 q 657 2120 644 2111 q 696 2129 669 2129 q 734 2120 722 2129 q 756 2101 746 2111 l 965 1900 q 973 1888 972 1893 q 974 1878 974 1882 q 956 1847 974 1864 q 924 1831 938 1831 q 908 1835 915 1831 q 890 1849 901 1840 l 696 1990 l 504 1849 q 485 1835 493 1840 q 469 1831 478 1831 m 928 2051 q 893 2069 910 2051 q 876 2101 876 2088 q 878 2113 876 2107 q 889 2128 881 2118 l 1088 2313 q 1101 2324 1094 2319 q 1119 2329 1108 2329 q 1149 2317 1133 2329 q 1177 2288 1165 2306 q 1189 2254 1189 2271 q 1186 2238 1189 2244 q 1168 2219 1183 2232 l 956 2065 q 940 2056 947 2060 q 928 2051 933 2051 z "},"Ậ":{"ha":1393,"x_min":43,"x_max":1350,"o":"m 106 -19 q 56 -2 69 -19 q 51 43 43 15 l 618 1711 q 647 1755 629 1743 q 696 1767 664 1767 q 746 1755 729 1767 q 772 1711 763 1743 l 1340 43 q 1335 -2 1350 15 q 1285 -19 1321 -19 q 1240 -8 1254 -19 q 1217 32 1226 4 l 1057 513 l 333 513 l 172 32 q 149 -8 163 4 q 106 -19 136 -19 m 372 624 l 1018 624 l 696 1582 l 372 624 m 696 -326 q 638 -305 657 -326 q 618 -239 618 -283 q 638 -173 618 -194 q 696 -151 657 -151 q 753 -173 733 -151 q 772 -239 772 -194 q 753 -305 774 -283 q 696 -326 733 -326 m 469 1831 q 438 1847 456 1831 q 421 1878 421 1864 q 421 1888 421 1882 q 428 1900 421 1893 l 635 2101 q 657 2120 644 2111 q 696 2129 669 2129 q 734 2120 722 2129 q 756 2101 746 2111 l 965 1900 q 973 1888 972 1893 q 974 1878 974 1882 q 956 1847 974 1864 q 924 1831 938 1831 q 908 1835 915 1831 q 890 1849 901 1840 l 696 1990 l 504 1849 q 485 1835 493 1840 q 469 1831 478 1831 z "},"Ầ":{"ha":1393,"x_min":43,"x_max":1350,"o":"m 106 -19 q 56 -2 69 -19 q 51 43 43 15 l 618 1711 q 647 1755 629 1743 q 696 1767 664 1767 q 746 1755 729 1767 q 772 1711 763 1743 l 1340 43 q 1335 -2 1350 15 q 1285 -19 1321 -19 q 1240 -8 1254 -19 q 1217 32 1226 4 l 1057 513 l 333 513 l 172 32 q 149 -8 163 4 q 106 -19 136 -19 m 372 624 l 1018 624 l 696 1582 l 372 624 m 469 1831 q 438 1847 456 1831 q 421 1878 421 1864 q 421 1888 421 1882 q 428 1900 421 1893 l 635 2101 q 657 2120 644 2111 q 696 2129 669 2129 q 734 2120 722 2129 q 756 2101 746 2111 l 965 1900 q 973 1888 972 1893 q 974 1878 974 1882 q 956 1847 974 1864 q 924 1831 938 1831 q 908 1835 915 1831 q 890 1849 901 1840 l 696 1990 l 504 1849 q 485 1835 493 1840 q 469 1831 478 1831 m 1025 2028 q 1013 2031 1019 2028 q 997 2042 1007 2033 l 788 2225 q 770 2244 774 2238 q 767 2260 767 2250 q 780 2292 767 2275 q 810 2321 793 2310 q 842 2332 828 2332 q 858 2328 851 2332 q 871 2317 865 2324 l 1064 2104 q 1076 2090 1074 2096 q 1078 2078 1078 2083 q 1060 2046 1078 2064 q 1025 2028 1043 2028 z "},"Ẩ":{"ha":1393,"x_min":43,"x_max":1350,"o":"m 106 -19 q 56 -2 69 -19 q 51 43 43 15 l 618 1711 q 647 1755 629 1743 q 696 1767 664 1767 q 746 1755 729 1767 q 772 1711 763 1743 l 1340 43 q 1335 -2 1350 15 q 1285 -19 1321 -19 q 1240 -8 1254 -19 q 1217 32 1226 4 l 1057 513 l 333 513 l 172 32 q 149 -8 163 4 q 106 -19 136 -19 m 372 624 l 1018 624 l 696 1582 l 372 624 m 469 1831 q 438 1847 456 1831 q 421 1878 421 1864 q 421 1888 421 1882 q 428 1900 421 1893 l 635 2101 q 657 2120 644 2111 q 696 2129 669 2129 q 734 2120 722 2129 q 756 2101 746 2111 l 965 1900 q 973 1888 972 1893 q 974 1878 974 1882 q 956 1847 974 1864 q 924 1831 938 1831 q 908 1835 915 1831 q 890 1849 901 1840 l 696 1990 l 504 1849 q 485 1835 493 1840 q 469 1831 478 1831 m 947 2363 q 1057 2329 1015 2363 q 1099 2243 1099 2296 q 1082 2178 1099 2206 q 1026 2122 1065 2150 q 999 2097 1007 2108 q 994 2072 992 2085 l 996 2061 q 988 2036 1000 2047 q 958 2020 976 2025 q 924 2019 940 2015 q 901 2039 908 2024 l 886 2075 q 888 2135 875 2107 q 932 2185 901 2163 q 959 2210 950 2199 q 968 2232 968 2221 q 956 2252 968 2243 q 925 2261 944 2261 q 878 2255 901 2261 q 844 2239 856 2249 q 785 2261 811 2218 q 793 2315 769 2293 q 863 2349 822 2336 q 947 2363 903 2363 z "},"Ẫ":{"ha":1393,"x_min":43,"x_max":1350,"o":"m 106 -19 q 56 -2 69 -19 q 51 43 43 15 l 618 1711 q 647 1755 629 1743 q 696 1767 664 1767 q 746 1755 729 1767 q 772 1711 763 1743 l 1340 43 q 1335 -2 1350 15 q 1285 -19 1321 -19 q 1240 -8 1254 -19 q 1217 32 1226 4 l 1057 513 l 333 513 l 172 32 q 149 -8 163 4 q 106 -19 136 -19 m 372 624 l 1018 624 l 696 1582 l 372 624 m 469 1831 q 438 1847 456 1831 q 421 1878 421 1864 q 421 1888 421 1882 q 428 1900 421 1893 l 635 2101 q 657 2120 644 2111 q 696 2129 669 2129 q 734 2120 722 2129 q 756 2101 746 2111 l 965 1900 q 973 1888 972 1893 q 974 1878 974 1882 q 956 1847 974 1864 q 924 1831 938 1831 q 908 1835 915 1831 q 890 1849 901 1840 l 696 1990 l 504 1849 q 485 1835 493 1840 q 469 1831 478 1831 m 481 2146 q 433 2183 433 2146 q 470 2315 435 2269 q 575 2360 506 2360 q 652 2344 618 2360 q 714 2308 686 2328 q 766 2272 742 2288 q 814 2256 790 2256 q 847 2278 836 2256 q 860 2332 858 2300 q 907 2361 864 2361 q 945 2352 933 2361 q 957 2324 957 2343 q 920 2192 956 2236 q 814 2149 885 2149 q 738 2165 772 2149 q 674 2201 703 2181 q 622 2238 646 2222 q 575 2254 597 2254 q 543 2236 553 2254 q 531 2183 533 2218 q 517 2156 529 2165 q 481 2146 504 2146 z "},"Ạ":{"ha":1393,"x_min":43,"x_max":1350,"o":"m 106 -19 q 56 -2 69 -19 q 51 43 43 15 l 618 1711 q 647 1755 629 1743 q 696 1767 664 1767 q 746 1755 729 1767 q 772 1711 763 1743 l 1340 43 q 1335 -2 1350 15 q 1285 -19 1321 -19 q 1240 -8 1254 -19 q 1217 32 1226 4 l 1057 513 l 333 513 l 172 32 q 149 -8 163 4 q 106 -19 136 -19 m 372 624 l 1018 624 l 696 1582 l 372 624 m 696 -326 q 638 -305 657 -326 q 618 -239 618 -283 q 638 -173 618 -194 q 696 -151 657 -151 q 753 -173 733 -151 q 772 -239 772 -194 q 753 -305 774 -283 q 696 -326 733 -326 z "},"Ả":{"ha":1393,"x_min":43,"x_max":1350,"o":"m 106 -19 q 56 -2 69 -19 q 51 43 43 15 l 618 1711 q 647 1755 629 1743 q 696 1767 664 1767 q 746 1755 729 1767 q 772 1711 763 1743 l 1340 43 q 1335 -2 1350 15 q 1285 -19 1321 -19 q 1240 -8 1254 -19 q 1217 32 1226 4 l 1057 513 l 333 513 l 172 32 q 149 -8 163 4 q 106 -19 136 -19 m 372 624 l 1018 624 l 696 1582 l 372 624 m 714 2165 q 824 2132 782 2165 q 865 2044 865 2099 q 849 1981 865 2008 q 793 1925 832 1953 q 767 1899 775 1911 q 763 1875 760 1888 l 764 1864 q 756 1839 768 1850 q 726 1823 744 1828 q 692 1822 708 1818 q 669 1842 676 1826 l 654 1878 q 656 1938 643 1910 q 699 1988 668 1965 q 726 2013 718 2001 q 735 2035 735 2024 q 723 2055 735 2046 q 692 2064 711 2064 q 646 2058 668 2064 q 611 2042 624 2051 q 553 2064 578 2021 q 561 2118 536 2096 q 630 2152 590 2139 q 714 2165 669 2165 z "},"Ć":{"ha":1438,"x_min":161,"x_max":1376,"o":"m 849 -26 q 565 38 692 -26 q 347 222 438 103 q 209 505 257 340 q 161 871 161 669 q 183 1124 161 1006 q 249 1341 206 1242 q 353 1519 292 1440 q 494 1653 415 1597 q 665 1738 572 1708 q 863 1767 758 1767 q 1031 1744 946 1767 q 1192 1671 1115 1721 q 1325 1542 1269 1621 q 1332 1513 1338 1525 q 1310 1485 1326 1500 q 1276 1465 1290 1468 q 1249 1476 1263 1463 q 1133 1570 1194 1532 q 1003 1628 1071 1608 q 863 1649 935 1649 q 706 1625 781 1649 q 568 1556 632 1601 q 453 1442 504 1510 q 365 1288 401 1375 q 310 1097 329 1201 q 290 871 290 993 q 331 546 290 690 q 446 300 372 401 q 622 145 519 199 q 849 92 725 92 q 975 111 915 92 q 1089 166 1035 131 q 1192 247 1143 201 q 1286 344 1240 293 q 1315 354 1299 357 q 1349 336 1331 351 q 1372 308 1368 321 q 1365 281 1376 296 q 1205 108 1289 176 q 1032 7 1121 40 q 849 -26 943 -26 m 771 1831 q 736 1849 753 1831 q 719 1881 719 1867 q 722 1892 719 1886 q 732 1907 724 1899 l 951 2114 q 965 2125 958 2121 q 982 2129 971 2129 q 1013 2117 996 2129 q 1042 2088 1029 2104 q 1054 2054 1054 2071 q 1051 2038 1054 2044 q 1033 2019 1047 2031 l 799 1844 q 783 1835 789 1839 q 771 1831 776 1831 z "},"Č":{"ha":1438,"x_min":161,"x_max":1376,"o":"m 849 -26 q 565 38 692 -26 q 347 222 438 103 q 209 505 257 340 q 161 871 161 669 q 183 1124 161 1006 q 249 1341 206 1242 q 353 1519 292 1440 q 494 1653 415 1597 q 665 1738 572 1708 q 863 1767 758 1767 q 1031 1744 946 1767 q 1192 1671 1115 1721 q 1325 1542 1269 1621 q 1332 1513 1338 1525 q 1310 1485 1326 1500 q 1276 1465 1290 1468 q 1249 1476 1263 1463 q 1133 1570 1194 1532 q 1003 1628 1071 1608 q 863 1649 935 1649 q 706 1625 781 1649 q 568 1556 632 1601 q 453 1442 504 1510 q 365 1288 401 1375 q 310 1097 329 1201 q 290 871 290 993 q 331 546 290 690 q 446 300 372 401 q 622 145 519 199 q 849 92 725 92 q 975 111 915 92 q 1089 166 1035 131 q 1192 247 1143 201 q 1286 344 1240 293 q 1315 354 1299 357 q 1349 336 1331 351 q 1372 308 1368 321 q 1365 281 1376 296 q 1205 108 1289 176 q 1032 7 1121 40 q 849 -26 943 -26 m 1076 2129 q 1107 2113 1089 2129 q 1125 2082 1125 2097 q 1124 2074 1125 2079 q 1117 2060 1124 2068 l 910 1858 q 888 1840 900 1850 q 849 1831 876 1831 q 810 1840 822 1831 q 790 1858 799 1850 l 579 2060 q 572 2074 572 2068 q 572 2082 572 2079 q 590 2113 572 2097 q 621 2129 607 2129 q 637 2124 629 2129 q 656 2113 644 2119 l 849 1969 l 1042 2113 q 1060 2124 1053 2119 q 1076 2129 1067 2129 z "},"Ç":{"ha":1438,"x_min":161,"x_max":1376,"o":"m 849 -26 q 565 38 692 -26 q 347 222 438 103 q 209 505 257 340 q 161 871 161 669 q 183 1124 161 1006 q 249 1341 206 1242 q 353 1519 292 1440 q 494 1653 415 1597 q 665 1738 572 1708 q 863 1767 758 1767 q 1031 1744 946 1767 q 1192 1671 1115 1721 q 1325 1542 1269 1621 q 1332 1513 1338 1525 q 1310 1485 1326 1500 q 1276 1465 1290 1468 q 1249 1476 1263 1463 q 1133 1570 1194 1532 q 1003 1628 1071 1608 q 863 1649 935 1649 q 706 1625 781 1649 q 568 1556 632 1601 q 453 1442 504 1510 q 365 1288 401 1375 q 310 1097 329 1201 q 290 871 290 993 q 331 546 290 690 q 446 300 372 401 q 622 145 519 199 q 849 92 725 92 q 975 111 915 92 q 1089 166 1035 131 q 1192 247 1143 201 q 1286 344 1240 293 q 1315 354 1299 357 q 1349 336 1331 351 q 1372 308 1368 321 q 1365 281 1376 296 q 1205 108 1289 176 q 1032 7 1121 40 q 849 -26 943 -26 m 806 -386 q 733 -378 778 -386 q 650 -347 688 -369 q 633 -322 635 -337 q 638 -290 631 -306 q 660 -265 647 -271 q 690 -267 672 -260 q 733 -282 706 -274 q 796 -290 760 -290 q 859 -279 839 -290 q 879 -237 879 -268 q 855 -195 879 -211 q 769 -187 831 -179 q 746 -186 754 -189 q 729 -174 738 -183 q 722 -154 722 -164 q 725 -135 721 -144 l 789 18 l 881 18 l 810 -146 l 768 -124 q 880 -108 831 -100 q 959 -150 929 -117 q 989 -237 989 -183 q 967 -318 989 -285 q 906 -369 946 -351 q 806 -386 865 -386 z "},"Ĉ":{"ha":1438,"x_min":161,"x_max":1376,"o":"m 849 -26 q 565 38 692 -26 q 347 222 438 103 q 209 505 257 340 q 161 871 161 669 q 183 1124 161 1006 q 249 1341 206 1242 q 353 1519 292 1440 q 494 1653 415 1597 q 665 1738 572 1708 q 863 1767 758 1767 q 1031 1744 946 1767 q 1192 1671 1115 1721 q 1325 1542 1269 1621 q 1332 1513 1338 1525 q 1310 1485 1326 1500 q 1276 1465 1290 1468 q 1249 1476 1263 1463 q 1133 1570 1194 1532 q 1003 1628 1071 1608 q 863 1649 935 1649 q 706 1625 781 1649 q 568 1556 632 1601 q 453 1442 504 1510 q 365 1288 401 1375 q 310 1097 329 1201 q 290 871 290 993 q 331 546 290 690 q 446 300 372 401 q 622 145 519 199 q 849 92 725 92 q 975 111 915 92 q 1089 166 1035 131 q 1192 247 1143 201 q 1286 344 1240 293 q 1315 354 1299 357 q 1349 336 1331 351 q 1372 308 1368 321 q 1365 281 1376 296 q 1205 108 1289 176 q 1032 7 1121 40 q 849 -26 943 -26 m 621 1831 q 590 1847 607 1831 q 572 1878 572 1864 q 572 1888 572 1882 q 579 1900 572 1893 l 786 2101 q 808 2120 796 2111 q 847 2129 821 2129 q 885 2120 874 2129 q 907 2101 897 2111 l 1117 1900 q 1124 1888 1124 1893 q 1125 1878 1125 1882 q 1107 1847 1125 1864 q 1075 1831 1089 1831 q 1060 1835 1067 1831 q 1042 1849 1053 1840 l 847 1990 l 656 1849 q 637 1835 644 1840 q 621 1831 629 1831 z "},"Ċ":{"ha":1438,"x_min":161,"x_max":1376,"o":"m 849 -26 q 565 38 692 -26 q 347 222 438 103 q 209 505 257 340 q 161 871 161 669 q 183 1124 161 1006 q 249 1341 206 1242 q 353 1519 292 1440 q 494 1653 415 1597 q 665 1738 572 1708 q 863 1767 758 1767 q 1031 1744 946 1767 q 1192 1671 1115 1721 q 1325 1542 1269 1621 q 1332 1513 1338 1525 q 1310 1485 1326 1500 q 1276 1465 1290 1468 q 1249 1476 1263 1463 q 1133 1570 1194 1532 q 1003 1628 1071 1608 q 863 1649 935 1649 q 706 1625 781 1649 q 568 1556 632 1601 q 453 1442 504 1510 q 365 1288 401 1375 q 310 1097 329 1201 q 290 871 290 993 q 331 546 290 690 q 446 300 372 401 q 622 145 519 199 q 849 92 725 92 q 975 111 915 92 q 1089 166 1035 131 q 1192 247 1143 201 q 1286 344 1240 293 q 1315 354 1299 357 q 1349 336 1331 351 q 1372 308 1368 321 q 1365 281 1376 296 q 1205 108 1289 176 q 1032 7 1121 40 q 849 -26 943 -26 m 847 1883 q 789 1905 808 1883 q 769 1969 769 1926 q 789 2036 769 2014 q 847 2058 808 2058 q 904 2036 885 2058 q 924 1969 924 2014 q 905 1905 925 1926 q 847 1883 885 1883 z "},"Ď":{"ha":1613,"x_min":251,"x_max":1451,"o":"m 313 0 q 251 39 251 0 l 251 1697 q 267 1726 251 1717 q 313 1736 282 1736 l 650 1736 q 994 1680 844 1736 q 1245 1520 1143 1624 q 1399 1274 1347 1417 q 1451 957 1451 1132 q 1414 630 1451 779 q 1302 364 1376 481 q 1119 166 1228 247 q 866 42 1010 85 q 546 0 722 0 l 313 0 m 374 118 l 544 118 q 818 154 696 118 q 1033 260 940 190 q 1190 431 1126 329 q 1285 664 1253 532 q 1318 957 1318 796 q 1274 1230 1318 1108 q 1143 1438 1229 1351 q 933 1572 1057 1525 q 650 1618 810 1618 l 374 1618 l 374 118 m 985 2129 q 1015 2113 997 2129 q 1033 2082 1033 2097 q 1033 2074 1033 2079 q 1025 2060 1032 2068 l 818 1858 q 797 1840 808 1850 q 757 1831 785 1831 q 719 1840 731 1831 q 699 1858 707 1850 l 488 2060 q 481 2074 481 2068 q 481 2082 481 2079 q 498 2113 481 2097 q 529 2129 515 2129 q 545 2124 538 2129 q 564 2113 553 2119 l 757 1969 l 950 2113 q 968 2124 961 2119 q 985 2129 975 2129 z "},"Đ":{"ha":1613,"x_min":24,"x_max":1451,"o":"m 313 0 q 251 39 251 0 l 251 1697 q 267 1726 251 1717 q 313 1736 282 1736 l 650 1736 q 994 1680 844 1736 q 1245 1520 1143 1624 q 1399 1274 1347 1417 q 1451 957 1451 1132 q 1414 630 1451 779 q 1302 364 1376 481 q 1119 166 1228 247 q 866 42 1010 85 q 546 0 722 0 l 313 0 m 374 118 l 544 118 q 818 154 696 118 q 1033 260 940 190 q 1190 431 1126 329 q 1285 664 1253 532 q 1318 957 1318 796 q 1274 1230 1318 1108 q 1143 1438 1229 1351 q 933 1572 1057 1525 q 650 1618 810 1618 l 374 1618 l 374 118 m 63 824 q 31 839 38 824 q 24 872 24 854 q 31 908 24 892 q 63 925 38 925 l 697 925 q 728 908 721 925 q 735 872 735 892 q 728 839 735 854 q 697 824 721 824 l 63 824 z "},"É":{"ha":1229,"x_min":251,"x_max":1151,"o":"m 313 0 q 267 14 282 0 q 251 56 251 28 l 251 1697 q 267 1726 251 1717 q 313 1736 282 1736 l 1113 1736 q 1142 1724 1133 1736 q 1151 1681 1151 1713 q 1142 1638 1151 1650 q 1113 1625 1133 1625 l 374 1625 l 374 972 l 996 972 q 1026 960 1017 972 q 1035 917 1035 949 q 1026 874 1035 886 q 996 861 1017 861 l 374 861 l 374 111 l 1113 111 q 1142 99 1133 111 q 1151 56 1151 88 q 1142 13 1151 25 q 1113 0 1133 0 l 313 0 m 640 1831 q 606 1849 622 1831 q 589 1881 589 1867 q 591 1892 589 1886 q 601 1907 593 1899 l 821 2114 q 834 2125 828 2121 q 851 2129 840 2129 q 882 2117 865 2129 q 911 2088 899 2104 q 924 2054 924 2071 q 920 2038 924 2044 q 903 2019 917 2031 l 668 1844 q 652 1835 658 1839 q 640 1831 646 1831 z "},"Ĕ":{"ha":1229,"x_min":251,"x_max":1151,"o":"m 313 0 q 267 14 282 0 q 251 56 251 28 l 251 1697 q 267 1726 251 1717 q 313 1736 282 1736 l 1113 1736 q 1142 1724 1133 1736 q 1151 1681 1151 1713 q 1142 1638 1151 1650 q 1113 1625 1133 1625 l 374 1625 l 374 972 l 996 972 q 1026 960 1017 972 q 1035 917 1035 949 q 1026 874 1035 886 q 996 861 1017 861 l 374 861 l 374 111 l 1113 111 q 1142 99 1133 111 q 1151 56 1151 88 q 1142 13 1151 25 q 1113 0 1133 0 l 313 0 m 717 1832 q 533 1895 601 1832 q 456 2089 465 1958 q 468 2117 454 2106 q 508 2129 482 2129 q 539 2119 531 2129 q 551 2089 547 2108 q 608 1988 571 2021 q 717 1956 646 1956 q 826 1988 788 1956 q 881 2089 864 2021 q 894 2119 886 2108 q 924 2129 901 2129 q 965 2117 950 2129 q 978 2089 979 2106 q 938 1949 972 2006 q 847 1862 903 1892 q 717 1832 790 1832 z "},"Ě":{"ha":1229,"x_min":251,"x_max":1151,"o":"m 313 0 q 267 14 282 0 q 251 56 251 28 l 251 1697 q 267 1726 251 1717 q 313 1736 282 1736 l 1113 1736 q 1142 1724 1133 1736 q 1151 1681 1151 1713 q 1142 1638 1151 1650 q 1113 1625 1133 1625 l 374 1625 l 374 972 l 996 972 q 1026 960 1017 972 q 1035 917 1035 949 q 1026 874 1035 886 q 996 861 1017 861 l 374 861 l 374 111 l 1113 111 q 1142 99 1133 111 q 1151 56 1151 88 q 1142 13 1151 25 q 1113 0 1133 0 l 313 0 m 946 2129 q 976 2113 958 2129 q 994 2082 994 2097 q 994 2074 994 2079 q 986 2060 993 2068 l 779 1858 q 758 1840 769 1850 q 718 1831 746 1831 q 680 1840 692 1831 q 660 1858 668 1850 l 449 2060 q 442 2074 442 2068 q 442 2082 442 2079 q 459 2113 442 2097 q 490 2129 476 2129 q 506 2124 499 2129 q 525 2113 514 2119 l 718 1969 l 911 2113 q 929 2124 922 2119 q 946 2129 936 2129 z "},"Ê":{"ha":1229,"x_min":251,"x_max":1151,"o":"m 313 0 q 267 14 282 0 q 251 56 251 28 l 251 1697 q 267 1726 251 1717 q 313 1736 282 1736 l 1113 1736 q 1142 1724 1133 1736 q 1151 1681 1151 1713 q 1142 1638 1151 1650 q 1113 1625 1133 1625 l 374 1625 l 374 972 l 996 972 q 1026 960 1017 972 q 1035 917 1035 949 q 1026 874 1035 886 q 996 861 1017 861 l 374 861 l 374 111 l 1113 111 q 1142 99 1133 111 q 1151 56 1151 88 q 1142 13 1151 25 q 1113 0 1133 0 l 313 0 m 490 1831 q 459 1847 476 1831 q 442 1878 442 1864 q 442 1888 442 1882 q 449 1900 442 1893 l 656 2101 q 678 2120 665 2111 q 717 2129 690 2129 q 755 2120 743 2129 q 776 2101 767 2111 l 986 1900 q 994 1888 993 1893 q 994 1878 994 1882 q 976 1847 994 1864 q 944 1831 958 1831 q 929 1835 936 1831 q 911 1849 922 1840 l 717 1990 l 525 1849 q 506 1835 514 1840 q 490 1831 499 1831 z "},"Ë":{"ha":1229,"x_min":251,"x_max":1151,"o":"m 313 0 q 267 14 282 0 q 251 56 251 28 l 251 1697 q 267 1726 251 1717 q 313 1736 282 1736 l 1113 1736 q 1142 1724 1133 1736 q 1151 1681 1151 1713 q 1142 1638 1151 1650 q 1113 1625 1133 1625 l 374 1625 l 374 972 l 996 972 q 1026 960 1017 972 q 1035 917 1035 949 q 1026 874 1035 886 q 996 861 1017 861 l 374 861 l 374 111 l 1113 111 q 1142 99 1133 111 q 1151 56 1151 88 q 1142 13 1151 25 q 1113 0 1133 0 l 313 0 m 536 1885 q 477 1907 497 1885 q 457 1972 457 1929 q 477 2038 457 2017 q 536 2060 497 2060 q 593 2038 574 2060 q 613 1972 613 2017 q 594 1906 614 1928 q 536 1885 575 1885 m 900 1885 q 842 1907 861 1885 q 822 1972 822 1929 q 842 2038 822 2017 q 900 2060 861 2060 q 957 2038 938 2060 q 976 1972 976 2017 q 958 1907 978 1929 q 900 1885 938 1885 z "},"Ė":{"ha":1229,"x_min":251,"x_max":1151,"o":"m 313 0 q 267 14 282 0 q 251 56 251 28 l 251 1697 q 267 1726 251 1717 q 313 1736 282 1736 l 1113 1736 q 1142 1724 1133 1736 q 1151 1681 1151 1713 q 1142 1638 1151 1650 q 1113 1625 1133 1625 l 374 1625 l 374 972 l 996 972 q 1026 960 1017 972 q 1035 917 1035 949 q 1026 874 1035 886 q 996 861 1017 861 l 374 861 l 374 111 l 1113 111 q 1142 99 1133 111 q 1151 56 1151 88 q 1142 13 1151 25 q 1113 0 1133 0 l 313 0 m 717 1883 q 658 1905 678 1883 q 639 1969 639 1926 q 658 2036 639 2014 q 717 2058 678 2058 q 774 2036 754 2058 q 793 1969 793 2014 q 774 1905 794 1926 q 717 1883 754 1883 z "},"È":{"ha":1229,"x_min":251,"x_max":1151,"o":"m 313 0 q 267 14 282 0 q 251 56 251 28 l 251 1697 q 267 1726 251 1717 q 313 1736 282 1736 l 1113 1736 q 1142 1724 1133 1736 q 1151 1681 1151 1713 q 1142 1638 1151 1650 q 1113 1625 1133 1625 l 374 1625 l 374 972 l 996 972 q 1026 960 1017 972 q 1035 917 1035 949 q 1026 874 1035 886 q 996 861 1017 861 l 374 861 l 374 111 l 1113 111 q 1142 99 1133 111 q 1151 56 1151 88 q 1142 13 1151 25 q 1113 0 1133 0 l 313 0 m 793 1831 q 781 1835 788 1831 q 765 1844 775 1839 l 532 2019 q 515 2038 518 2031 q 511 2054 511 2044 q 523 2088 511 2071 q 552 2117 535 2104 q 582 2129 569 2129 q 599 2125 593 2129 q 613 2114 606 2121 l 832 1907 q 844 1892 842 1899 q 846 1881 846 1886 q 828 1849 846 1867 q 793 1831 811 1831 z "},"Ē":{"ha":1229,"x_min":251,"x_max":1151,"o":"m 313 0 q 267 14 282 0 q 251 56 251 28 l 251 1697 q 267 1726 251 1717 q 313 1736 282 1736 l 1113 1736 q 1142 1724 1133 1736 q 1151 1681 1151 1713 q 1142 1638 1151 1650 q 1113 1625 1133 1625 l 374 1625 l 374 972 l 996 972 q 1026 960 1017 972 q 1035 917 1035 949 q 1026 874 1035 886 q 996 861 1017 861 l 374 861 l 374 111 l 1113 111 q 1142 99 1133 111 q 1151 56 1151 88 q 1142 13 1151 25 q 1113 0 1133 0 l 313 0 m 514 1918 q 483 1934 490 1918 q 476 1975 476 1950 q 483 2019 476 2001 q 514 2036 490 2036 l 921 2036 q 952 2019 946 2036 q 958 1975 958 2001 q 952 1934 958 1950 q 921 1918 946 1918 l 514 1918 z "},"Ę":{"ha":1229,"x_min":251,"x_max":1175,"o":"m 313 0 q 267 14 282 0 q 251 56 251 28 l 251 1697 q 267 1726 251 1717 q 313 1736 282 1736 l 1113 1736 q 1142 1724 1133 1736 q 1151 1681 1151 1713 q 1142 1638 1151 1650 q 1113 1625 1133 1625 l 374 1625 l 374 972 l 996 972 q 1026 960 1017 972 q 1035 917 1035 949 q 1026 874 1035 886 q 996 861 1017 861 l 374 861 l 374 111 l 1113 111 q 1142 99 1133 111 q 1151 56 1151 88 q 1142 13 1151 25 q 1113 0 1133 0 l 313 0 m 996 -390 q 897 -358 940 -390 q 854 -258 854 -325 q 868 -183 854 -219 q 907 -112 882 -147 q 968 -42 932 -76 q 1051 29 1004 -7 l 1138 31 l 1138 18 q 1074 -38 1106 -8 q 1018 -99 1043 -68 q 978 -160 993 -129 q 963 -218 963 -190 q 978 -269 963 -254 q 1017 -285 994 -285 q 1056 -276 1038 -285 q 1101 -246 1075 -267 q 1125 -238 1111 -239 q 1153 -251 1139 -237 q 1170 -282 1167 -264 q 1167 -311 1174 -300 q 1119 -353 1150 -335 q 1056 -381 1089 -372 q 996 -390 1024 -390 z "},"Ế":{"ha":1229,"x_min":251,"x_max":1211,"o":"m 313 0 q 267 14 282 0 q 251 56 251 28 l 251 1697 q 267 1726 251 1717 q 313 1736 282 1736 l 1113 1736 q 1142 1724 1133 1736 q 1151 1681 1151 1713 q 1142 1638 1151 1650 q 1113 1625 1133 1625 l 374 1625 l 374 972 l 996 972 q 1026 960 1017 972 q 1035 917 1035 949 q 1026 874 1035 886 q 996 861 1017 861 l 374 861 l 374 111 l 1113 111 q 1142 99 1133 111 q 1151 56 1151 88 q 1142 13 1151 25 q 1113 0 1133 0 l 313 0 m 490 1831 q 459 1847 476 1831 q 442 1878 442 1864 q 442 1888 442 1882 q 449 1900 442 1893 l 656 2101 q 678 2120 665 2111 q 717 2129 690 2129 q 755 2120 743 2129 q 776 2101 767 2111 l 986 1900 q 994 1888 993 1893 q 994 1878 994 1882 q 976 1847 994 1864 q 944 1831 958 1831 q 929 1835 936 1831 q 911 1849 922 1840 l 717 1990 l 525 1849 q 506 1835 514 1840 q 490 1831 499 1831 m 949 2051 q 914 2069 931 2051 q 897 2101 897 2088 q 899 2113 897 2107 q 910 2128 901 2118 l 1108 2313 q 1122 2324 1115 2319 q 1140 2329 1129 2329 q 1170 2317 1154 2329 q 1198 2288 1186 2306 q 1210 2254 1210 2271 q 1207 2238 1210 2244 q 1189 2219 1204 2232 l 976 2065 q 961 2056 968 2060 q 949 2051 954 2051 z "},"Ệ":{"ha":1229,"x_min":251,"x_max":1151,"o":"m 313 0 q 267 14 282 0 q 251 56 251 28 l 251 1697 q 267 1726 251 1717 q 313 1736 282 1736 l 1113 1736 q 1142 1724 1133 1736 q 1151 1681 1151 1713 q 1142 1638 1151 1650 q 1113 1625 1133 1625 l 374 1625 l 374 972 l 996 972 q 1026 960 1017 972 q 1035 917 1035 949 q 1026 874 1035 886 q 996 861 1017 861 l 374 861 l 374 111 l 1113 111 q 1142 99 1133 111 q 1151 56 1151 88 q 1142 13 1151 25 q 1113 0 1133 0 l 313 0 m 682 -326 q 624 -305 643 -326 q 604 -239 604 -283 q 624 -173 604 -194 q 682 -151 643 -151 q 739 -173 719 -151 q 758 -239 758 -194 q 740 -305 760 -283 q 682 -326 719 -326 m 490 1831 q 459 1847 476 1831 q 442 1878 442 1864 q 442 1888 442 1882 q 449 1900 442 1893 l 656 2101 q 678 2120 665 2111 q 717 2129 690 2129 q 755 2120 743 2129 q 776 2101 767 2111 l 986 1900 q 994 1888 993 1893 q 994 1878 994 1882 q 976 1847 994 1864 q 944 1831 958 1831 q 929 1835 936 1831 q 911 1849 922 1840 l 717 1990 l 525 1849 q 506 1835 514 1840 q 490 1831 499 1831 z "},"Ề":{"ha":1229,"x_min":251,"x_max":1151,"o":"m 313 0 q 267 14 282 0 q 251 56 251 28 l 251 1697 q 267 1726 251 1717 q 313 1736 282 1736 l 1113 1736 q 1142 1724 1133 1736 q 1151 1681 1151 1713 q 1142 1638 1151 1650 q 1113 1625 1133 1625 l 374 1625 l 374 972 l 996 972 q 1026 960 1017 972 q 1035 917 1035 949 q 1026 874 1035 886 q 996 861 1017 861 l 374 861 l 374 111 l 1113 111 q 1142 99 1133 111 q 1151 56 1151 88 q 1142 13 1151 25 q 1113 0 1133 0 l 313 0 m 490 1831 q 459 1847 476 1831 q 442 1878 442 1864 q 442 1888 442 1882 q 449 1900 442 1893 l 656 2101 q 678 2120 665 2111 q 717 2129 690 2129 q 755 2120 743 2129 q 776 2101 767 2111 l 986 1900 q 994 1888 993 1893 q 994 1878 994 1882 q 976 1847 994 1864 q 944 1831 958 1831 q 929 1835 936 1831 q 911 1849 922 1840 l 717 1990 l 525 1849 q 506 1835 514 1840 q 490 1831 499 1831 m 1046 2028 q 1034 2031 1040 2028 q 1018 2042 1028 2033 l 808 2225 q 791 2244 794 2238 q 788 2260 788 2250 q 801 2292 788 2275 q 831 2321 814 2310 q 863 2332 849 2332 q 879 2328 872 2332 q 892 2317 886 2324 l 1085 2104 q 1097 2090 1094 2096 q 1099 2078 1099 2083 q 1081 2046 1099 2064 q 1046 2028 1064 2028 z "},"Ể":{"ha":1229,"x_min":251,"x_max":1151,"o":"m 313 0 q 267 14 282 0 q 251 56 251 28 l 251 1697 q 267 1726 251 1717 q 313 1736 282 1736 l 1113 1736 q 1142 1724 1133 1736 q 1151 1681 1151 1713 q 1142 1638 1151 1650 q 1113 1625 1133 1625 l 374 1625 l 374 972 l 996 972 q 1026 960 1017 972 q 1035 917 1035 949 q 1026 874 1035 886 q 996 861 1017 861 l 374 861 l 374 111 l 1113 111 q 1142 99 1133 111 q 1151 56 1151 88 q 1142 13 1151 25 q 1113 0 1133 0 l 313 0 m 490 1831 q 459 1847 476 1831 q 442 1878 442 1864 q 442 1888 442 1882 q 449 1900 442 1893 l 656 2101 q 678 2120 665 2111 q 717 2129 690 2129 q 755 2120 743 2129 q 776 2101 767 2111 l 986 1900 q 994 1888 993 1893 q 994 1878 994 1882 q 976 1847 994 1864 q 944 1831 958 1831 q 929 1835 936 1831 q 911 1849 922 1840 l 717 1990 l 525 1849 q 506 1835 514 1840 q 490 1831 499 1831 m 968 2363 q 1078 2329 1036 2363 q 1119 2243 1119 2296 q 1103 2178 1119 2206 q 1047 2122 1086 2150 q 1020 2097 1028 2108 q 1015 2072 1013 2085 l 1017 2061 q 1009 2036 1021 2047 q 979 2020 997 2025 q 945 2019 961 2015 q 922 2039 929 2024 l 907 2075 q 909 2135 896 2107 q 953 2185 922 2163 q 980 2210 971 2199 q 989 2232 989 2221 q 977 2252 989 2243 q 946 2261 965 2261 q 899 2255 922 2261 q 865 2239 876 2249 q 806 2261 832 2218 q 814 2315 790 2293 q 883 2349 843 2336 q 968 2363 924 2363 z "},"Ễ":{"ha":1229,"x_min":251,"x_max":1151,"o":"m 313 0 q 267 14 282 0 q 251 56 251 28 l 251 1697 q 267 1726 251 1717 q 313 1736 282 1736 l 1113 1736 q 1142 1724 1133 1736 q 1151 1681 1151 1713 q 1142 1638 1151 1650 q 1113 1625 1133 1625 l 374 1625 l 374 972 l 996 972 q 1026 960 1017 972 q 1035 917 1035 949 q 1026 874 1035 886 q 996 861 1017 861 l 374 861 l 374 111 l 1113 111 q 1142 99 1133 111 q 1151 56 1151 88 q 1142 13 1151 25 q 1113 0 1133 0 l 313 0 m 490 1831 q 459 1847 476 1831 q 442 1878 442 1864 q 442 1888 442 1882 q 449 1900 442 1893 l 656 2101 q 678 2120 665 2111 q 717 2129 690 2129 q 755 2120 743 2129 q 776 2101 767 2111 l 986 1900 q 994 1888 993 1893 q 994 1878 994 1882 q 976 1847 994 1864 q 944 1831 958 1831 q 929 1835 936 1831 q 911 1849 922 1840 l 717 1990 l 525 1849 q 506 1835 514 1840 q 490 1831 499 1831 m 501 2146 q 454 2183 454 2146 q 491 2315 456 2269 q 596 2360 526 2360 q 673 2344 639 2360 q 735 2308 707 2328 q 787 2272 763 2288 q 835 2256 811 2256 q 868 2278 857 2256 q 881 2332 879 2300 q 928 2361 885 2361 q 966 2352 954 2361 q 978 2324 978 2343 q 941 2192 976 2236 q 835 2149 906 2149 q 758 2165 793 2149 q 695 2201 724 2181 q 642 2238 667 2222 q 596 2254 618 2254 q 564 2236 574 2254 q 551 2183 554 2218 q 538 2156 550 2165 q 501 2146 525 2146 z "},"Ẹ":{"ha":1229,"x_min":251,"x_max":1151,"o":"m 313 0 q 267 14 282 0 q 251 56 251 28 l 251 1697 q 267 1726 251 1717 q 313 1736 282 1736 l 1113 1736 q 1142 1724 1133 1736 q 1151 1681 1151 1713 q 1142 1638 1151 1650 q 1113 1625 1133 1625 l 374 1625 l 374 972 l 996 972 q 1026 960 1017 972 q 1035 917 1035 949 q 1026 874 1035 886 q 996 861 1017 861 l 374 861 l 374 111 l 1113 111 q 1142 99 1133 111 q 1151 56 1151 88 q 1142 13 1151 25 q 1113 0 1133 0 l 313 0 m 682 -326 q 624 -305 643 -326 q 604 -239 604 -283 q 624 -173 604 -194 q 682 -151 643 -151 q 739 -173 719 -151 q 758 -239 758 -194 q 740 -305 760 -283 q 682 -326 719 -326 z "},"Ẻ":{"ha":1229,"x_min":251,"x_max":1151,"o":"m 313 0 q 267 14 282 0 q 251 56 251 28 l 251 1697 q 267 1726 251 1717 q 313 1736 282 1736 l 1113 1736 q 1142 1724 1133 1736 q 1151 1681 1151 1713 q 1142 1638 1151 1650 q 1113 1625 1133 1625 l 374 1625 l 374 972 l 996 972 q 1026 960 1017 972 q 1035 917 1035 949 q 1026 874 1035 886 q 996 861 1017 861 l 374 861 l 374 111 l 1113 111 q 1142 99 1133 111 q 1151 56 1151 88 q 1142 13 1151 25 q 1113 0 1133 0 l 313 0 m 735 2165 q 844 2132 803 2165 q 886 2044 886 2099 q 869 1981 886 2008 q 814 1925 853 1953 q 788 1899 796 1911 q 783 1875 781 1888 l 785 1864 q 777 1839 789 1850 q 747 1823 765 1828 q 713 1822 729 1818 q 690 1842 697 1826 l 675 1878 q 676 1938 664 1910 q 719 1988 689 1965 q 747 2013 739 2001 q 756 2035 756 2024 q 744 2055 756 2046 q 713 2064 732 2064 q 667 2058 689 2064 q 632 2042 644 2051 q 574 2064 599 2021 q 582 2118 557 2096 q 651 2152 611 2139 q 735 2165 690 2165 z "},"Ẽ":{"ha":1229,"x_min":251,"x_max":1151,"o":"m 313 0 q 267 14 282 0 q 251 56 251 28 l 251 1697 q 267 1726 251 1717 q 313 1736 282 1736 l 1113 1736 q 1142 1724 1133 1736 q 1151 1681 1151 1713 q 1142 1638 1151 1650 q 1113 1625 1133 1625 l 374 1625 l 374 972 l 996 972 q 1026 960 1017 972 q 1035 917 1035 949 q 1026 874 1035 886 q 996 861 1017 861 l 374 861 l 374 111 l 1113 111 q 1142 99 1133 111 q 1151 56 1151 88 q 1142 13 1151 25 q 1113 0 1133 0 l 313 0 m 499 1875 q 451 1913 451 1875 q 488 2044 453 1999 q 593 2089 524 2089 q 670 2073 636 2089 q 732 2037 704 2057 q 784 2001 760 2017 q 832 1985 808 1985 q 865 2007 854 1985 q 878 2061 876 2029 q 925 2090 882 2090 q 963 2081 951 2090 q 975 2053 975 2071 q 938 1922 974 1965 q 832 1878 903 1878 q 756 1894 790 1878 q 692 1931 721 1910 q 640 1967 664 1951 q 593 1983 615 1983 q 561 1965 571 1983 q 549 1911 551 1947 q 535 1885 547 1894 q 499 1875 522 1875 z "},"Ğ":{"ha":1624,"x_min":161,"x_max":1444,"o":"m 828 -26 q 555 38 678 -26 q 344 222 432 103 q 209 505 257 340 q 161 871 161 669 q 183 1124 161 1006 q 249 1341 206 1242 q 353 1519 292 1440 q 494 1653 415 1597 q 665 1738 572 1708 q 863 1767 758 1767 q 1030 1746 949 1767 q 1183 1676 1111 1725 q 1315 1542 1256 1626 q 1322 1513 1328 1525 q 1300 1485 1317 1500 q 1267 1465 1281 1468 q 1239 1476 1253 1463 q 1129 1572 1186 1533 q 1008 1629 1072 1610 q 863 1649 943 1649 q 706 1625 781 1649 q 568 1556 632 1601 q 453 1442 504 1510 q 365 1288 401 1375 q 310 1097 329 1201 q 290 871 290 993 q 331 546 290 690 q 444 300 371 401 q 615 145 517 199 q 828 92 713 92 q 987 117 913 92 q 1122 197 1061 143 q 1226 336 1182 251 q 1292 538 1269 421 q 1317 808 1315 656 l 874 808 q 844 821 853 808 q 835 864 835 833 q 844 908 835 896 q 874 919 853 919 l 1406 919 q 1435 908 1426 919 q 1444 864 1444 896 q 1398 457 1444 626 q 1268 181 1351 288 q 1072 24 1185 74 q 828 -26 960 -26 m 836 1832 q 653 1895 721 1832 q 575 2089 585 1958 q 588 2117 574 2106 q 628 2129 601 2129 q 658 2119 650 2129 q 671 2089 667 2108 q 728 1988 690 2021 q 836 1956 765 1956 q 945 1988 907 1956 q 1000 2089 983 2021 q 1013 2119 1006 2108 q 1043 2129 1021 2129 q 1084 2117 1069 2129 q 1097 2089 1099 2106 q 1057 1949 1092 2006 q 966 1862 1022 1892 q 836 1832 910 1832 z "},"Ĝ":{"ha":1624,"x_min":161,"x_max":1444,"o":"m 828 -26 q 555 38 678 -26 q 344 222 432 103 q 209 505 257 340 q 161 871 161 669 q 183 1124 161 1006 q 249 1341 206 1242 q 353 1519 292 1440 q 494 1653 415 1597 q 665 1738 572 1708 q 863 1767 758 1767 q 1030 1746 949 1767 q 1183 1676 1111 1725 q 1315 1542 1256 1626 q 1322 1513 1328 1525 q 1300 1485 1317 1500 q 1267 1465 1281 1468 q 1239 1476 1253 1463 q 1129 1572 1186 1533 q 1008 1629 1072 1610 q 863 1649 943 1649 q 706 1625 781 1649 q 568 1556 632 1601 q 453 1442 504 1510 q 365 1288 401 1375 q 310 1097 329 1201 q 290 871 290 993 q 331 546 290 690 q 444 300 371 401 q 615 145 517 199 q 828 92 713 92 q 987 117 913 92 q 1122 197 1061 143 q 1226 336 1182 251 q 1292 538 1269 421 q 1317 808 1315 656 l 874 808 q 844 821 853 808 q 835 864 835 833 q 844 908 835 896 q 874 919 853 919 l 1406 919 q 1435 908 1426 919 q 1444 864 1444 896 q 1398 457 1444 626 q 1268 181 1351 288 q 1072 24 1185 74 q 828 -26 960 -26 m 610 1831 q 578 1847 596 1831 q 561 1878 561 1864 q 561 1888 561 1882 q 568 1900 561 1893 l 775 2101 q 797 2120 785 2111 q 836 2129 810 2129 q 874 2120 863 2129 q 896 2101 886 2111 l 1106 1900 q 1113 1888 1113 1893 q 1114 1878 1114 1882 q 1096 1847 1114 1864 q 1064 1831 1078 1831 q 1049 1835 1056 1831 q 1031 1849 1042 1840 l 836 1990 l 644 1849 q 626 1835 633 1840 q 610 1831 618 1831 z "},"Ģ":{"ha":1624,"x_min":161,"x_max":1444,"o":"m 828 -26 q 555 38 678 -26 q 344 222 432 103 q 209 505 257 340 q 161 871 161 669 q 183 1124 161 1006 q 249 1341 206 1242 q 353 1519 292 1440 q 494 1653 415 1597 q 665 1738 572 1708 q 863 1767 758 1767 q 1030 1746 949 1767 q 1183 1676 1111 1725 q 1315 1542 1256 1626 q 1322 1513 1328 1525 q 1300 1485 1317 1500 q 1267 1465 1281 1468 q 1239 1476 1253 1463 q 1129 1572 1186 1533 q 1008 1629 1072 1610 q 863 1649 943 1649 q 706 1625 781 1649 q 568 1556 632 1601 q 453 1442 504 1510 q 365 1288 401 1375 q 310 1097 329 1201 q 290 871 290 993 q 331 546 290 690 q 444 300 371 401 q 615 145 517 199 q 828 92 713 92 q 987 117 913 92 q 1122 197 1061 143 q 1226 336 1182 251 q 1292 538 1269 421 q 1317 808 1315 656 l 874 808 q 844 821 853 808 q 835 864 835 833 q 844 908 835 896 q 874 919 853 919 l 1406 919 q 1435 908 1426 919 q 1444 864 1444 896 q 1398 457 1444 626 q 1268 181 1351 288 q 1072 24 1185 74 q 828 -26 960 -26 m 732 -425 q 711 -406 715 -418 q 714 -374 707 -394 q 740 -296 731 -332 q 751 -224 749 -260 q 754 -146 754 -187 q 767 -112 754 -122 q 807 -103 781 -103 q 856 -118 839 -103 q 874 -160 874 -133 q 863 -238 874 -194 q 835 -325 853 -282 q 796 -401 818 -368 q 768 -428 782 -424 q 732 -425 754 -432 z "},"Ġ":{"ha":1624,"x_min":161,"x_max":1444,"o":"m 828 -26 q 555 38 678 -26 q 344 222 432 103 q 209 505 257 340 q 161 871 161 669 q 183 1124 161 1006 q 249 1341 206 1242 q 353 1519 292 1440 q 494 1653 415 1597 q 665 1738 572 1708 q 863 1767 758 1767 q 1030 1746 949 1767 q 1183 1676 1111 1725 q 1315 1542 1256 1626 q 1322 1513 1328 1525 q 1300 1485 1317 1500 q 1267 1465 1281 1468 q 1239 1476 1253 1463 q 1129 1572 1186 1533 q 1008 1629 1072 1610 q 863 1649 943 1649 q 706 1625 781 1649 q 568 1556 632 1601 q 453 1442 504 1510 q 365 1288 401 1375 q 310 1097 329 1201 q 290 871 290 993 q 331 546 290 690 q 444 300 371 401 q 615 145 517 199 q 828 92 713 92 q 987 117 913 92 q 1122 197 1061 143 q 1226 336 1182 251 q 1292 538 1269 421 q 1317 808 1315 656 l 874 808 q 844 821 853 808 q 835 864 835 833 q 844 908 835 896 q 874 919 853 919 l 1406 919 q 1435 908 1426 919 q 1444 864 1444 896 q 1398 457 1444 626 q 1268 181 1351 288 q 1072 24 1185 74 q 828 -26 960 -26 m 836 1883 q 778 1905 797 1883 q 758 1969 758 1926 q 778 2036 758 2014 q 836 2058 797 2058 q 893 2036 874 2058 q 913 1969 913 2014 q 894 1905 914 1926 q 836 1883 874 1883 z "},"Ħ":{"ha":1647,"x_min":82,"x_max":1567,"o":"m 313 -19 q 251 19 251 -19 l 251 1729 q 267 1758 251 1749 q 313 1767 282 1767 q 374 1729 374 1767 l 374 965 l 1274 965 l 1274 1729 q 1289 1758 1274 1749 q 1335 1767 1304 1767 q 1396 1729 1396 1767 l 1396 19 q 1381 -10 1396 0 q 1335 -19 1365 -19 q 1274 19 1274 -19 l 1274 854 l 374 854 l 374 19 q 358 -10 374 0 q 313 -19 343 -19 m 119 1288 q 88 1301 94 1288 q 82 1339 82 1315 q 88 1380 82 1365 q 119 1394 94 1394 l 1528 1394 q 1560 1380 1553 1394 q 1567 1339 1567 1365 q 1560 1301 1567 1315 q 1528 1288 1553 1288 l 119 1288 z "},"Ĥ":{"ha":1647,"x_min":251,"x_max":1396,"o":"m 313 -19 q 251 19 251 -19 l 251 1729 q 267 1758 251 1749 q 313 1767 282 1767 q 374 1729 374 1767 l 374 965 l 1274 965 l 1274 1729 q 1289 1758 1274 1749 q 1335 1767 1304 1767 q 1396 1729 1396 1767 l 1396 19 q 1381 -10 1396 0 q 1335 -19 1365 -19 q 1274 19 1274 -19 l 1274 854 l 374 854 l 374 19 q 358 -10 374 0 q 313 -19 343 -19 m 597 1831 q 566 1847 583 1831 q 549 1878 549 1864 q 549 1888 549 1882 q 556 1900 549 1893 l 763 2101 q 785 2120 772 2111 q 824 2129 797 2129 q 862 2120 850 2129 q 883 2101 874 2111 l 1093 1900 q 1101 1888 1100 1893 q 1101 1878 1101 1882 q 1083 1847 1101 1864 q 1051 1831 1065 1831 q 1036 1835 1043 1831 q 1018 1849 1029 1840 l 824 1990 l 632 1849 q 613 1835 621 1840 q 597 1831 606 1831 z "},"Í":{"ha":626,"x_min":185,"x_max":519,"o":"m 314 -19 q 268 -10 283 -19 q 253 19 253 0 l 253 1729 q 268 1758 253 1749 q 314 1767 283 1767 q 358 1758 343 1767 q 374 1729 374 1749 l 374 19 q 358 -10 374 0 q 314 -19 343 -19 m 236 1831 q 201 1849 218 1831 q 185 1881 185 1867 q 187 1892 185 1886 q 197 1907 189 1899 l 417 2114 q 430 2125 424 2121 q 447 2129 436 2129 q 478 2117 461 2129 q 507 2088 494 2104 q 519 2054 519 2071 q 516 2038 519 2044 q 499 2019 513 2031 l 264 1844 q 248 1835 254 1839 q 236 1831 242 1831 z "},"Ĭ":{"ha":626,"x_min":50,"x_max":575,"o":"m 314 -19 q 268 -10 283 -19 q 253 19 253 0 l 253 1729 q 268 1758 253 1749 q 314 1767 283 1767 q 358 1758 343 1767 q 374 1729 374 1749 l 374 19 q 358 -10 374 0 q 314 -19 343 -19 m 313 1832 q 129 1895 197 1832 q 51 2089 61 1958 q 64 2117 50 2106 q 104 2129 78 2129 q 135 2119 126 2129 q 147 2089 143 2108 q 204 1988 167 2021 q 313 1956 242 1956 q 422 1988 383 1956 q 476 2089 460 2021 q 490 2119 482 2108 q 519 2129 497 2129 q 560 2117 546 2129 q 574 2089 575 2106 q 533 1949 568 2006 q 442 1862 499 1892 q 313 1832 386 1832 z "},"Ǐ":{"ha":626,"x_min":38,"x_max":590,"o":"m 314 -19 q 268 -10 283 -19 q 253 19 253 0 l 253 1729 q 268 1758 253 1749 q 314 1767 283 1767 q 358 1758 343 1767 q 374 1729 374 1749 l 374 19 q 358 -10 374 0 q 314 -19 343 -19 m 542 2129 q 572 2113 554 2129 q 590 2082 590 2097 q 590 2074 590 2079 q 582 2060 589 2068 l 375 1858 q 353 1840 365 1850 q 314 1831 342 1831 q 276 1840 288 1831 q 256 1858 264 1850 l 44 2060 q 38 2074 38 2068 q 38 2082 38 2079 q 55 2113 38 2097 q 86 2129 72 2129 q 102 2124 94 2129 q 121 2113 110 2119 l 314 1969 l 507 2113 q 525 2124 518 2119 q 542 2129 532 2129 z "},"Î":{"ha":626,"x_min":38,"x_max":590,"o":"m 314 -19 q 268 -10 283 -19 q 253 19 253 0 l 253 1729 q 268 1758 253 1749 q 314 1767 283 1767 q 358 1758 343 1767 q 374 1729 374 1749 l 374 19 q 358 -10 374 0 q 314 -19 343 -19 m 86 1831 q 55 1847 72 1831 q 38 1878 38 1864 q 38 1888 38 1882 q 44 1900 38 1893 l 251 2101 q 274 2120 261 2111 q 313 2129 286 2129 q 351 2120 339 2129 q 372 2101 363 2111 l 582 1900 q 590 1888 589 1893 q 590 1878 590 1882 q 572 1847 590 1864 q 540 1831 554 1831 q 525 1835 532 1831 q 507 1849 518 1840 l 313 1990 l 121 1849 q 102 1835 110 1840 q 86 1831 94 1831 z "},"Ï":{"ha":626,"x_min":54,"x_max":574,"o":"m 314 -19 q 268 -10 283 -19 q 253 19 253 0 l 253 1729 q 268 1758 253 1749 q 314 1767 283 1767 q 358 1758 343 1767 q 374 1729 374 1749 l 374 19 q 358 -10 374 0 q 314 -19 343 -19 m 132 1885 q 73 1907 93 1885 q 53 1972 53 1929 q 73 2038 53 2017 q 132 2060 93 2060 q 189 2038 169 2060 q 208 1972 208 2017 q 190 1906 210 1928 q 132 1885 171 1885 m 496 1885 q 438 1907 457 1885 q 418 1972 418 1929 q 438 2038 418 2017 q 496 2060 457 2060 q 553 2038 533 2060 q 572 1972 572 2017 q 553 1907 574 1929 q 496 1885 533 1885 z "},"İ":{"ha":626,"x_min":235,"x_max":390,"o":"m 314 -19 q 268 -10 283 -19 q 253 19 253 0 l 253 1729 q 268 1758 253 1749 q 314 1767 283 1767 q 358 1758 343 1767 q 374 1729 374 1749 l 374 19 q 358 -10 374 0 q 314 -19 343 -19 m 313 1883 q 254 1905 274 1883 q 235 1969 235 1926 q 254 2036 235 2014 q 313 2058 274 2058 q 369 2036 350 2058 q 389 1969 389 2014 q 370 1905 390 1926 q 313 1883 350 1883 z "},"Ì":{"ha":626,"x_min":107,"x_max":442,"o":"m 314 -19 q 268 -10 283 -19 q 253 19 253 0 l 253 1729 q 268 1758 253 1749 q 314 1767 283 1767 q 358 1758 343 1767 q 374 1729 374 1749 l 374 19 q 358 -10 374 0 q 314 -19 343 -19 m 389 1831 q 377 1835 383 1831 q 361 1844 371 1839 l 128 2019 q 110 2038 114 2031 q 107 2054 107 2044 q 119 2088 107 2071 q 148 2117 131 2104 q 178 2129 165 2129 q 195 2125 189 2129 q 208 2114 201 2121 l 428 1907 q 440 1892 438 1899 q 442 1881 442 1886 q 424 1849 442 1867 q 389 1831 407 1831 z "},"Ī":{"ha":626,"x_min":72,"x_max":556,"o":"m 314 -19 q 268 -10 283 -19 q 253 19 253 0 l 253 1729 q 268 1758 253 1749 q 314 1767 283 1767 q 358 1758 343 1767 q 374 1729 374 1749 l 374 19 q 358 -10 374 0 q 314 -19 343 -19 m 110 1918 q 79 1934 86 1918 q 72 1975 72 1950 q 79 2019 72 2001 q 110 2036 86 2036 l 517 2036 q 548 2019 542 2036 q 554 1975 554 2001 q 548 1934 554 1950 q 517 1918 542 1918 l 110 1918 z "},"Į":{"ha":626,"x_min":85,"x_max":404,"o":"m 314 -19 q 268 -10 283 -19 q 253 19 253 0 l 253 1729 q 268 1758 253 1749 q 314 1767 283 1767 q 358 1758 343 1767 q 374 1729 374 1749 l 374 19 q 358 -10 374 0 q 314 -19 343 -19 m 226 -396 q 128 -363 171 -396 q 85 -264 85 -331 q 99 -189 85 -225 q 138 -117 113 -153 q 199 -47 163 -82 q 282 24 235 -12 l 368 25 l 368 13 q 305 -44 336 -14 q 249 -104 274 -74 q 208 -165 224 -135 q 193 -224 193 -196 q 209 -275 193 -260 q 247 -290 225 -290 q 287 -281 268 -290 q 332 -251 306 -272 q 356 -244 342 -244 q 383 -257 369 -243 q 401 -287 397 -269 q 397 -317 404 -306 q 350 -359 381 -340 q 287 -387 319 -378 q 226 -396 254 -396 z "},"Ĩ":{"ha":626,"x_min":47,"x_max":572,"o":"m 314 -19 q 268 -10 283 -19 q 253 19 253 0 l 253 1729 q 268 1758 253 1749 q 314 1767 283 1767 q 358 1758 343 1767 q 374 1729 374 1749 l 374 19 q 358 -10 374 0 q 314 -19 343 -19 m 94 1875 q 47 1913 47 1875 q 84 2044 49 1999 q 189 2089 119 2089 q 266 2073 232 2089 q 328 2037 300 2057 q 380 2001 356 2017 q 428 1985 404 1985 q 461 2007 450 1985 q 474 2061 472 2029 q 521 2090 478 2090 q 559 2081 547 2090 q 571 2053 571 2071 q 534 1922 569 1965 q 428 1878 499 1878 q 351 1894 386 1878 q 288 1931 317 1910 q 235 1967 260 1951 q 189 1983 211 1983 q 157 1965 167 1983 q 144 1911 147 1947 q 131 1885 143 1894 q 94 1875 118 1875 z "},"Ị":{"ha":626,"x_min":235,"x_max":390,"o":"m 314 -19 q 268 -10 283 -19 q 253 19 253 0 l 253 1729 q 268 1758 253 1749 q 314 1767 283 1767 q 358 1758 343 1767 q 374 1729 374 1749 l 374 19 q 358 -10 374 0 q 314 -19 343 -19 m 313 -326 q 254 -305 274 -326 q 235 -239 235 -283 q 254 -173 235 -194 q 313 -151 274 -151 q 369 -173 350 -151 q 389 -239 389 -194 q 370 -305 390 -283 q 313 -326 350 -326 z "},"Ỉ":{"ha":626,"x_min":153,"x_max":482,"o":"m 314 -19 q 268 -10 283 -19 q 253 19 253 0 l 253 1729 q 268 1758 253 1749 q 314 1767 283 1767 q 358 1758 343 1767 q 374 1729 374 1749 l 374 19 q 358 -10 374 0 q 314 -19 343 -19 m 331 2165 q 440 2132 399 2165 q 482 2044 482 2099 q 465 1981 482 2008 q 410 1925 449 1953 q 384 1899 392 1911 q 379 1875 376 1888 l 381 1864 q 373 1839 385 1850 q 343 1823 361 1828 q 309 1822 325 1818 q 286 1842 293 1826 l 271 1878 q 272 1938 260 1910 q 315 1988 285 1965 q 343 2013 335 2001 q 351 2035 351 2024 q 340 2055 351 2046 q 308 2064 328 2064 q 263 2058 285 2064 q 228 2042 240 2051 q 169 2064 194 2021 q 178 2118 153 2096 q 247 2152 207 2139 q 331 2165 286 2165 z "},"Ĵ":{"ha":1206,"x_min":83,"x_max":1206,"o":"m 536 -26 q 335 13 424 -26 q 186 130 247 51 q 90 324 125 208 q 94 361 83 347 q 128 381 104 375 q 167 384 151 390 q 190 354 182 378 q 274 203 228 261 q 383 119 319 146 q 536 92 446 92 q 650 109 599 92 q 742 161 701 126 q 810 248 782 196 q 852 370 838 300 q 867 529 867 440 l 867 1729 q 882 1758 867 1749 q 928 1767 897 1767 q 974 1758 958 1767 q 989 1729 989 1749 l 989 531 q 968 333 989 421 q 908 177 947 244 q 813 65 868 110 q 688 -3 757 19 q 536 -26 618 -26 m 701 1831 q 670 1847 688 1831 q 653 1878 653 1864 q 653 1888 653 1882 q 660 1900 653 1893 l 867 2101 q 889 2120 876 2111 q 928 2129 901 2129 q 966 2120 954 2129 q 988 2101 978 2111 l 1197 1900 q 1205 1888 1204 1893 q 1206 1878 1206 1882 q 1188 1847 1206 1864 q 1156 1831 1169 1831 q 1140 1835 1147 1831 q 1122 1849 1133 1840 l 928 1990 l 736 1849 q 717 1835 725 1840 q 701 1831 710 1831 z "},"Ķ":{"ha":1275,"x_min":251,"x_max":1240,"o":"m 313 -19 q 267 -9 282 -19 q 251 24 251 1 l 251 1729 q 313 1767 251 1767 q 374 1729 374 1767 l 374 979 l 1136 1754 q 1169 1767 1153 1772 q 1203 1743 1185 1763 q 1223 1706 1222 1721 q 1211 1678 1224 1692 l 464 915 q 725 582 600 735 q 972 303 850 429 q 1218 75 1093 178 q 1237 42 1233 63 q 1214 -6 1240 21 q 1176 -24 1196 -24 q 1136 -7 1157 -24 q 933 178 1035 75 q 732 397 831 282 q 543 628 633 511 q 374 857 453 746 l 374 24 q 359 -9 374 1 q 313 -19 344 -19 m 626 -425 q 606 -406 610 -418 q 608 -374 601 -394 q 634 -296 625 -332 q 646 -224 643 -260 q 649 -146 649 -187 q 662 -112 649 -122 q 701 -103 675 -103 q 751 -118 733 -103 q 768 -160 768 -133 q 758 -238 768 -194 q 730 -325 747 -282 q 690 -401 713 -368 q 663 -428 676 -424 q 626 -425 649 -432 z "},"Ĺ":{"ha":1160,"x_min":185,"x_max":1114,"o":"m 313 0 q 251 56 251 0 l 251 1729 q 267 1758 251 1749 q 313 1767 282 1767 q 358 1758 343 1767 q 374 1729 374 1749 l 374 111 l 1076 111 q 1106 99 1097 111 q 1114 56 1114 88 q 1106 13 1114 25 q 1076 0 1097 0 l 313 0 m 236 1831 q 201 1849 218 1831 q 185 1881 185 1867 q 187 1892 185 1886 q 197 1907 189 1899 l 417 2114 q 430 2125 424 2121 q 447 2129 436 2129 q 478 2117 461 2129 q 507 2088 494 2104 q 519 2054 519 2071 q 516 2038 519 2044 q 499 2019 513 2031 l 264 1844 q 248 1835 254 1839 q 236 1831 242 1831 z "},"Ľ":{"ha":1160,"x_min":251,"x_max":1114,"o":"m 313 0 q 251 56 251 0 l 251 1729 q 267 1758 251 1749 q 313 1767 282 1767 q 358 1758 343 1767 q 374 1729 374 1749 l 374 111 l 1076 111 q 1106 99 1097 111 q 1114 56 1114 88 q 1106 13 1114 25 q 1076 0 1097 0 l 313 0 m 581 1424 q 549 1442 557 1432 q 546 1469 540 1451 q 563 1547 556 1500 q 576 1644 571 1594 q 583 1728 582 1693 q 597 1753 583 1743 q 643 1763 610 1763 q 693 1753 678 1763 q 708 1728 708 1743 q 696 1637 707 1690 q 669 1530 685 1583 q 635 1438 653 1476 q 620 1421 629 1428 q 581 1424 611 1414 z "},"Ļ":{"ha":1160,"x_min":251,"x_max":1114,"o":"m 313 0 q 251 56 251 0 l 251 1729 q 267 1758 251 1749 q 313 1767 282 1767 q 358 1758 343 1767 q 374 1729 374 1749 l 374 111 l 1076 111 q 1106 99 1097 111 q 1114 56 1114 88 q 1106 13 1114 25 q 1076 0 1097 0 l 313 0 m 615 -425 q 594 -406 599 -418 q 597 -374 590 -394 q 623 -296 614 -332 q 635 -224 632 -260 q 638 -146 638 -187 q 651 -112 638 -122 q 690 -103 664 -103 q 740 -118 722 -103 q 757 -160 757 -133 q 747 -238 757 -194 q 719 -325 736 -282 q 679 -401 701 -368 q 651 -428 665 -424 q 615 -425 638 -432 z "},"Ŀ":{"ha":1160,"x_min":251,"x_max":1114,"o":"m 313 0 q 251 56 251 0 l 251 1729 q 267 1758 251 1749 q 313 1767 282 1767 q 358 1758 343 1767 q 374 1729 374 1749 l 374 111 l 1076 111 q 1106 99 1097 111 q 1114 56 1114 88 q 1106 13 1114 25 q 1076 0 1097 0 l 313 0 m 861 806 q 803 827 822 806 q 783 893 783 849 q 803 958 783 936 q 861 981 822 981 q 918 958 899 981 q 938 893 938 936 q 919 827 939 849 q 861 806 899 806 z "},"Ł":{"ha":1160,"x_min":54,"x_max":1114,"o":"m 313 0 q 251 56 251 0 l 251 1729 q 267 1758 251 1749 q 313 1767 282 1767 q 358 1758 343 1767 q 374 1729 374 1749 l 374 111 l 1076 111 q 1106 99 1097 111 q 1114 56 1114 88 q 1106 13 1114 25 q 1076 0 1097 0 l 313 0 m 129 726 q 95 722 111 717 q 64 749 79 728 q 55 786 56 767 q 74 815 54 806 l 622 1122 q 655 1129 642 1133 q 682 1106 668 1125 q 681 1040 714 1060 l 129 726 z "},"Ń":{"ha":1647,"x_min":251,"x_max":1396,"o":"m 313 -19 q 251 19 251 -19 l 251 1729 q 267 1758 251 1749 q 313 1767 282 1767 q 353 1758 338 1767 q 382 1729 369 1749 l 1274 249 l 1274 1729 q 1289 1758 1274 1749 q 1335 1767 1304 1767 q 1396 1729 1396 1767 l 1396 19 q 1381 -10 1396 0 q 1336 -19 1365 -19 q 1301 -12 1314 -19 q 1274 19 1289 -6 l 374 1513 l 374 19 q 358 -10 374 0 q 313 -19 343 -19 m 747 1831 q 713 1849 729 1831 q 696 1881 696 1867 q 698 1892 696 1886 q 708 1907 700 1899 l 928 2114 q 941 2125 935 2121 q 958 2129 947 2129 q 989 2117 972 2129 q 1018 2088 1006 2104 q 1031 2054 1031 2071 q 1027 2038 1031 2044 q 1010 2019 1024 2031 l 775 1844 q 759 1835 765 1839 q 747 1831 753 1831 z "},"Ň":{"ha":1647,"x_min":251,"x_max":1396,"o":"m 313 -19 q 251 19 251 -19 l 251 1729 q 267 1758 251 1749 q 313 1767 282 1767 q 353 1758 338 1767 q 382 1729 369 1749 l 1274 249 l 1274 1729 q 1289 1758 1274 1749 q 1335 1767 1304 1767 q 1396 1729 1396 1767 l 1396 19 q 1381 -10 1396 0 q 1336 -19 1365 -19 q 1301 -12 1314 -19 q 1274 19 1289 -6 l 374 1513 l 374 19 q 358 -10 374 0 q 313 -19 343 -19 m 1053 2129 q 1083 2113 1065 2129 q 1101 2082 1101 2097 q 1101 2074 1101 2079 q 1093 2060 1100 2068 l 886 1858 q 865 1840 876 1850 q 825 1831 853 1831 q 787 1840 799 1831 q 767 1858 775 1850 l 556 2060 q 549 2074 549 2068 q 549 2082 549 2079 q 566 2113 549 2097 q 597 2129 583 2129 q 613 2124 606 2129 q 632 2113 621 2119 l 825 1969 l 1018 2113 q 1036 2124 1029 2119 q 1053 2129 1043 2129 z "},"Ņ":{"ha":1647,"x_min":251,"x_max":1396,"o":"m 313 -19 q 251 19 251 -19 l 251 1729 q 267 1758 251 1749 q 313 1767 282 1767 q 353 1758 338 1767 q 382 1729 369 1749 l 1274 249 l 1274 1729 q 1289 1758 1274 1749 q 1335 1767 1304 1767 q 1396 1729 1396 1767 l 1396 19 q 1381 -10 1396 0 q 1336 -19 1365 -19 q 1301 -12 1314 -19 q 1274 19 1289 -6 l 374 1513 l 374 19 q 358 -10 374 0 q 313 -19 343 -19 m 743 -425 q 722 -406 726 -418 q 725 -374 718 -394 q 751 -296 742 -332 q 763 -224 760 -260 q 765 -146 765 -187 q 778 -112 765 -122 q 818 -103 792 -103 q 867 -118 850 -103 q 885 -160 885 -133 q 874 -238 885 -194 q 847 -325 864 -282 q 807 -401 829 -368 q 779 -428 793 -424 q 743 -425 765 -432 z "},"Ñ":{"ha":1647,"x_min":251,"x_max":1396,"o":"m 313 -19 q 251 19 251 -19 l 251 1729 q 267 1758 251 1749 q 313 1767 282 1767 q 353 1758 338 1767 q 382 1729 369 1749 l 1274 249 l 1274 1729 q 1289 1758 1274 1749 q 1335 1767 1304 1767 q 1396 1729 1396 1767 l 1396 19 q 1381 -10 1396 0 q 1336 -19 1365 -19 q 1301 -12 1314 -19 q 1274 19 1289 -6 l 374 1513 l 374 19 q 358 -10 374 0 q 313 -19 343 -19 m 606 1875 q 558 1913 558 1875 q 595 2044 560 1999 q 700 2089 631 2089 q 777 2073 743 2089 q 839 2037 811 2057 q 891 2001 867 2017 q 939 1985 915 1985 q 972 2007 961 1985 q 985 2061 983 2029 q 1032 2090 989 2090 q 1070 2081 1058 2090 q 1082 2053 1082 2071 q 1045 1922 1081 1965 q 939 1878 1010 1878 q 863 1894 897 1878 q 799 1931 828 1910 q 747 1967 771 1951 q 700 1983 722 1983 q 668 1965 678 1983 q 656 1911 658 1947 q 642 1885 654 1894 q 606 1875 629 1875 z "},"Ó":{"ha":1717,"x_min":161,"x_max":1556,"o":"m 861 -26 q 572 38 701 -26 q 351 222 443 103 q 210 505 260 340 q 161 871 161 669 q 183 1124 161 1006 q 248 1341 206 1242 q 351 1519 290 1440 q 490 1653 413 1597 q 662 1738 568 1708 q 861 1767 756 1767 q 1147 1702 1019 1767 q 1367 1519 1275 1638 q 1507 1236 1458 1400 q 1556 871 1556 1072 q 1533 619 1556 738 q 1469 400 1511 500 q 1367 222 1428 300 q 1228 88 1306 143 q 1058 3 1150 32 q 861 -26 967 -26 m 861 92 q 1020 116 946 92 q 1158 188 1094 140 q 1270 302 1221 235 q 1355 456 1319 369 q 1408 647 1390 543 q 1426 871 1426 751 q 1385 1193 1426 1050 q 1270 1438 1344 1336 q 1092 1594 1196 1540 q 861 1649 988 1649 q 700 1624 775 1649 q 561 1553 625 1600 q 448 1438 497 1506 q 363 1284 399 1371 q 309 1094 328 1197 q 290 871 290 990 q 331 548 290 692 q 448 302 372 404 q 628 146 524 200 q 861 92 733 92 m 783 1831 q 749 1849 765 1831 q 732 1881 732 1867 q 734 1892 732 1886 q 744 1907 736 1899 l 964 2114 q 977 2125 971 2121 q 994 2129 983 2129 q 1025 2117 1008 2129 q 1054 2088 1042 2104 q 1067 2054 1067 2071 q 1063 2038 1067 2044 q 1046 2019 1060 2031 l 811 1844 q 795 1835 801 1839 q 783 1831 789 1831 z "},"Ŏ":{"ha":1717,"x_min":161,"x_max":1556,"o":"m 861 -26 q 572 38 701 -26 q 351 222 443 103 q 210 505 260 340 q 161 871 161 669 q 183 1124 161 1006 q 248 1341 206 1242 q 351 1519 290 1440 q 490 1653 413 1597 q 662 1738 568 1708 q 861 1767 756 1767 q 1147 1702 1019 1767 q 1367 1519 1275 1638 q 1507 1236 1458 1400 q 1556 871 1556 1072 q 1533 619 1556 738 q 1469 400 1511 500 q 1367 222 1428 300 q 1228 88 1306 143 q 1058 3 1150 32 q 861 -26 967 -26 m 861 92 q 1020 116 946 92 q 1158 188 1094 140 q 1270 302 1221 235 q 1355 456 1319 369 q 1408 647 1390 543 q 1426 871 1426 751 q 1385 1193 1426 1050 q 1270 1438 1344 1336 q 1092 1594 1196 1540 q 861 1649 988 1649 q 700 1624 775 1649 q 561 1553 625 1600 q 448 1438 497 1506 q 363 1284 399 1371 q 309 1094 328 1197 q 290 871 290 990 q 331 548 290 692 q 448 302 372 404 q 628 146 524 200 q 861 92 733 92 m 860 1832 q 676 1895 744 1832 q 599 2089 608 1958 q 611 2117 597 2106 q 651 2129 625 2129 q 682 2119 674 2129 q 694 2089 690 2108 q 751 1988 714 2021 q 860 1956 789 1956 q 969 1988 931 1956 q 1024 2089 1007 2021 q 1037 2119 1029 2108 q 1067 2129 1044 2129 q 1108 2117 1093 2129 q 1121 2089 1122 2106 q 1081 1949 1115 2006 q 990 1862 1046 1892 q 860 1832 933 1832 z "},"Ǒ":{"ha":1717,"x_min":161,"x_max":1556,"o":"m 861 -26 q 572 38 701 -26 q 351 222 443 103 q 210 505 260 340 q 161 871 161 669 q 183 1124 161 1006 q 248 1341 206 1242 q 351 1519 290 1440 q 490 1653 413 1597 q 662 1738 568 1708 q 861 1767 756 1767 q 1147 1702 1019 1767 q 1367 1519 1275 1638 q 1507 1236 1458 1400 q 1556 871 1556 1072 q 1533 619 1556 738 q 1469 400 1511 500 q 1367 222 1428 300 q 1228 88 1306 143 q 1058 3 1150 32 q 861 -26 967 -26 m 861 92 q 1020 116 946 92 q 1158 188 1094 140 q 1270 302 1221 235 q 1355 456 1319 369 q 1408 647 1390 543 q 1426 871 1426 751 q 1385 1193 1426 1050 q 1270 1438 1344 1336 q 1092 1594 1196 1540 q 861 1649 988 1649 q 700 1624 775 1649 q 561 1553 625 1600 q 448 1438 497 1506 q 363 1284 399 1371 q 309 1094 328 1197 q 290 871 290 990 q 331 548 290 692 q 448 302 372 404 q 628 146 524 200 q 861 92 733 92 m 1089 2129 q 1119 2113 1101 2129 q 1138 2082 1138 2097 q 1137 2074 1138 2079 q 1129 2060 1136 2068 l 922 1858 q 901 1840 913 1850 q 861 1831 889 1831 q 823 1840 835 1831 q 803 1858 811 1850 l 592 2060 q 585 2074 585 2068 q 585 2082 585 2079 q 602 2113 585 2097 q 633 2129 619 2129 q 649 2124 642 2129 q 668 2113 657 2119 l 861 1969 l 1054 2113 q 1072 2124 1065 2119 q 1089 2129 1079 2129 z "},"Ô":{"ha":1717,"x_min":161,"x_max":1556,"o":"m 861 -26 q 572 38 701 -26 q 351 222 443 103 q 210 505 260 340 q 161 871 161 669 q 183 1124 161 1006 q 248 1341 206 1242 q 351 1519 290 1440 q 490 1653 413 1597 q 662 1738 568 1708 q 861 1767 756 1767 q 1147 1702 1019 1767 q 1367 1519 1275 1638 q 1507 1236 1458 1400 q 1556 871 1556 1072 q 1533 619 1556 738 q 1469 400 1511 500 q 1367 222 1428 300 q 1228 88 1306 143 q 1058 3 1150 32 q 861 -26 967 -26 m 861 92 q 1020 116 946 92 q 1158 188 1094 140 q 1270 302 1221 235 q 1355 456 1319 369 q 1408 647 1390 543 q 1426 871 1426 751 q 1385 1193 1426 1050 q 1270 1438 1344 1336 q 1092 1594 1196 1540 q 861 1649 988 1649 q 700 1624 775 1649 q 561 1553 625 1600 q 448 1438 497 1506 q 363 1284 399 1371 q 309 1094 328 1197 q 290 871 290 990 q 331 548 290 692 q 448 302 372 404 q 628 146 524 200 q 861 92 733 92 m 633 1831 q 602 1847 619 1831 q 585 1878 585 1864 q 585 1888 585 1882 q 592 1900 585 1893 l 799 2101 q 821 2120 808 2111 q 860 2129 833 2129 q 898 2120 886 2129 q 919 2101 910 2111 l 1129 1900 q 1137 1888 1136 1893 q 1138 1878 1138 1882 q 1119 1847 1138 1864 q 1088 1831 1101 1831 q 1072 1835 1079 1831 q 1054 1849 1065 1840 l 860 1990 l 668 1849 q 649 1835 657 1840 q 633 1831 642 1831 z "},"Ö":{"ha":1717,"x_min":161,"x_max":1556,"o":"m 861 -26 q 572 38 701 -26 q 351 222 443 103 q 210 505 260 340 q 161 871 161 669 q 183 1124 161 1006 q 248 1341 206 1242 q 351 1519 290 1440 q 490 1653 413 1597 q 662 1738 568 1708 q 861 1767 756 1767 q 1147 1702 1019 1767 q 1367 1519 1275 1638 q 1507 1236 1458 1400 q 1556 871 1556 1072 q 1533 619 1556 738 q 1469 400 1511 500 q 1367 222 1428 300 q 1228 88 1306 143 q 1058 3 1150 32 q 861 -26 967 -26 m 861 92 q 1020 116 946 92 q 1158 188 1094 140 q 1270 302 1221 235 q 1355 456 1319 369 q 1408 647 1390 543 q 1426 871 1426 751 q 1385 1193 1426 1050 q 1270 1438 1344 1336 q 1092 1594 1196 1540 q 861 1649 988 1649 q 700 1624 775 1649 q 561 1553 625 1600 q 448 1438 497 1506 q 363 1284 399 1371 q 309 1094 328 1197 q 290 871 290 990 q 331 548 290 692 q 448 302 372 404 q 628 146 524 200 q 861 92 733 92 m 679 1885 q 620 1907 640 1885 q 600 1972 600 1929 q 620 2038 600 2017 q 679 2060 640 2060 q 736 2038 717 2060 q 756 1972 756 2017 q 738 1906 757 1928 q 679 1885 718 1885 m 1043 1885 q 985 1907 1004 1885 q 965 1972 965 1929 q 985 2038 965 2017 q 1043 2060 1004 2060 q 1100 2038 1081 2060 q 1119 1972 1119 2017 q 1101 1907 1121 1929 q 1043 1885 1081 1885 z "},"Ò":{"ha":1717,"x_min":161,"x_max":1556,"o":"m 861 -26 q 572 38 701 -26 q 351 222 443 103 q 210 505 260 340 q 161 871 161 669 q 183 1124 161 1006 q 248 1341 206 1242 q 351 1519 290 1440 q 490 1653 413 1597 q 662 1738 568 1708 q 861 1767 756 1767 q 1147 1702 1019 1767 q 1367 1519 1275 1638 q 1507 1236 1458 1400 q 1556 871 1556 1072 q 1533 619 1556 738 q 1469 400 1511 500 q 1367 222 1428 300 q 1228 88 1306 143 q 1058 3 1150 32 q 861 -26 967 -26 m 861 92 q 1020 116 946 92 q 1158 188 1094 140 q 1270 302 1221 235 q 1355 456 1319 369 q 1408 647 1390 543 q 1426 871 1426 751 q 1385 1193 1426 1050 q 1270 1438 1344 1336 q 1092 1594 1196 1540 q 861 1649 988 1649 q 700 1624 775 1649 q 561 1553 625 1600 q 448 1438 497 1506 q 363 1284 399 1371 q 309 1094 328 1197 q 290 871 290 990 q 331 548 290 692 q 448 302 372 404 q 628 146 524 200 q 861 92 733 92 m 936 1831 q 924 1835 931 1831 q 908 1844 918 1839 l 675 2019 q 658 2038 661 2031 q 654 2054 654 2044 q 666 2088 654 2071 q 695 2117 678 2104 q 725 2129 713 2129 q 742 2125 736 2129 q 756 2114 749 2121 l 975 1907 q 987 1892 985 1899 q 989 1881 989 1886 q 972 1849 989 1867 q 936 1831 954 1831 z "},"Ő":{"ha":1717,"x_min":161,"x_max":1556,"o":"m 861 -26 q 572 38 701 -26 q 351 222 443 103 q 210 505 260 340 q 161 871 161 669 q 183 1124 161 1006 q 248 1341 206 1242 q 351 1519 290 1440 q 490 1653 413 1597 q 662 1738 568 1708 q 861 1767 756 1767 q 1147 1702 1019 1767 q 1367 1519 1275 1638 q 1507 1236 1458 1400 q 1556 871 1556 1072 q 1533 619 1556 738 q 1469 400 1511 500 q 1367 222 1428 300 q 1228 88 1306 143 q 1058 3 1150 32 q 861 -26 967 -26 m 861 92 q 1020 116 946 92 q 1158 188 1094 140 q 1270 302 1221 235 q 1355 456 1319 369 q 1408 647 1390 543 q 1426 871 1426 751 q 1385 1193 1426 1050 q 1270 1438 1344 1336 q 1092 1594 1196 1540 q 861 1649 988 1649 q 700 1624 775 1649 q 561 1553 625 1600 q 448 1438 497 1506 q 363 1284 399 1371 q 309 1094 328 1197 q 290 871 290 990 q 331 548 290 692 q 448 302 372 404 q 628 146 524 200 q 861 92 733 92 m 722 1831 q 688 1849 704 1831 q 671 1881 671 1867 q 672 1892 671 1886 q 683 1907 674 1899 l 874 2114 q 888 2125 881 2121 q 907 2129 896 2129 q 937 2117 921 2129 q 965 2088 953 2106 q 976 2056 976 2071 q 973 2039 976 2046 q 956 2021 969 2032 l 749 1844 q 734 1835 740 1839 q 722 1831 728 1831 m 1007 1831 q 972 1849 989 1831 q 954 1881 954 1867 q 956 1892 954 1886 q 968 1907 958 1899 l 1163 2114 q 1176 2125 1169 2121 q 1193 2129 1183 2129 q 1224 2117 1208 2129 q 1251 2088 1240 2106 q 1263 2056 1263 2071 q 1260 2039 1263 2046 q 1242 2021 1257 2032 l 1033 1844 q 1019 1835 1025 1839 q 1007 1831 1013 1831 z "},"Ō":{"ha":1717,"x_min":161,"x_max":1556,"o":"m 861 -26 q 572 38 701 -26 q 351 222 443 103 q 210 505 260 340 q 161 871 161 669 q 183 1124 161 1006 q 248 1341 206 1242 q 351 1519 290 1440 q 490 1653 413 1597 q 662 1738 568 1708 q 861 1767 756 1767 q 1147 1702 1019 1767 q 1367 1519 1275 1638 q 1507 1236 1458 1400 q 1556 871 1556 1072 q 1533 619 1556 738 q 1469 400 1511 500 q 1367 222 1428 300 q 1228 88 1306 143 q 1058 3 1150 32 q 861 -26 967 -26 m 861 92 q 1020 116 946 92 q 1158 188 1094 140 q 1270 302 1221 235 q 1355 456 1319 369 q 1408 647 1390 543 q 1426 871 1426 751 q 1385 1193 1426 1050 q 1270 1438 1344 1336 q 1092 1594 1196 1540 q 861 1649 988 1649 q 700 1624 775 1649 q 561 1553 625 1600 q 448 1438 497 1506 q 363 1284 399 1371 q 309 1094 328 1197 q 290 871 290 990 q 331 548 290 692 q 448 302 372 404 q 628 146 524 200 q 861 92 733 92 m 657 1918 q 626 1934 633 1918 q 619 1975 619 1950 q 626 2019 619 2001 q 657 2036 633 2036 l 1064 2036 q 1095 2019 1089 2036 q 1101 1975 1101 2001 q 1095 1934 1101 1950 q 1064 1918 1089 1918 l 657 1918 z "},"Ø":{"ha":1717,"x_min":161,"x_max":1556,"o":"m 861 -26 q 572 38 701 -26 q 351 222 443 103 q 210 505 260 340 q 161 871 161 669 q 183 1124 161 1006 q 248 1341 206 1242 q 351 1519 290 1440 q 490 1653 413 1597 q 662 1738 568 1708 q 861 1767 756 1767 q 1147 1702 1019 1767 q 1367 1519 1275 1638 q 1507 1236 1458 1400 q 1556 871 1556 1072 q 1533 619 1556 738 q 1469 400 1511 500 q 1367 222 1428 300 q 1228 88 1306 143 q 1058 3 1150 32 q 861 -26 967 -26 m 861 92 q 1020 116 946 92 q 1158 188 1094 140 q 1270 302 1221 235 q 1355 456 1319 369 q 1408 647 1390 543 q 1426 871 1426 751 q 1385 1193 1426 1050 q 1270 1438 1344 1336 q 1092 1594 1196 1540 q 861 1649 988 1649 q 700 1624 775 1649 q 561 1553 625 1600 q 448 1438 497 1506 q 363 1284 399 1371 q 309 1094 328 1197 q 290 871 290 990 q 331 548 290 692 q 448 302 372 404 q 628 146 524 200 q 861 92 733 92 m 369 -85 q 342 -108 360 -100 q 293 -100 324 -117 q 267 -32 243 -74 l 1347 1797 q 1378 1819 1358 1814 q 1424 1811 1397 1824 q 1451 1782 1444 1801 q 1447 1742 1458 1763 l 369 -85 z "},"Õ":{"ha":1717,"x_min":161,"x_max":1556,"o":"m 861 -26 q 572 38 701 -26 q 351 222 443 103 q 210 505 260 340 q 161 871 161 669 q 183 1124 161 1006 q 248 1341 206 1242 q 351 1519 290 1440 q 490 1653 413 1597 q 662 1738 568 1708 q 861 1767 756 1767 q 1147 1702 1019 1767 q 1367 1519 1275 1638 q 1507 1236 1458 1400 q 1556 871 1556 1072 q 1533 619 1556 738 q 1469 400 1511 500 q 1367 222 1428 300 q 1228 88 1306 143 q 1058 3 1150 32 q 861 -26 967 -26 m 861 92 q 1020 116 946 92 q 1158 188 1094 140 q 1270 302 1221 235 q 1355 456 1319 369 q 1408 647 1390 543 q 1426 871 1426 751 q 1385 1193 1426 1050 q 1270 1438 1344 1336 q 1092 1594 1196 1540 q 861 1649 988 1649 q 700 1624 775 1649 q 561 1553 625 1600 q 448 1438 497 1506 q 363 1284 399 1371 q 309 1094 328 1197 q 290 871 290 990 q 331 548 290 692 q 448 302 372 404 q 628 146 524 200 q 861 92 733 92 m 642 1875 q 594 1913 594 1875 q 631 2044 596 1999 q 736 2089 667 2089 q 813 2073 779 2089 q 875 2037 847 2057 q 927 2001 903 2017 q 975 1985 951 1985 q 1008 2007 997 1985 q 1021 2061 1019 2029 q 1068 2090 1025 2090 q 1106 2081 1094 2090 q 1118 2053 1118 2071 q 1081 1922 1117 1965 q 975 1878 1046 1878 q 899 1894 933 1878 q 835 1931 864 1910 q 783 1967 807 1951 q 736 1983 758 1983 q 704 1965 714 1983 q 692 1911 694 1947 q 678 1885 690 1894 q 642 1875 665 1875 z "},"Ố":{"ha":1717,"x_min":161,"x_max":1556,"o":"m 861 -26 q 572 38 701 -26 q 351 222 443 103 q 210 505 260 340 q 161 871 161 669 q 183 1124 161 1006 q 248 1341 206 1242 q 351 1519 290 1440 q 490 1653 413 1597 q 662 1738 568 1708 q 861 1767 756 1767 q 1147 1702 1019 1767 q 1367 1519 1275 1638 q 1507 1236 1458 1400 q 1556 871 1556 1072 q 1533 619 1556 738 q 1469 400 1511 500 q 1367 222 1428 300 q 1228 88 1306 143 q 1058 3 1150 32 q 861 -26 967 -26 m 861 92 q 1020 116 946 92 q 1158 188 1094 140 q 1270 302 1221 235 q 1355 456 1319 369 q 1408 647 1390 543 q 1426 871 1426 751 q 1385 1193 1426 1050 q 1270 1438 1344 1336 q 1092 1594 1196 1540 q 861 1649 988 1649 q 700 1624 775 1649 q 561 1553 625 1600 q 448 1438 497 1506 q 363 1284 399 1371 q 309 1094 328 1197 q 290 871 290 990 q 331 548 290 692 q 448 302 372 404 q 628 146 524 200 q 861 92 733 92 m 633 1831 q 602 1847 619 1831 q 585 1878 585 1864 q 585 1888 585 1882 q 592 1900 585 1893 l 799 2101 q 821 2120 808 2111 q 860 2129 833 2129 q 898 2120 886 2129 q 919 2101 910 2111 l 1129 1900 q 1137 1888 1136 1893 q 1138 1878 1138 1882 q 1119 1847 1138 1864 q 1088 1831 1101 1831 q 1072 1835 1079 1831 q 1054 1849 1065 1840 l 860 1990 l 668 1849 q 649 1835 657 1840 q 633 1831 642 1831 m 1092 2051 q 1057 2069 1074 2051 q 1040 2101 1040 2088 q 1042 2113 1040 2107 q 1053 2128 1044 2118 l 1251 2313 q 1265 2324 1258 2319 q 1283 2329 1272 2329 q 1313 2317 1297 2329 q 1341 2288 1329 2306 q 1353 2254 1353 2271 q 1350 2238 1353 2244 q 1332 2219 1347 2232 l 1119 2065 q 1104 2056 1111 2060 q 1092 2051 1097 2051 z "},"Ộ":{"ha":1717,"x_min":161,"x_max":1556,"o":"m 861 -26 q 572 38 701 -26 q 351 222 443 103 q 210 505 260 340 q 161 871 161 669 q 183 1124 161 1006 q 248 1341 206 1242 q 351 1519 290 1440 q 490 1653 413 1597 q 662 1738 568 1708 q 861 1767 756 1767 q 1147 1702 1019 1767 q 1367 1519 1275 1638 q 1507 1236 1458 1400 q 1556 871 1556 1072 q 1533 619 1556 738 q 1469 400 1511 500 q 1367 222 1428 300 q 1228 88 1306 143 q 1058 3 1150 32 q 861 -26 967 -26 m 861 92 q 1020 116 946 92 q 1158 188 1094 140 q 1270 302 1221 235 q 1355 456 1319 369 q 1408 647 1390 543 q 1426 871 1426 751 q 1385 1193 1426 1050 q 1270 1438 1344 1336 q 1092 1594 1196 1540 q 861 1649 988 1649 q 700 1624 775 1649 q 561 1553 625 1600 q 448 1438 497 1506 q 363 1284 399 1371 q 309 1094 328 1197 q 290 871 290 990 q 331 548 290 692 q 448 302 372 404 q 628 146 524 200 q 861 92 733 92 m 860 -326 q 801 -305 821 -326 q 782 -239 782 -283 q 801 -173 782 -194 q 860 -151 821 -151 q 917 -173 897 -151 q 936 -239 936 -194 q 917 -305 938 -283 q 860 -326 897 -326 m 633 1831 q 602 1847 619 1831 q 585 1878 585 1864 q 585 1888 585 1882 q 592 1900 585 1893 l 799 2101 q 821 2120 808 2111 q 860 2129 833 2129 q 898 2120 886 2129 q 919 2101 910 2111 l 1129 1900 q 1137 1888 1136 1893 q 1138 1878 1138 1882 q 1119 1847 1138 1864 q 1088 1831 1101 1831 q 1072 1835 1079 1831 q 1054 1849 1065 1840 l 860 1990 l 668 1849 q 649 1835 657 1840 q 633 1831 642 1831 z "},"Ồ":{"ha":1717,"x_min":161,"x_max":1556,"o":"m 861 -26 q 572 38 701 -26 q 351 222 443 103 q 210 505 260 340 q 161 871 161 669 q 183 1124 161 1006 q 248 1341 206 1242 q 351 1519 290 1440 q 490 1653 413 1597 q 662 1738 568 1708 q 861 1767 756 1767 q 1147 1702 1019 1767 q 1367 1519 1275 1638 q 1507 1236 1458 1400 q 1556 871 1556 1072 q 1533 619 1556 738 q 1469 400 1511 500 q 1367 222 1428 300 q 1228 88 1306 143 q 1058 3 1150 32 q 861 -26 967 -26 m 861 92 q 1020 116 946 92 q 1158 188 1094 140 q 1270 302 1221 235 q 1355 456 1319 369 q 1408 647 1390 543 q 1426 871 1426 751 q 1385 1193 1426 1050 q 1270 1438 1344 1336 q 1092 1594 1196 1540 q 861 1649 988 1649 q 700 1624 775 1649 q 561 1553 625 1600 q 448 1438 497 1506 q 363 1284 399 1371 q 309 1094 328 1197 q 290 871 290 990 q 331 548 290 692 q 448 302 372 404 q 628 146 524 200 q 861 92 733 92 m 633 1831 q 602 1847 619 1831 q 585 1878 585 1864 q 585 1888 585 1882 q 592 1900 585 1893 l 799 2101 q 821 2120 808 2111 q 860 2129 833 2129 q 898 2120 886 2129 q 919 2101 910 2111 l 1129 1900 q 1137 1888 1136 1893 q 1138 1878 1138 1882 q 1119 1847 1138 1864 q 1088 1831 1101 1831 q 1072 1835 1079 1831 q 1054 1849 1065 1840 l 860 1990 l 668 1849 q 649 1835 657 1840 q 633 1831 642 1831 m 1189 2028 q 1177 2031 1183 2028 q 1161 2042 1171 2033 l 951 2225 q 934 2244 938 2238 q 931 2260 931 2250 q 944 2292 931 2275 q 974 2321 957 2310 q 1006 2332 992 2332 q 1022 2328 1015 2332 q 1035 2317 1029 2324 l 1228 2104 q 1240 2090 1238 2096 q 1242 2078 1242 2083 q 1224 2046 1242 2064 q 1189 2028 1207 2028 z "},"Ổ":{"ha":1717,"x_min":161,"x_max":1556,"o":"m 861 -26 q 572 38 701 -26 q 351 222 443 103 q 210 505 260 340 q 161 871 161 669 q 183 1124 161 1006 q 248 1341 206 1242 q 351 1519 290 1440 q 490 1653 413 1597 q 662 1738 568 1708 q 861 1767 756 1767 q 1147 1702 1019 1767 q 1367 1519 1275 1638 q 1507 1236 1458 1400 q 1556 871 1556 1072 q 1533 619 1556 738 q 1469 400 1511 500 q 1367 222 1428 300 q 1228 88 1306 143 q 1058 3 1150 32 q 861 -26 967 -26 m 861 92 q 1020 116 946 92 q 1158 188 1094 140 q 1270 302 1221 235 q 1355 456 1319 369 q 1408 647 1390 543 q 1426 871 1426 751 q 1385 1193 1426 1050 q 1270 1438 1344 1336 q 1092 1594 1196 1540 q 861 1649 988 1649 q 700 1624 775 1649 q 561 1553 625 1600 q 448 1438 497 1506 q 363 1284 399 1371 q 309 1094 328 1197 q 290 871 290 990 q 331 548 290 692 q 448 302 372 404 q 628 146 524 200 q 861 92 733 92 m 633 1831 q 602 1847 619 1831 q 585 1878 585 1864 q 585 1888 585 1882 q 592 1900 585 1893 l 799 2101 q 821 2120 808 2111 q 860 2129 833 2129 q 898 2120 886 2129 q 919 2101 910 2111 l 1129 1900 q 1137 1888 1136 1893 q 1138 1878 1138 1882 q 1119 1847 1138 1864 q 1088 1831 1101 1831 q 1072 1835 1079 1831 q 1054 1849 1065 1840 l 860 1990 l 668 1849 q 649 1835 657 1840 q 633 1831 642 1831 m 1111 2363 q 1221 2329 1179 2363 q 1263 2243 1263 2296 q 1246 2178 1263 2206 q 1190 2122 1229 2150 q 1163 2097 1171 2108 q 1158 2072 1156 2085 l 1160 2061 q 1152 2036 1164 2047 q 1122 2020 1140 2025 q 1088 2019 1104 2015 q 1065 2039 1072 2024 l 1050 2075 q 1052 2135 1039 2107 q 1096 2185 1065 2163 q 1123 2210 1114 2199 q 1132 2232 1132 2221 q 1120 2252 1132 2243 q 1089 2261 1108 2261 q 1042 2255 1065 2261 q 1008 2239 1019 2249 q 949 2261 975 2218 q 957 2315 933 2293 q 1026 2349 986 2336 q 1111 2363 1067 2363 z "},"Ỗ":{"ha":1717,"x_min":161,"x_max":1556,"o":"m 861 -26 q 572 38 701 -26 q 351 222 443 103 q 210 505 260 340 q 161 871 161 669 q 183 1124 161 1006 q 248 1341 206 1242 q 351 1519 290 1440 q 490 1653 413 1597 q 662 1738 568 1708 q 861 1767 756 1767 q 1147 1702 1019 1767 q 1367 1519 1275 1638 q 1507 1236 1458 1400 q 1556 871 1556 1072 q 1533 619 1556 738 q 1469 400 1511 500 q 1367 222 1428 300 q 1228 88 1306 143 q 1058 3 1150 32 q 861 -26 967 -26 m 861 92 q 1020 116 946 92 q 1158 188 1094 140 q 1270 302 1221 235 q 1355 456 1319 369 q 1408 647 1390 543 q 1426 871 1426 751 q 1385 1193 1426 1050 q 1270 1438 1344 1336 q 1092 1594 1196 1540 q 861 1649 988 1649 q 700 1624 775 1649 q 561 1553 625 1600 q 448 1438 497 1506 q 363 1284 399 1371 q 309 1094 328 1197 q 290 871 290 990 q 331 548 290 692 q 448 302 372 404 q 628 146 524 200 q 861 92 733 92 m 633 1831 q 602 1847 619 1831 q 585 1878 585 1864 q 585 1888 585 1882 q 592 1900 585 1893 l 799 2101 q 821 2120 808 2111 q 860 2129 833 2129 q 898 2120 886 2129 q 919 2101 910 2111 l 1129 1900 q 1137 1888 1136 1893 q 1138 1878 1138 1882 q 1119 1847 1138 1864 q 1088 1831 1101 1831 q 1072 1835 1079 1831 q 1054 1849 1065 1840 l 860 1990 l 668 1849 q 649 1835 657 1840 q 633 1831 642 1831 m 644 2146 q 597 2183 597 2146 q 634 2315 599 2269 q 739 2360 669 2360 q 816 2344 782 2360 q 878 2308 850 2328 q 930 2272 906 2288 q 978 2256 954 2256 q 1011 2278 1000 2256 q 1024 2332 1022 2300 q 1071 2361 1028 2361 q 1109 2352 1097 2361 q 1121 2324 1121 2343 q 1084 2192 1119 2236 q 978 2149 1049 2149 q 901 2165 936 2149 q 838 2201 867 2181 q 785 2238 810 2222 q 739 2254 761 2254 q 707 2236 717 2254 q 694 2183 697 2218 q 681 2156 693 2165 q 644 2146 668 2146 z "},"Ọ":{"ha":1717,"x_min":161,"x_max":1556,"o":"m 861 -26 q 572 38 701 -26 q 351 222 443 103 q 210 505 260 340 q 161 871 161 669 q 183 1124 161 1006 q 248 1341 206 1242 q 351 1519 290 1440 q 490 1653 413 1597 q 662 1738 568 1708 q 861 1767 756 1767 q 1147 1702 1019 1767 q 1367 1519 1275 1638 q 1507 1236 1458 1400 q 1556 871 1556 1072 q 1533 619 1556 738 q 1469 400 1511 500 q 1367 222 1428 300 q 1228 88 1306 143 q 1058 3 1150 32 q 861 -26 967 -26 m 861 92 q 1020 116 946 92 q 1158 188 1094 140 q 1270 302 1221 235 q 1355 456 1319 369 q 1408 647 1390 543 q 1426 871 1426 751 q 1385 1193 1426 1050 q 1270 1438 1344 1336 q 1092 1594 1196 1540 q 861 1649 988 1649 q 700 1624 775 1649 q 561 1553 625 1600 q 448 1438 497 1506 q 363 1284 399 1371 q 309 1094 328 1197 q 290 871 290 990 q 331 548 290 692 q 448 302 372 404 q 628 146 524 200 q 861 92 733 92 m 860 -326 q 801 -305 821 -326 q 782 -239 782 -283 q 801 -173 782 -194 q 860 -151 821 -151 q 917 -173 897 -151 q 936 -239 936 -194 q 917 -305 938 -283 q 860 -326 897 -326 z "},"Ỏ":{"ha":1717,"x_min":161,"x_max":1556,"o":"m 861 -26 q 572 38 701 -26 q 351 222 443 103 q 210 505 260 340 q 161 871 161 669 q 183 1124 161 1006 q 248 1341 206 1242 q 351 1519 290 1440 q 490 1653 413 1597 q 662 1738 568 1708 q 861 1767 756 1767 q 1147 1702 1019 1767 q 1367 1519 1275 1638 q 1507 1236 1458 1400 q 1556 871 1556 1072 q 1533 619 1556 738 q 1469 400 1511 500 q 1367 222 1428 300 q 1228 88 1306 143 q 1058 3 1150 32 q 861 -26 967 -26 m 861 92 q 1020 116 946 92 q 1158 188 1094 140 q 1270 302 1221 235 q 1355 456 1319 369 q 1408 647 1390 543 q 1426 871 1426 751 q 1385 1193 1426 1050 q 1270 1438 1344 1336 q 1092 1594 1196 1540 q 861 1649 988 1649 q 700 1624 775 1649 q 561 1553 625 1600 q 448 1438 497 1506 q 363 1284 399 1371 q 309 1094 328 1197 q 290 871 290 990 q 331 548 290 692 q 448 302 372 404 q 628 146 524 200 q 861 92 733 92 m 878 2165 q 988 2132 946 2165 q 1029 2044 1029 2099 q 1013 1981 1029 2008 q 957 1925 996 1953 q 931 1899 939 1911 q 926 1875 924 1888 l 928 1864 q 920 1839 932 1850 q 890 1823 908 1828 q 856 1822 872 1818 q 833 1842 840 1826 l 818 1878 q 819 1938 807 1910 q 863 1988 832 1965 q 890 2013 882 2001 q 899 2035 899 2024 q 887 2055 899 2046 q 856 2064 875 2064 q 810 2058 832 2064 q 775 2042 788 2051 q 717 2064 742 2021 q 725 2118 700 2096 q 794 2152 754 2139 q 878 2165 833 2165 z "},"Ơ":{"ha":1717,"x_min":161,"x_max":1556,"o":"m 861 -26 q 572 38 701 -26 q 351 222 443 103 q 210 505 260 340 q 161 871 161 669 q 183 1124 161 1006 q 248 1341 206 1242 q 351 1519 290 1440 q 490 1653 413 1597 q 662 1738 568 1708 q 861 1767 756 1767 q 1028 1745 950 1767 q 1172 1681 1106 1724 q 1312 1708 1260 1685 q 1383 1767 1364 1731 q 1394 1851 1403 1804 q 1354 1951 1386 1899 q 1349 1996 1340 1975 q 1379 2028 1358 2017 q 1423 2038 1400 2040 q 1460 2011 1446 2035 q 1510 1885 1499 1949 q 1503 1765 1522 1821 q 1431 1667 1485 1708 q 1282 1608 1376 1625 q 1484 1303 1413 1493 q 1556 871 1556 1114 q 1533 619 1556 738 q 1469 400 1511 500 q 1367 222 1428 300 q 1228 88 1306 143 q 1058 3 1150 32 q 861 -26 967 -26 m 861 92 q 1020 116 946 92 q 1158 188 1094 140 q 1270 302 1221 235 q 1355 456 1319 369 q 1408 647 1390 543 q 1426 871 1426 751 q 1385 1193 1426 1050 q 1270 1438 1344 1336 q 1092 1594 1196 1540 q 861 1649 988 1649 q 700 1624 775 1649 q 561 1553 625 1600 q 448 1438 497 1506 q 363 1284 399 1371 q 309 1094 328 1197 q 290 871 290 990 q 331 548 290 692 q 448 302 372 404 q 628 146 524 200 q 861 92 733 92 z "},"Ớ":{"ha":1717,"x_min":161,"x_max":1556,"o":"m 861 -26 q 572 38 701 -26 q 351 222 443 103 q 210 505 260 340 q 161 871 161 669 q 183 1124 161 1006 q 248 1341 206 1242 q 351 1519 290 1440 q 490 1653 413 1597 q 662 1738 568 1708 q 861 1767 756 1767 q 1028 1745 950 1767 q 1172 1681 1106 1724 q 1312 1708 1260 1685 q 1383 1767 1364 1731 q 1394 1851 1403 1804 q 1354 1951 1386 1899 q 1349 1996 1340 1975 q 1379 2028 1358 2017 q 1423 2038 1400 2040 q 1460 2011 1446 2035 q 1510 1885 1499 1949 q 1503 1765 1522 1821 q 1431 1667 1485 1708 q 1282 1608 1376 1625 q 1484 1303 1413 1493 q 1556 871 1556 1114 q 1533 619 1556 738 q 1469 400 1511 500 q 1367 222 1428 300 q 1228 88 1306 143 q 1058 3 1150 32 q 861 -26 967 -26 m 861 92 q 1020 116 946 92 q 1158 188 1094 140 q 1270 302 1221 235 q 1355 456 1319 369 q 1408 647 1390 543 q 1426 871 1426 751 q 1385 1193 1426 1050 q 1270 1438 1344 1336 q 1092 1594 1196 1540 q 861 1649 988 1649 q 700 1624 775 1649 q 561 1553 625 1600 q 448 1438 497 1506 q 363 1284 399 1371 q 309 1094 328 1197 q 290 871 290 990 q 331 548 290 692 q 448 302 372 404 q 628 146 524 200 q 861 92 733 92 m 783 1831 q 749 1849 765 1831 q 732 1881 732 1867 q 734 1892 732 1886 q 744 1907 736 1899 l 964 2114 q 977 2125 971 2121 q 994 2129 983 2129 q 1025 2117 1008 2129 q 1054 2088 1042 2104 q 1067 2054 1067 2071 q 1063 2038 1067 2044 q 1046 2019 1060 2031 l 811 1844 q 795 1835 801 1839 q 783 1831 789 1831 z "},"Ợ":{"ha":1717,"x_min":161,"x_max":1556,"o":"m 861 -26 q 572 38 701 -26 q 351 222 443 103 q 210 505 260 340 q 161 871 161 669 q 183 1124 161 1006 q 248 1341 206 1242 q 351 1519 290 1440 q 490 1653 413 1597 q 662 1738 568 1708 q 861 1767 756 1767 q 1028 1745 950 1767 q 1172 1681 1106 1724 q 1312 1708 1260 1685 q 1383 1767 1364 1731 q 1394 1851 1403 1804 q 1354 1951 1386 1899 q 1349 1996 1340 1975 q 1379 2028 1358 2017 q 1423 2038 1400 2040 q 1460 2011 1446 2035 q 1510 1885 1499 1949 q 1503 1765 1522 1821 q 1431 1667 1485 1708 q 1282 1608 1376 1625 q 1484 1303 1413 1493 q 1556 871 1556 1114 q 1533 619 1556 738 q 1469 400 1511 500 q 1367 222 1428 300 q 1228 88 1306 143 q 1058 3 1150 32 q 861 -26 967 -26 m 861 92 q 1020 116 946 92 q 1158 188 1094 140 q 1270 302 1221 235 q 1355 456 1319 369 q 1408 647 1390 543 q 1426 871 1426 751 q 1385 1193 1426 1050 q 1270 1438 1344 1336 q 1092 1594 1196 1540 q 861 1649 988 1649 q 700 1624 775 1649 q 561 1553 625 1600 q 448 1438 497 1506 q 363 1284 399 1371 q 309 1094 328 1197 q 290 871 290 990 q 331 548 290 692 q 448 302 372 404 q 628 146 524 200 q 861 92 733 92 m 860 -326 q 801 -305 821 -326 q 782 -239 782 -283 q 801 -173 782 -194 q 860 -151 821 -151 q 917 -173 897 -151 q 936 -239 936 -194 q 917 -305 938 -283 q 860 -326 897 -326 z "},"Ờ":{"ha":1717,"x_min":161,"x_max":1556,"o":"m 861 -26 q 572 38 701 -26 q 351 222 443 103 q 210 505 260 340 q 161 871 161 669 q 183 1124 161 1006 q 248 1341 206 1242 q 351 1519 290 1440 q 490 1653 413 1597 q 662 1738 568 1708 q 861 1767 756 1767 q 1028 1745 950 1767 q 1172 1681 1106 1724 q 1312 1708 1260 1685 q 1383 1767 1364 1731 q 1394 1851 1403 1804 q 1354 1951 1386 1899 q 1349 1996 1340 1975 q 1379 2028 1358 2017 q 1423 2038 1400 2040 q 1460 2011 1446 2035 q 1510 1885 1499 1949 q 1503 1765 1522 1821 q 1431 1667 1485 1708 q 1282 1608 1376 1625 q 1484 1303 1413 1493 q 1556 871 1556 1114 q 1533 619 1556 738 q 1469 400 1511 500 q 1367 222 1428 300 q 1228 88 1306 143 q 1058 3 1150 32 q 861 -26 967 -26 m 861 92 q 1020 116 946 92 q 1158 188 1094 140 q 1270 302 1221 235 q 1355 456 1319 369 q 1408 647 1390 543 q 1426 871 1426 751 q 1385 1193 1426 1050 q 1270 1438 1344 1336 q 1092 1594 1196 1540 q 861 1649 988 1649 q 700 1624 775 1649 q 561 1553 625 1600 q 448 1438 497 1506 q 363 1284 399 1371 q 309 1094 328 1197 q 290 871 290 990 q 331 548 290 692 q 448 302 372 404 q 628 146 524 200 q 861 92 733 92 m 936 1831 q 924 1835 931 1831 q 908 1844 918 1839 l 675 2019 q 658 2038 661 2031 q 654 2054 654 2044 q 666 2088 654 2071 q 695 2117 678 2104 q 725 2129 713 2129 q 742 2125 736 2129 q 756 2114 749 2121 l 975 1907 q 987 1892 985 1899 q 989 1881 989 1886 q 972 1849 989 1867 q 936 1831 954 1831 z "},"Ở":{"ha":1717,"x_min":161,"x_max":1556,"o":"m 861 -26 q 572 38 701 -26 q 351 222 443 103 q 210 505 260 340 q 161 871 161 669 q 183 1124 161 1006 q 248 1341 206 1242 q 351 1519 290 1440 q 490 1653 413 1597 q 662 1738 568 1708 q 861 1767 756 1767 q 1028 1745 950 1767 q 1172 1681 1106 1724 q 1312 1708 1260 1685 q 1383 1767 1364 1731 q 1394 1851 1403 1804 q 1354 1951 1386 1899 q 1349 1996 1340 1975 q 1379 2028 1358 2017 q 1423 2038 1400 2040 q 1460 2011 1446 2035 q 1510 1885 1499 1949 q 1503 1765 1522 1821 q 1431 1667 1485 1708 q 1282 1608 1376 1625 q 1484 1303 1413 1493 q 1556 871 1556 1114 q 1533 619 1556 738 q 1469 400 1511 500 q 1367 222 1428 300 q 1228 88 1306 143 q 1058 3 1150 32 q 861 -26 967 -26 m 861 92 q 1020 116 946 92 q 1158 188 1094 140 q 1270 302 1221 235 q 1355 456 1319 369 q 1408 647 1390 543 q 1426 871 1426 751 q 1385 1193 1426 1050 q 1270 1438 1344 1336 q 1092 1594 1196 1540 q 861 1649 988 1649 q 700 1624 775 1649 q 561 1553 625 1600 q 448 1438 497 1506 q 363 1284 399 1371 q 309 1094 328 1197 q 290 871 290 990 q 331 548 290 692 q 448 302 372 404 q 628 146 524 200 q 861 92 733 92 m 878 2165 q 988 2132 946 2165 q 1029 2044 1029 2099 q 1013 1981 1029 2008 q 957 1925 996 1953 q 931 1899 939 1911 q 926 1875 924 1888 l 928 1864 q 920 1839 932 1850 q 890 1823 908 1828 q 856 1822 872 1818 q 833 1842 840 1826 l 818 1878 q 819 1938 807 1910 q 863 1988 832 1965 q 890 2013 882 2001 q 899 2035 899 2024 q 887 2055 899 2046 q 856 2064 875 2064 q 810 2058 832 2064 q 775 2042 788 2051 q 717 2064 742 2021 q 725 2118 700 2096 q 794 2152 754 2139 q 878 2165 833 2165 z "},"Ỡ":{"ha":1717,"x_min":161,"x_max":1556,"o":"m 861 -26 q 572 38 701 -26 q 351 222 443 103 q 210 505 260 340 q 161 871 161 669 q 183 1124 161 1006 q 248 1341 206 1242 q 351 1519 290 1440 q 490 1653 413 1597 q 662 1738 568 1708 q 861 1767 756 1767 q 1028 1745 950 1767 q 1172 1681 1106 1724 q 1312 1708 1260 1685 q 1383 1767 1364 1731 q 1394 1851 1403 1804 q 1354 1951 1386 1899 q 1349 1996 1340 1975 q 1379 2028 1358 2017 q 1423 2038 1400 2040 q 1460 2011 1446 2035 q 1510 1885 1499 1949 q 1503 1765 1522 1821 q 1431 1667 1485 1708 q 1282 1608 1376 1625 q 1484 1303 1413 1493 q 1556 871 1556 1114 q 1533 619 1556 738 q 1469 400 1511 500 q 1367 222 1428 300 q 1228 88 1306 143 q 1058 3 1150 32 q 861 -26 967 -26 m 861 92 q 1020 116 946 92 q 1158 188 1094 140 q 1270 302 1221 235 q 1355 456 1319 369 q 1408 647 1390 543 q 1426 871 1426 751 q 1385 1193 1426 1050 q 1270 1438 1344 1336 q 1092 1594 1196 1540 q 861 1649 988 1649 q 700 1624 775 1649 q 561 1553 625 1600 q 448 1438 497 1506 q 363 1284 399 1371 q 309 1094 328 1197 q 290 871 290 990 q 331 548 290 692 q 448 302 372 404 q 628 146 524 200 q 861 92 733 92 m 642 1875 q 594 1913 594 1875 q 631 2044 596 1999 q 736 2089 667 2089 q 813 2073 779 2089 q 875 2037 847 2057 q 927 2001 903 2017 q 975 1985 951 1985 q 1008 2007 997 1985 q 1021 2061 1019 2029 q 1068 2090 1025 2090 q 1106 2081 1094 2090 q 1118 2053 1118 2071 q 1081 1922 1117 1965 q 975 1878 1046 1878 q 899 1894 933 1878 q 835 1931 864 1910 q 783 1967 807 1951 q 736 1983 758 1983 q 704 1965 714 1983 q 692 1911 694 1947 q 678 1885 690 1894 q 642 1875 665 1875 z "},"Ŕ":{"ha":1288,"x_min":251,"x_max":1226,"o":"m 313 -19 q 267 -10 282 -19 q 251 19 251 0 l 251 1697 q 267 1726 251 1717 q 314 1736 283 1736 l 619 1736 q 928 1695 807 1736 q 1108 1565 1049 1654 q 1168 1331 1168 1475 q 1146 1175 1168 1246 q 1082 1048 1124 1104 q 982 948 1040 992 q 850 874 924 904 q 692 824 776 843 q 514 799 607 806 q 726 541 617 668 q 955 296 836 414 q 1203 76 1074 178 q 1222 43 1218 65 q 1200 -4 1226 21 q 1163 -22 1182 -21 q 1122 -6 1143 -22 q 856 236 985 107 q 606 504 726 365 q 374 781 486 643 l 374 19 q 358 -10 374 0 q 313 -19 343 -19 m 374 894 q 525 903 451 896 q 665 927 599 911 q 790 967 732 943 q 894 1026 847 992 q 974 1105 942 1060 q 1025 1206 1007 1150 q 1043 1331 1043 1261 q 999 1499 1043 1435 q 863 1594 954 1564 q 633 1625 771 1625 l 374 1625 l 374 894 m 569 1831 q 535 1849 551 1831 q 518 1881 518 1867 q 520 1892 518 1886 q 531 1907 522 1899 l 750 2114 q 763 2125 757 2121 q 781 2129 769 2129 q 811 2117 794 2129 q 840 2088 828 2104 q 853 2054 853 2071 q 849 2038 853 2044 q 832 2019 846 2031 l 597 1844 q 581 1835 588 1839 q 569 1831 575 1831 z "},"Ř":{"ha":1288,"x_min":251,"x_max":1226,"o":"m 313 -19 q 267 -10 282 -19 q 251 19 251 0 l 251 1697 q 267 1726 251 1717 q 314 1736 283 1736 l 619 1736 q 928 1695 807 1736 q 1108 1565 1049 1654 q 1168 1331 1168 1475 q 1146 1175 1168 1246 q 1082 1048 1124 1104 q 982 948 1040 992 q 850 874 924 904 q 692 824 776 843 q 514 799 607 806 q 726 541 617 668 q 955 296 836 414 q 1203 76 1074 178 q 1222 43 1218 65 q 1200 -4 1226 21 q 1163 -22 1182 -21 q 1122 -6 1143 -22 q 856 236 985 107 q 606 504 726 365 q 374 781 486 643 l 374 19 q 358 -10 374 0 q 313 -19 343 -19 m 374 894 q 525 903 451 896 q 665 927 599 911 q 790 967 732 943 q 894 1026 847 992 q 974 1105 942 1060 q 1025 1206 1007 1150 q 1043 1331 1043 1261 q 999 1499 1043 1435 q 863 1594 954 1564 q 633 1625 771 1625 l 374 1625 l 374 894 m 875 2129 q 906 2113 888 2129 q 924 2082 924 2097 q 923 2074 924 2079 q 915 2060 922 2068 l 708 1858 q 687 1840 699 1850 q 647 1831 675 1831 q 609 1840 621 1831 q 589 1858 597 1850 l 378 2060 q 371 2074 371 2068 q 371 2082 371 2079 q 388 2113 371 2097 q 419 2129 406 2129 q 435 2124 428 2129 q 454 2113 443 2119 l 647 1969 l 840 2113 q 858 2124 851 2119 q 875 2129 865 2129 z "},"Ŗ":{"ha":1288,"x_min":251,"x_max":1226,"o":"m 313 -19 q 267 -10 282 -19 q 251 19 251 0 l 251 1697 q 267 1726 251 1717 q 314 1736 283 1736 l 619 1736 q 928 1695 807 1736 q 1108 1565 1049 1654 q 1168 1331 1168 1475 q 1146 1175 1168 1246 q 1082 1048 1124 1104 q 982 948 1040 992 q 850 874 924 904 q 692 824 776 843 q 514 799 607 806 q 726 541 617 668 q 955 296 836 414 q 1203 76 1074 178 q 1222 43 1218 65 q 1200 -4 1226 21 q 1163 -22 1182 -21 q 1122 -6 1143 -22 q 856 236 985 107 q 606 504 726 365 q 374 781 486 643 l 374 19 q 358 -10 374 0 q 313 -19 343 -19 m 374 894 q 525 903 451 896 q 665 927 599 911 q 790 967 732 943 q 894 1026 847 992 q 974 1105 942 1060 q 1025 1206 1007 1150 q 1043 1331 1043 1261 q 999 1499 1043 1435 q 863 1594 954 1564 q 633 1625 771 1625 l 374 1625 l 374 894 m 633 -425 q 613 -406 617 -418 q 615 -374 608 -394 q 641 -296 632 -332 q 653 -224 650 -260 q 656 -146 656 -187 q 669 -112 656 -122 q 708 -103 682 -103 q 758 -118 740 -103 q 775 -160 775 -133 q 765 -238 775 -194 q 737 -325 754 -282 q 697 -401 719 -368 q 669 -428 683 -424 q 633 -425 656 -432 z "},"Ś":{"ha":1276,"x_min":138,"x_max":1140,"o":"m 613 -26 q 490 -15 553 -26 q 364 22 426 -3 q 246 88 301 47 q 147 188 190 129 q 138 215 138 203 q 158 247 139 228 q 191 270 178 268 q 231 249 204 272 q 334 165 278 200 q 459 111 390 131 q 613 92 528 92 q 781 117 707 92 q 907 189 856 142 q 985 304 958 236 q 1011 461 1011 372 q 985 597 1011 540 q 910 694 958 653 q 797 767 861 735 q 654 826 732 799 q 524 879 589 850 q 399 947 458 908 q 295 1040 340 986 q 224 1167 250 1094 q 197 1336 197 1239 q 233 1519 197 1439 q 331 1653 268 1599 q 478 1738 393 1708 q 660 1767 563 1767 q 835 1739 757 1767 q 978 1666 913 1711 q 1103 1565 1043 1621 q 1115 1537 1118 1551 q 1099 1507 1113 1522 q 1065 1482 1081 1489 q 1033 1486 1049 1475 q 917 1572 976 1536 q 796 1628 858 1608 q 660 1649 733 1649 q 520 1628 582 1649 q 415 1567 458 1607 q 349 1469 372 1526 q 326 1336 326 1411 q 356 1183 326 1244 q 436 1078 385 1121 q 554 1004 488 1035 q 693 947 621 974 q 850 881 771 918 q 995 790 929 844 q 1101 656 1061 736 q 1140 461 1140 576 q 1103 258 1140 349 q 997 105 1067 168 q 831 8 928 42 q 613 -26 733 -26 m 588 1831 q 553 1849 569 1831 q 536 1881 536 1867 q 538 1892 536 1886 q 549 1907 540 1899 l 768 2114 q 781 2125 775 2121 q 799 2129 788 2129 q 829 2117 813 2129 q 858 2088 846 2104 q 871 2054 871 2071 q 867 2038 871 2044 q 850 2019 864 2031 l 615 1844 q 599 1835 606 1839 q 588 1831 593 1831 z "},"Š":{"ha":1276,"x_min":138,"x_max":1140,"o":"m 613 -26 q 490 -15 553 -26 q 364 22 426 -3 q 246 88 301 47 q 147 188 190 129 q 138 215 138 203 q 158 247 139 228 q 191 270 178 268 q 231 249 204 272 q 334 165 278 200 q 459 111 390 131 q 613 92 528 92 q 781 117 707 92 q 907 189 856 142 q 985 304 958 236 q 1011 461 1011 372 q 985 597 1011 540 q 910 694 958 653 q 797 767 861 735 q 654 826 732 799 q 524 879 589 850 q 399 947 458 908 q 295 1040 340 986 q 224 1167 250 1094 q 197 1336 197 1239 q 233 1519 197 1439 q 331 1653 268 1599 q 478 1738 393 1708 q 660 1767 563 1767 q 835 1739 757 1767 q 978 1666 913 1711 q 1103 1565 1043 1621 q 1115 1537 1118 1551 q 1099 1507 1113 1522 q 1065 1482 1081 1489 q 1033 1486 1049 1475 q 917 1572 976 1536 q 796 1628 858 1608 q 660 1649 733 1649 q 520 1628 582 1649 q 415 1567 458 1607 q 349 1469 372 1526 q 326 1336 326 1411 q 356 1183 326 1244 q 436 1078 385 1121 q 554 1004 488 1035 q 693 947 621 974 q 850 881 771 918 q 995 790 929 844 q 1101 656 1061 736 q 1140 461 1140 576 q 1103 258 1140 349 q 997 105 1067 168 q 831 8 928 42 q 613 -26 733 -26 m 893 2129 q 924 2113 906 2129 q 942 2082 942 2097 q 941 2074 942 2079 q 933 2060 940 2068 l 726 1858 q 705 1840 717 1850 q 665 1831 693 1831 q 627 1840 639 1831 q 607 1858 615 1850 l 396 2060 q 389 2074 389 2068 q 389 2082 389 2079 q 406 2113 389 2097 q 438 2129 424 2129 q 453 2124 446 2129 q 472 2113 461 2119 l 665 1969 l 858 2113 q 876 2124 869 2119 q 893 2129 883 2129 z "},"Ş":{"ha":1276,"x_min":138,"x_max":1140,"o":"m 613 -26 q 490 -15 553 -26 q 364 22 426 -3 q 246 88 301 47 q 147 188 190 129 q 138 215 138 203 q 158 247 139 228 q 191 270 178 268 q 231 249 204 272 q 334 165 278 200 q 459 111 390 131 q 613 92 528 92 q 781 117 707 92 q 907 189 856 142 q 985 304 958 236 q 1011 461 1011 372 q 985 597 1011 540 q 910 694 958 653 q 797 767 861 735 q 654 826 732 799 q 524 879 589 850 q 399 947 458 908 q 295 1040 340 986 q 224 1167 250 1094 q 197 1336 197 1239 q 233 1519 197 1439 q 331 1653 268 1599 q 478 1738 393 1708 q 660 1767 563 1767 q 835 1739 757 1767 q 978 1666 913 1711 q 1103 1565 1043 1621 q 1115 1537 1118 1551 q 1099 1507 1113 1522 q 1065 1482 1081 1489 q 1033 1486 1049 1475 q 917 1572 976 1536 q 796 1628 858 1608 q 660 1649 733 1649 q 520 1628 582 1649 q 415 1567 458 1607 q 349 1469 372 1526 q 326 1336 326 1411 q 356 1183 326 1244 q 436 1078 385 1121 q 554 1004 488 1035 q 693 947 621 974 q 850 881 771 918 q 995 790 929 844 q 1101 656 1061 736 q 1140 461 1140 576 q 1103 258 1140 349 q 997 105 1067 168 q 831 8 928 42 q 613 -26 733 -26 m 619 -386 q 547 -378 592 -386 q 464 -347 501 -369 q 447 -322 449 -337 q 451 -290 444 -306 q 474 -265 461 -271 q 504 -267 486 -260 q 547 -282 519 -274 q 610 -290 574 -290 q 673 -279 653 -290 q 693 -237 693 -268 q 669 -195 693 -211 q 583 -187 644 -179 q 560 -186 568 -189 q 543 -174 551 -183 q 535 -154 536 -164 q 539 -135 535 -144 l 603 18 l 694 18 l 624 -146 l 582 -124 q 694 -108 644 -100 q 773 -150 743 -117 q 803 -237 803 -183 q 781 -318 803 -285 q 719 -369 760 -351 q 619 -386 679 -386 z "},"Ŝ":{"ha":1276,"x_min":138,"x_max":1140,"o":"m 613 -26 q 490 -15 553 -26 q 364 22 426 -3 q 246 88 301 47 q 147 188 190 129 q 138 215 138 203 q 158 247 139 228 q 191 270 178 268 q 231 249 204 272 q 334 165 278 200 q 459 111 390 131 q 613 92 528 92 q 781 117 707 92 q 907 189 856 142 q 985 304 958 236 q 1011 461 1011 372 q 985 597 1011 540 q 910 694 958 653 q 797 767 861 735 q 654 826 732 799 q 524 879 589 850 q 399 947 458 908 q 295 1040 340 986 q 224 1167 250 1094 q 197 1336 197 1239 q 233 1519 197 1439 q 331 1653 268 1599 q 478 1738 393 1708 q 660 1767 563 1767 q 835 1739 757 1767 q 978 1666 913 1711 q 1103 1565 1043 1621 q 1115 1537 1118 1551 q 1099 1507 1113 1522 q 1065 1482 1081 1489 q 1033 1486 1049 1475 q 917 1572 976 1536 q 796 1628 858 1608 q 660 1649 733 1649 q 520 1628 582 1649 q 415 1567 458 1607 q 349 1469 372 1526 q 326 1336 326 1411 q 356 1183 326 1244 q 436 1078 385 1121 q 554 1004 488 1035 q 693 947 621 974 q 850 881 771 918 q 995 790 929 844 q 1101 656 1061 736 q 1140 461 1140 576 q 1103 258 1140 349 q 997 105 1067 168 q 831 8 928 42 q 613 -26 733 -26 m 438 1831 q 406 1847 424 1831 q 389 1878 389 1864 q 389 1888 389 1882 q 396 1900 389 1893 l 603 2101 q 625 2120 613 2111 q 664 2129 638 2129 q 702 2120 690 2129 q 724 2101 714 2111 l 933 1900 q 941 1888 940 1893 q 942 1878 942 1882 q 924 1847 942 1864 q 892 1831 906 1831 q 876 1835 883 1831 q 858 1849 869 1840 l 664 1990 l 472 1849 q 453 1835 461 1840 q 438 1831 446 1831 z "},"Ș":{"ha":1276,"x_min":138,"x_max":1140,"o":"m 613 -26 q 490 -15 553 -26 q 364 22 426 -3 q 246 88 301 47 q 147 188 190 129 q 138 215 138 203 q 158 247 139 228 q 191 270 178 268 q 231 249 204 272 q 334 165 278 200 q 459 111 390 131 q 613 92 528 92 q 781 117 707 92 q 907 189 856 142 q 985 304 958 236 q 1011 461 1011 372 q 985 597 1011 540 q 910 694 958 653 q 797 767 861 735 q 654 826 732 799 q 524 879 589 850 q 399 947 458 908 q 295 1040 340 986 q 224 1167 250 1094 q 197 1336 197 1239 q 233 1519 197 1439 q 331 1653 268 1599 q 478 1738 393 1708 q 660 1767 563 1767 q 835 1739 757 1767 q 978 1666 913 1711 q 1103 1565 1043 1621 q 1115 1537 1118 1551 q 1099 1507 1113 1522 q 1065 1482 1081 1489 q 1033 1486 1049 1475 q 917 1572 976 1536 q 796 1628 858 1608 q 660 1649 733 1649 q 520 1628 582 1649 q 415 1567 458 1607 q 349 1469 372 1526 q 326 1336 326 1411 q 356 1183 326 1244 q 436 1078 385 1121 q 554 1004 488 1035 q 693 947 621 974 q 850 881 771 918 q 995 790 929 844 q 1101 656 1061 736 q 1140 461 1140 576 q 1103 258 1140 349 q 997 105 1067 168 q 831 8 928 42 q 613 -26 733 -26 m 551 -425 q 531 -406 535 -418 q 533 -374 526 -394 q 559 -296 550 -332 q 571 -224 568 -260 q 574 -146 574 -187 q 587 -112 574 -122 q 626 -103 600 -103 q 676 -118 658 -103 q 693 -160 693 -133 q 683 -238 693 -194 q 655 -325 672 -282 q 615 -401 638 -368 q 588 -428 601 -424 q 551 -425 574 -432 z "},"Ŧ":{"ha":1281,"x_min":38,"x_max":1243,"o":"m 640 -21 q 579 18 579 -21 l 579 1625 l 76 1625 q 47 1638 56 1625 q 38 1681 38 1650 q 47 1724 38 1713 q 76 1736 56 1736 l 1206 1736 q 1235 1724 1226 1736 q 1243 1681 1243 1713 q 1235 1638 1243 1650 q 1206 1625 1226 1625 l 701 1625 l 701 18 q 686 -11 701 -1 q 640 -21 671 -21 m 324 817 q 292 832 299 817 q 285 865 285 847 q 292 901 285 885 q 324 918 299 918 l 958 918 q 989 901 982 918 q 996 865 996 885 q 989 832 996 847 q 958 817 982 817 l 324 817 z "},"Ť":{"ha":1281,"x_min":38,"x_max":1243,"o":"m 640 -21 q 579 18 579 -21 l 579 1625 l 76 1625 q 47 1638 56 1625 q 38 1681 38 1650 q 47 1724 38 1713 q 76 1736 56 1736 l 1206 1736 q 1235 1724 1226 1736 q 1243 1681 1243 1713 q 1235 1638 1243 1650 q 1206 1625 1226 1625 l 701 1625 l 701 18 q 686 -11 701 -1 q 640 -21 671 -21 m 869 2129 q 900 2113 882 2129 q 918 2082 918 2097 q 917 2074 918 2079 q 910 2060 917 2068 l 703 1858 q 681 1840 693 1850 q 642 1831 669 1831 q 603 1840 615 1831 q 583 1858 592 1850 l 372 2060 q 365 2074 365 2068 q 365 2082 365 2079 q 383 2113 365 2097 q 414 2129 400 2129 q 430 2124 422 2129 q 449 2113 438 2119 l 642 1969 l 835 2113 q 853 2124 846 2119 q 869 2129 860 2129 z "},"Ţ":{"ha":1281,"x_min":38,"x_max":1243,"o":"m 640 -21 q 579 18 579 -21 l 579 1625 l 76 1625 q 47 1638 56 1625 q 38 1681 38 1650 q 47 1724 38 1713 q 76 1736 56 1736 l 1206 1736 q 1235 1724 1226 1736 q 1243 1681 1243 1713 q 1235 1638 1243 1650 q 1206 1625 1226 1625 l 701 1625 l 701 18 q 686 -11 701 -1 q 640 -21 671 -21 m 619 -386 q 547 -378 592 -386 q 464 -347 501 -369 q 447 -322 449 -337 q 451 -290 444 -306 q 474 -265 461 -271 q 504 -267 486 -260 q 547 -282 519 -274 q 610 -290 574 -290 q 673 -279 653 -290 q 693 -237 693 -268 q 669 -195 693 -211 q 583 -187 644 -179 q 560 -186 568 -189 q 543 -174 551 -183 q 535 -154 536 -164 q 539 -135 535 -144 l 603 18 l 694 18 l 624 -146 l 582 -124 q 694 -108 644 -100 q 773 -150 743 -117 q 803 -237 803 -183 q 781 -318 803 -285 q 719 -369 760 -351 q 619 -386 679 -386 z "},"Ț":{"ha":1281,"x_min":38,"x_max":1243,"o":"m 640 -21 q 579 18 579 -21 l 579 1625 l 76 1625 q 47 1638 56 1625 q 38 1681 38 1650 q 47 1724 38 1713 q 76 1736 56 1736 l 1206 1736 q 1235 1724 1226 1736 q 1243 1681 1243 1713 q 1235 1638 1243 1650 q 1206 1625 1226 1625 l 701 1625 l 701 18 q 686 -11 701 -1 q 640 -21 671 -21 m 551 -425 q 531 -406 535 -418 q 533 -374 526 -394 q 559 -296 550 -332 q 571 -224 568 -260 q 574 -146 574 -187 q 587 -112 574 -122 q 626 -103 600 -103 q 676 -118 658 -103 q 693 -160 693 -133 q 683 -238 693 -194 q 655 -325 672 -282 q 615 -401 638 -368 q 588 -428 601 -424 q 551 -425 574 -432 z "},"Ú":{"ha":1600,"x_min":242,"x_max":1358,"o":"m 804 -26 q 563 10 668 -26 q 387 120 458 47 q 278 299 315 193 q 242 542 242 404 l 242 1729 q 257 1758 242 1749 q 303 1767 272 1767 q 349 1758 333 1767 q 364 1729 364 1749 l 364 542 q 413 296 364 396 q 560 144 463 196 q 804 92 658 92 q 1044 144 947 92 q 1189 296 1140 196 q 1238 542 1238 396 l 1238 1729 q 1253 1758 1238 1749 q 1299 1767 1268 1767 q 1358 1729 1358 1767 l 1358 542 q 1294 231 1358 358 q 1106 39 1231 104 q 804 -26 982 -26 m 724 1831 q 689 1849 706 1831 q 672 1881 672 1867 q 674 1892 672 1886 q 685 1907 676 1899 l 904 2114 q 917 2125 911 2121 q 935 2129 924 2129 q 965 2117 949 2129 q 994 2088 982 2104 q 1007 2054 1007 2071 q 1003 2038 1007 2044 q 986 2019 1000 2031 l 751 1844 q 735 1835 742 1839 q 724 1831 729 1831 z "},"Ŭ":{"ha":1600,"x_min":242,"x_max":1358,"o":"m 804 -26 q 563 10 668 -26 q 387 120 458 47 q 278 299 315 193 q 242 542 242 404 l 242 1729 q 257 1758 242 1749 q 303 1767 272 1767 q 349 1758 333 1767 q 364 1729 364 1749 l 364 542 q 413 296 364 396 q 560 144 463 196 q 804 92 658 92 q 1044 144 947 92 q 1189 296 1140 196 q 1238 542 1238 396 l 1238 1729 q 1253 1758 1238 1749 q 1299 1767 1268 1767 q 1358 1729 1358 1767 l 1358 542 q 1294 231 1358 358 q 1106 39 1231 104 q 804 -26 982 -26 m 800 1832 q 617 1895 685 1832 q 539 2089 549 1958 q 551 2117 538 2106 q 592 2129 565 2129 q 622 2119 614 2129 q 635 2089 631 2108 q 692 1988 654 2021 q 800 1956 729 1956 q 909 1988 871 1956 q 964 2089 947 2021 q 977 2119 969 2108 q 1007 2129 985 2129 q 1048 2117 1033 2129 q 1061 2089 1063 2106 q 1021 1949 1056 2006 q 930 1862 986 1892 q 800 1832 874 1832 z "},"Ǔ":{"ha":1600,"x_min":242,"x_max":1358,"o":"m 804 -26 q 563 10 668 -26 q 387 120 458 47 q 278 299 315 193 q 242 542 242 404 l 242 1729 q 257 1758 242 1749 q 303 1767 272 1767 q 349 1758 333 1767 q 364 1729 364 1749 l 364 542 q 413 296 364 396 q 560 144 463 196 q 804 92 658 92 q 1044 144 947 92 q 1189 296 1140 196 q 1238 542 1238 396 l 1238 1729 q 1253 1758 1238 1749 q 1299 1767 1268 1767 q 1358 1729 1358 1767 l 1358 542 q 1294 231 1358 358 q 1106 39 1231 104 q 804 -26 982 -26 m 1029 2129 q 1060 2113 1042 2129 q 1078 2082 1078 2097 q 1077 2074 1078 2079 q 1069 2060 1076 2068 l 863 1858 q 841 1840 853 1850 q 801 1831 829 1831 q 763 1840 775 1831 q 743 1858 751 1850 l 532 2060 q 525 2074 525 2068 q 525 2082 525 2079 q 542 2113 525 2097 q 574 2129 560 2129 q 590 2124 582 2129 q 608 2113 597 2119 l 801 1969 l 994 2113 q 1013 2124 1006 2119 q 1029 2129 1019 2129 z "},"Û":{"ha":1600,"x_min":242,"x_max":1358,"o":"m 804 -26 q 563 10 668 -26 q 387 120 458 47 q 278 299 315 193 q 242 542 242 404 l 242 1729 q 257 1758 242 1749 q 303 1767 272 1767 q 349 1758 333 1767 q 364 1729 364 1749 l 364 542 q 413 296 364 396 q 560 144 463 196 q 804 92 658 92 q 1044 144 947 92 q 1189 296 1140 196 q 1238 542 1238 396 l 1238 1729 q 1253 1758 1238 1749 q 1299 1767 1268 1767 q 1358 1729 1358 1767 l 1358 542 q 1294 231 1358 358 q 1106 39 1231 104 q 804 -26 982 -26 m 574 1831 q 542 1847 560 1831 q 525 1878 525 1864 q 525 1888 525 1882 q 532 1900 525 1893 l 739 2101 q 761 2120 749 2111 q 800 2129 774 2129 q 838 2120 826 2129 q 860 2101 850 2111 l 1069 1900 q 1077 1888 1076 1893 q 1078 1878 1078 1882 q 1060 1847 1078 1864 q 1028 1831 1042 1831 q 1013 1835 1019 1831 q 994 1849 1006 1840 l 800 1990 l 608 1849 q 590 1835 597 1840 q 574 1831 582 1831 z "},"Ü":{"ha":1600,"x_min":242,"x_max":1358,"o":"m 804 -26 q 563 10 668 -26 q 387 120 458 47 q 278 299 315 193 q 242 542 242 404 l 242 1729 q 257 1758 242 1749 q 303 1767 272 1767 q 349 1758 333 1767 q 364 1729 364 1749 l 364 542 q 413 296 364 396 q 560 144 463 196 q 804 92 658 92 q 1044 144 947 92 q 1189 296 1140 196 q 1238 542 1238 396 l 1238 1729 q 1253 1758 1238 1749 q 1299 1767 1268 1767 q 1358 1729 1358 1767 l 1358 542 q 1294 231 1358 358 q 1106 39 1231 104 q 804 -26 982 -26 m 619 1885 q 560 1907 581 1885 q 540 1972 540 1929 q 560 2038 540 2017 q 619 2060 581 2060 q 676 2038 657 2060 q 696 1972 696 2017 q 678 1906 697 1928 q 619 1885 658 1885 m 983 1885 q 925 1907 944 1885 q 906 1972 906 1929 q 925 2038 906 2017 q 983 2060 944 2060 q 1040 2038 1021 2060 q 1060 1972 1060 2017 q 1041 1907 1061 1929 q 983 1885 1021 1885 z "},"Ù":{"ha":1600,"x_min":242,"x_max":1358,"o":"m 804 -26 q 563 10 668 -26 q 387 120 458 47 q 278 299 315 193 q 242 542 242 404 l 242 1729 q 257 1758 242 1749 q 303 1767 272 1767 q 349 1758 333 1767 q 364 1729 364 1749 l 364 542 q 413 296 364 396 q 560 144 463 196 q 804 92 658 92 q 1044 144 947 92 q 1189 296 1140 196 q 1238 542 1238 396 l 1238 1729 q 1253 1758 1238 1749 q 1299 1767 1268 1767 q 1358 1729 1358 1767 l 1358 542 q 1294 231 1358 358 q 1106 39 1231 104 q 804 -26 982 -26 m 876 1831 q 865 1835 871 1831 q 849 1844 858 1839 l 615 2019 q 598 2038 601 2031 q 594 2054 594 2044 q 606 2088 594 2071 q 635 2117 618 2104 q 665 2129 653 2129 q 683 2125 676 2129 q 696 2114 689 2121 l 915 1907 q 927 1892 925 1899 q 929 1881 929 1886 q 912 1849 929 1867 q 876 1831 894 1831 z "},"Ű":{"ha":1600,"x_min":242,"x_max":1358,"o":"m 804 -26 q 563 10 668 -26 q 387 120 458 47 q 278 299 315 193 q 242 542 242 404 l 242 1729 q 257 1758 242 1749 q 303 1767 272 1767 q 349 1758 333 1767 q 364 1729 364 1749 l 364 542 q 413 296 364 396 q 560 144 463 196 q 804 92 658 92 q 1044 144 947 92 q 1189 296 1140 196 q 1238 542 1238 396 l 1238 1729 q 1253 1758 1238 1749 q 1299 1767 1268 1767 q 1358 1729 1358 1767 l 1358 542 q 1294 231 1358 358 q 1106 39 1231 104 q 804 -26 982 -26 m 663 1831 q 628 1849 644 1831 q 611 1881 611 1867 q 613 1892 611 1886 q 624 1907 614 1899 l 814 2114 q 828 2125 821 2121 q 847 2129 836 2129 q 877 2117 861 2129 q 905 2088 893 2106 q 917 2056 917 2071 q 913 2039 917 2046 q 896 2021 910 2032 l 689 1844 q 674 1835 681 1839 q 663 1831 668 1831 m 947 1831 q 912 1849 929 1831 q 894 1881 894 1867 q 897 1892 894 1886 q 908 1907 899 1899 l 1103 2114 q 1117 2125 1110 2121 q 1133 2129 1124 2129 q 1165 2117 1149 2129 q 1192 2088 1181 2106 q 1203 2056 1203 2071 q 1200 2039 1203 2046 q 1182 2021 1197 2032 l 974 1844 q 959 1835 965 1839 q 947 1831 953 1831 z "},"Ū":{"ha":1600,"x_min":242,"x_max":1358,"o":"m 804 -26 q 563 10 668 -26 q 387 120 458 47 q 278 299 315 193 q 242 542 242 404 l 242 1729 q 257 1758 242 1749 q 303 1767 272 1767 q 349 1758 333 1767 q 364 1729 364 1749 l 364 542 q 413 296 364 396 q 560 144 463 196 q 804 92 658 92 q 1044 144 947 92 q 1189 296 1140 196 q 1238 542 1238 396 l 1238 1729 q 1253 1758 1238 1749 q 1299 1767 1268 1767 q 1358 1729 1358 1767 l 1358 542 q 1294 231 1358 358 q 1106 39 1231 104 q 804 -26 982 -26 m 597 1918 q 567 1934 574 1918 q 560 1975 560 1950 q 567 2019 560 2001 q 597 2036 574 2036 l 1004 2036 q 1035 2019 1029 2036 q 1042 1975 1042 2001 q 1035 1934 1042 1950 q 1004 1918 1029 1918 l 597 1918 z "},"Ų":{"ha":1600,"x_min":242,"x_max":1358,"o":"m 804 -26 q 563 10 668 -26 q 387 120 458 47 q 278 299 315 193 q 242 542 242 404 l 242 1729 q 257 1758 242 1749 q 303 1767 272 1767 q 349 1758 333 1767 q 364 1729 364 1749 l 364 542 q 413 296 364 396 q 560 144 463 196 q 804 92 658 92 q 1044 144 947 92 q 1189 296 1140 196 q 1238 542 1238 396 l 1238 1729 q 1253 1758 1238 1749 q 1299 1767 1268 1767 q 1358 1729 1358 1767 l 1358 542 q 1294 231 1358 358 q 1106 39 1231 104 q 804 -26 982 -26 m 960 -368 q 861 -335 904 -368 q 818 -236 818 -303 q 832 -161 818 -197 q 871 -90 846 -125 q 932 -19 896 -54 q 1015 51 968 15 l 1101 53 l 1101 40 q 1038 -16 1069 14 q 982 -76 1007 -46 q 942 -137 957 -107 q 926 -196 926 -168 q 942 -247 926 -232 q 981 -262 958 -262 q 1020 -253 1001 -262 q 1065 -224 1039 -244 q 1089 -216 1075 -217 q 1117 -229 1103 -215 q 1134 -260 1131 -242 q 1131 -289 1138 -278 q 1083 -331 1114 -312 q 1020 -359 1053 -350 q 960 -368 988 -368 z "},"Ů":{"ha":1600,"x_min":242,"x_max":1358,"o":"m 804 -26 q 563 10 668 -26 q 387 120 458 47 q 278 299 315 193 q 242 542 242 404 l 242 1729 q 257 1758 242 1749 q 303 1767 272 1767 q 349 1758 333 1767 q 364 1729 364 1749 l 364 542 q 413 296 364 396 q 560 144 463 196 q 804 92 658 92 q 1044 144 947 92 q 1189 296 1140 196 q 1238 542 1238 396 l 1238 1729 q 1253 1758 1238 1749 q 1299 1767 1268 1767 q 1358 1729 1358 1767 l 1358 542 q 1294 231 1358 358 q 1106 39 1231 104 q 804 -26 982 -26 m 800 1821 q 699 1843 743 1821 q 630 1903 654 1865 q 606 1992 606 1942 q 630 2078 606 2040 q 699 2138 654 2117 q 800 2160 743 2160 q 904 2138 860 2160 q 974 2078 949 2117 q 999 1992 999 2040 q 974 1903 999 1942 q 904 1843 949 1865 q 800 1821 860 1821 m 800 1906 q 872 1931 846 1906 q 897 1992 897 1956 q 872 2051 897 2028 q 800 2075 846 2075 q 731 2051 756 2075 q 706 1992 706 2028 q 731 1931 706 1956 q 800 1906 756 1906 z "},"Ũ":{"ha":1600,"x_min":242,"x_max":1358,"o":"m 804 -26 q 563 10 668 -26 q 387 120 458 47 q 278 299 315 193 q 242 542 242 404 l 242 1729 q 257 1758 242 1749 q 303 1767 272 1767 q 349 1758 333 1767 q 364 1729 364 1749 l 364 542 q 413 296 364 396 q 560 144 463 196 q 804 92 658 92 q 1044 144 947 92 q 1189 296 1140 196 q 1238 542 1238 396 l 1238 1729 q 1253 1758 1238 1749 q 1299 1767 1268 1767 q 1358 1729 1358 1767 l 1358 542 q 1294 231 1358 358 q 1106 39 1231 104 q 804 -26 982 -26 m 582 1875 q 535 1913 535 1875 q 572 2044 536 1999 q 676 2089 607 2089 q 753 2073 719 2089 q 815 2037 788 2057 q 867 2001 843 2017 q 915 1985 892 1985 q 949 2007 938 1985 q 961 2061 960 2029 q 1008 2090 965 2090 q 1047 2081 1035 2090 q 1058 2053 1058 2071 q 1022 1922 1057 1965 q 915 1878 986 1878 q 839 1894 874 1878 q 776 1931 804 1910 q 723 1967 747 1951 q 676 1983 699 1983 q 644 1965 654 1983 q 632 1911 635 1947 q 618 1885 631 1894 q 582 1875 606 1875 z "},"Ǘ":{"ha":1600,"x_min":242,"x_max":1358,"o":"m 804 -26 q 563 10 668 -26 q 387 120 458 47 q 278 299 315 193 q 242 542 242 404 l 242 1729 q 257 1758 242 1749 q 303 1767 272 1767 q 349 1758 333 1767 q 364 1729 364 1749 l 364 542 q 413 296 364 396 q 560 144 463 196 q 804 92 658 92 q 1044 144 947 92 q 1189 296 1140 196 q 1238 542 1238 396 l 1238 1729 q 1253 1758 1238 1749 q 1299 1767 1268 1767 q 1358 1729 1358 1767 l 1358 542 q 1294 231 1358 358 q 1106 39 1231 104 q 804 -26 982 -26 m 619 1885 q 560 1907 581 1885 q 540 1972 540 1929 q 560 2038 540 2017 q 619 2060 581 2060 q 676 2038 657 2060 q 696 1972 696 2017 q 678 1906 697 1928 q 619 1885 658 1885 m 983 1885 q 925 1907 944 1885 q 906 1972 906 1929 q 925 2038 906 2017 q 983 2060 944 2060 q 1040 2038 1021 2060 q 1060 1972 1060 2017 q 1041 1907 1061 1929 q 983 1885 1021 1885 m 724 2101 q 689 2119 706 2101 q 672 2151 672 2138 q 674 2163 672 2157 q 685 2178 676 2169 l 904 2385 q 917 2396 911 2392 q 935 2400 924 2400 q 965 2388 949 2400 q 994 2358 982 2375 q 1007 2325 1007 2342 q 1003 2308 1007 2315 q 986 2290 1000 2301 l 751 2115 q 735 2106 742 2110 q 724 2101 729 2101 z "},"Ǚ":{"ha":1600,"x_min":242,"x_max":1358,"o":"m 804 -26 q 563 10 668 -26 q 387 120 458 47 q 278 299 315 193 q 242 542 242 404 l 242 1729 q 257 1758 242 1749 q 303 1767 272 1767 q 349 1758 333 1767 q 364 1729 364 1749 l 364 542 q 413 296 364 396 q 560 144 463 196 q 804 92 658 92 q 1044 144 947 92 q 1189 296 1140 196 q 1238 542 1238 396 l 1238 1729 q 1253 1758 1238 1749 q 1299 1767 1268 1767 q 1358 1729 1358 1767 l 1358 542 q 1294 231 1358 358 q 1106 39 1231 104 q 804 -26 982 -26 m 619 1885 q 560 1907 581 1885 q 540 1972 540 1929 q 560 2038 540 2017 q 619 2060 581 2060 q 676 2038 657 2060 q 696 1972 696 2017 q 678 1906 697 1928 q 619 1885 658 1885 m 983 1885 q 925 1907 944 1885 q 906 1972 906 1929 q 925 2038 906 2017 q 983 2060 944 2060 q 1040 2038 1021 2060 q 1060 1972 1060 2017 q 1041 1907 1061 1929 q 983 1885 1021 1885 m 1029 2400 q 1060 2384 1042 2400 q 1078 2353 1078 2368 q 1077 2344 1078 2350 q 1069 2331 1076 2339 l 863 2129 q 841 2111 853 2121 q 801 2101 829 2101 q 763 2111 775 2101 q 743 2129 751 2121 l 532 2331 q 525 2344 525 2339 q 525 2353 525 2350 q 542 2384 525 2368 q 574 2400 560 2400 q 590 2395 582 2400 q 608 2383 597 2390 l 801 2240 l 994 2383 q 1013 2395 1006 2390 q 1029 2400 1019 2400 z "},"Ǜ":{"ha":1600,"x_min":242,"x_max":1358,"o":"m 804 -26 q 563 10 668 -26 q 387 120 458 47 q 278 299 315 193 q 242 542 242 404 l 242 1729 q 257 1758 242 1749 q 303 1767 272 1767 q 349 1758 333 1767 q 364 1729 364 1749 l 364 542 q 413 296 364 396 q 560 144 463 196 q 804 92 658 92 q 1044 144 947 92 q 1189 296 1140 196 q 1238 542 1238 396 l 1238 1729 q 1253 1758 1238 1749 q 1299 1767 1268 1767 q 1358 1729 1358 1767 l 1358 542 q 1294 231 1358 358 q 1106 39 1231 104 q 804 -26 982 -26 m 619 1885 q 560 1907 581 1885 q 540 1972 540 1929 q 560 2038 540 2017 q 619 2060 581 2060 q 676 2038 657 2060 q 696 1972 696 2017 q 678 1906 697 1928 q 619 1885 658 1885 m 983 1885 q 925 1907 944 1885 q 906 1972 906 1929 q 925 2038 906 2017 q 983 2060 944 2060 q 1040 2038 1021 2060 q 1060 1972 1060 2017 q 1041 1907 1061 1929 q 983 1885 1021 1885 m 876 2101 q 865 2106 871 2101 q 849 2115 858 2110 l 615 2290 q 598 2308 601 2301 q 594 2325 594 2315 q 606 2358 594 2342 q 635 2388 618 2375 q 665 2400 653 2400 q 683 2396 676 2400 q 696 2385 689 2392 l 915 2178 q 927 2163 925 2169 q 929 2151 929 2157 q 912 2119 929 2138 q 876 2101 894 2101 z "},"Ǖ":{"ha":1600,"x_min":242,"x_max":1358,"o":"m 804 -26 q 563 10 668 -26 q 387 120 458 47 q 278 299 315 193 q 242 542 242 404 l 242 1729 q 257 1758 242 1749 q 303 1767 272 1767 q 349 1758 333 1767 q 364 1729 364 1749 l 364 542 q 413 296 364 396 q 560 144 463 196 q 804 92 658 92 q 1044 144 947 92 q 1189 296 1140 196 q 1238 542 1238 396 l 1238 1729 q 1253 1758 1238 1749 q 1299 1767 1268 1767 q 1358 1729 1358 1767 l 1358 542 q 1294 231 1358 358 q 1106 39 1231 104 q 804 -26 982 -26 m 619 1885 q 560 1907 581 1885 q 540 1972 540 1929 q 560 2038 540 2017 q 619 2060 581 2060 q 676 2038 657 2060 q 696 1972 696 2017 q 678 1906 697 1928 q 619 1885 658 1885 m 983 1885 q 925 1907 944 1885 q 906 1972 906 1929 q 925 2038 906 2017 q 983 2060 944 2060 q 1040 2038 1021 2060 q 1060 1972 1060 2017 q 1041 1907 1061 1929 q 983 1885 1021 1885 m 597 2189 q 567 2205 574 2189 q 560 2246 560 2221 q 567 2290 560 2272 q 597 2307 574 2307 l 1004 2307 q 1035 2290 1029 2307 q 1042 2246 1042 2272 q 1035 2205 1042 2221 q 1004 2189 1029 2189 l 597 2189 z "},"Ụ":{"ha":1600,"x_min":242,"x_max":1358,"o":"m 804 -26 q 563 10 668 -26 q 387 120 458 47 q 278 299 315 193 q 242 542 242 404 l 242 1729 q 257 1758 242 1749 q 303 1767 272 1767 q 349 1758 333 1767 q 364 1729 364 1749 l 364 542 q 413 296 364 396 q 560 144 463 196 q 804 92 658 92 q 1044 144 947 92 q 1189 296 1140 196 q 1238 542 1238 396 l 1238 1729 q 1253 1758 1238 1749 q 1299 1767 1268 1767 q 1358 1729 1358 1767 l 1358 542 q 1294 231 1358 358 q 1106 39 1231 104 q 804 -26 982 -26 m 800 -326 q 742 -305 761 -326 q 722 -239 722 -283 q 742 -173 722 -194 q 800 -151 761 -151 q 857 -173 838 -151 q 876 -239 876 -194 q 858 -305 878 -283 q 800 -326 838 -326 z "},"Ủ":{"ha":1600,"x_min":242,"x_max":1358,"o":"m 804 -26 q 563 10 668 -26 q 387 120 458 47 q 278 299 315 193 q 242 542 242 404 l 242 1729 q 257 1758 242 1749 q 303 1767 272 1767 q 349 1758 333 1767 q 364 1729 364 1749 l 364 542 q 413 296 364 396 q 560 144 463 196 q 804 92 658 92 q 1044 144 947 92 q 1189 296 1140 196 q 1238 542 1238 396 l 1238 1729 q 1253 1758 1238 1749 q 1299 1767 1268 1767 q 1358 1729 1358 1767 l 1358 542 q 1294 231 1358 358 q 1106 39 1231 104 q 804 -26 982 -26 m 818 2165 q 928 2132 886 2165 q 969 2044 969 2099 q 953 1981 969 2008 q 897 1925 936 1953 q 872 1899 879 1911 q 867 1875 864 1888 l 868 1864 q 860 1839 872 1850 q 831 1823 849 1828 q 797 1822 813 1818 q 774 1842 781 1826 l 758 1878 q 760 1938 747 1910 q 803 1988 772 1965 q 831 2013 822 2001 q 839 2035 839 2024 q 827 2055 839 2046 q 796 2064 815 2064 q 750 2058 772 2064 q 715 2042 728 2051 q 657 2064 682 2021 q 665 2118 640 2096 q 734 2152 694 2139 q 818 2165 774 2165 z "},"Ư":{"ha":1600,"x_min":242,"x_max":1622,"o":"m 1572 2008 q 1616 1892 1610 1950 q 1594 1786 1622 1835 q 1497 1707 1565 1738 q 1313 1675 1428 1676 l 1313 1761 q 1453 1788 1410 1763 q 1498 1856 1497 1814 q 1467 1949 1499 1897 q 1461 1993 1453 1972 q 1490 2026 1469 2014 q 1535 2035 1511 2038 q 1572 2008 1558 2032 m 804 -26 q 563 10 668 -26 q 387 120 458 47 q 278 299 315 193 q 242 542 242 404 l 242 1729 q 257 1758 242 1749 q 303 1767 272 1767 q 349 1758 333 1767 q 364 1729 364 1749 l 364 542 q 413 296 364 396 q 560 144 463 196 q 804 92 658 92 q 1044 144 947 92 q 1189 296 1140 196 q 1238 542 1238 396 l 1238 1729 q 1253 1758 1238 1749 q 1299 1767 1268 1767 q 1358 1729 1358 1767 l 1358 542 q 1294 231 1358 358 q 1106 39 1231 104 q 804 -26 982 -26 z "},"Ứ":{"ha":1600,"x_min":242,"x_max":1622,"o":"m 1572 2008 q 1616 1892 1610 1950 q 1594 1786 1622 1835 q 1497 1707 1565 1738 q 1313 1675 1428 1676 l 1313 1761 q 1453 1788 1410 1763 q 1498 1856 1497 1814 q 1467 1949 1499 1897 q 1461 1993 1453 1972 q 1490 2026 1469 2014 q 1535 2035 1511 2038 q 1572 2008 1558 2032 m 804 -26 q 563 10 668 -26 q 387 120 458 47 q 278 299 315 193 q 242 542 242 404 l 242 1729 q 257 1758 242 1749 q 303 1767 272 1767 q 349 1758 333 1767 q 364 1729 364 1749 l 364 542 q 413 296 364 396 q 560 144 463 196 q 804 92 658 92 q 1044 144 947 92 q 1189 296 1140 196 q 1238 542 1238 396 l 1238 1729 q 1253 1758 1238 1749 q 1299 1767 1268 1767 q 1358 1729 1358 1767 l 1358 542 q 1294 231 1358 358 q 1106 39 1231 104 q 804 -26 982 -26 m 724 1831 q 689 1849 706 1831 q 672 1881 672 1867 q 674 1892 672 1886 q 685 1907 676 1899 l 904 2114 q 917 2125 911 2121 q 935 2129 924 2129 q 965 2117 949 2129 q 994 2088 982 2104 q 1007 2054 1007 2071 q 1003 2038 1007 2044 q 986 2019 1000 2031 l 751 1844 q 735 1835 742 1839 q 724 1831 729 1831 z "},"Ự":{"ha":1600,"x_min":242,"x_max":1622,"o":"m 1572 2008 q 1616 1892 1610 1950 q 1594 1786 1622 1835 q 1497 1707 1565 1738 q 1313 1675 1428 1676 l 1313 1761 q 1453 1788 1410 1763 q 1498 1856 1497 1814 q 1467 1949 1499 1897 q 1461 1993 1453 1972 q 1490 2026 1469 2014 q 1535 2035 1511 2038 q 1572 2008 1558 2032 m 804 -26 q 563 10 668 -26 q 387 120 458 47 q 278 299 315 193 q 242 542 242 404 l 242 1729 q 257 1758 242 1749 q 303 1767 272 1767 q 349 1758 333 1767 q 364 1729 364 1749 l 364 542 q 413 296 364 396 q 560 144 463 196 q 804 92 658 92 q 1044 144 947 92 q 1189 296 1140 196 q 1238 542 1238 396 l 1238 1729 q 1253 1758 1238 1749 q 1299 1767 1268 1767 q 1358 1729 1358 1767 l 1358 542 q 1294 231 1358 358 q 1106 39 1231 104 q 804 -26 982 -26 m 800 -326 q 742 -305 761 -326 q 722 -239 722 -283 q 742 -173 722 -194 q 800 -151 761 -151 q 857 -173 838 -151 q 876 -239 876 -194 q 858 -305 878 -283 q 800 -326 838 -326 z "},"Ừ":{"ha":1600,"x_min":242,"x_max":1622,"o":"m 1572 2008 q 1616 1892 1610 1950 q 1594 1786 1622 1835 q 1497 1707 1565 1738 q 1313 1675 1428 1676 l 1313 1761 q 1453 1788 1410 1763 q 1498 1856 1497 1814 q 1467 1949 1499 1897 q 1461 1993 1453 1972 q 1490 2026 1469 2014 q 1535 2035 1511 2038 q 1572 2008 1558 2032 m 804 -26 q 563 10 668 -26 q 387 120 458 47 q 278 299 315 193 q 242 542 242 404 l 242 1729 q 257 1758 242 1749 q 303 1767 272 1767 q 349 1758 333 1767 q 364 1729 364 1749 l 364 542 q 413 296 364 396 q 560 144 463 196 q 804 92 658 92 q 1044 144 947 92 q 1189 296 1140 196 q 1238 542 1238 396 l 1238 1729 q 1253 1758 1238 1749 q 1299 1767 1268 1767 q 1358 1729 1358 1767 l 1358 542 q 1294 231 1358 358 q 1106 39 1231 104 q 804 -26 982 -26 m 876 1831 q 865 1835 871 1831 q 849 1844 858 1839 l 615 2019 q 598 2038 601 2031 q 594 2054 594 2044 q 606 2088 594 2071 q 635 2117 618 2104 q 665 2129 653 2129 q 683 2125 676 2129 q 696 2114 689 2121 l 915 1907 q 927 1892 925 1899 q 929 1881 929 1886 q 912 1849 929 1867 q 876 1831 894 1831 z "},"Ử":{"ha":1600,"x_min":242,"x_max":1622,"o":"m 1572 2008 q 1616 1892 1610 1950 q 1594 1786 1622 1835 q 1497 1707 1565 1738 q 1313 1675 1428 1676 l 1313 1761 q 1453 1788 1410 1763 q 1498 1856 1497 1814 q 1467 1949 1499 1897 q 1461 1993 1453 1972 q 1490 2026 1469 2014 q 1535 2035 1511 2038 q 1572 2008 1558 2032 m 804 -26 q 563 10 668 -26 q 387 120 458 47 q 278 299 315 193 q 242 542 242 404 l 242 1729 q 257 1758 242 1749 q 303 1767 272 1767 q 349 1758 333 1767 q 364 1729 364 1749 l 364 542 q 413 296 364 396 q 560 144 463 196 q 804 92 658 92 q 1044 144 947 92 q 1189 296 1140 196 q 1238 542 1238 396 l 1238 1729 q 1253 1758 1238 1749 q 1299 1767 1268 1767 q 1358 1729 1358 1767 l 1358 542 q 1294 231 1358 358 q 1106 39 1231 104 q 804 -26 982 -26 m 818 2165 q 928 2132 886 2165 q 969 2044 969 2099 q 953 1981 969 2008 q 897 1925 936 1953 q 872 1899 879 1911 q 867 1875 864 1888 l 868 1864 q 860 1839 872 1850 q 831 1823 849 1828 q 797 1822 813 1818 q 774 1842 781 1826 l 758 1878 q 760 1938 747 1910 q 803 1988 772 1965 q 831 2013 822 2001 q 839 2035 839 2024 q 827 2055 839 2046 q 796 2064 815 2064 q 750 2058 772 2064 q 715 2042 728 2051 q 657 2064 682 2021 q 665 2118 640 2096 q 734 2152 694 2139 q 818 2165 774 2165 z "},"Ữ":{"ha":1600,"x_min":242,"x_max":1622,"o":"m 1572 2008 q 1616 1892 1610 1950 q 1594 1786 1622 1835 q 1497 1707 1565 1738 q 1313 1675 1428 1676 l 1313 1761 q 1453 1788 1410 1763 q 1498 1856 1497 1814 q 1467 1949 1499 1897 q 1461 1993 1453 1972 q 1490 2026 1469 2014 q 1535 2035 1511 2038 q 1572 2008 1558 2032 m 804 -26 q 563 10 668 -26 q 387 120 458 47 q 278 299 315 193 q 242 542 242 404 l 242 1729 q 257 1758 242 1749 q 303 1767 272 1767 q 349 1758 333 1767 q 364 1729 364 1749 l 364 542 q 413 296 364 396 q 560 144 463 196 q 804 92 658 92 q 1044 144 947 92 q 1189 296 1140 196 q 1238 542 1238 396 l 1238 1729 q 1253 1758 1238 1749 q 1299 1767 1268 1767 q 1358 1729 1358 1767 l 1358 542 q 1294 231 1358 358 q 1106 39 1231 104 q 804 -26 982 -26 m 582 1875 q 535 1913 535 1875 q 572 2044 536 1999 q 676 2089 607 2089 q 753 2073 719 2089 q 815 2037 788 2057 q 867 2001 843 2017 q 915 1985 892 1985 q 949 2007 938 1985 q 961 2061 960 2029 q 1008 2090 965 2090 q 1047 2081 1035 2090 q 1058 2053 1058 2071 q 1022 1922 1057 1965 q 915 1878 986 1878 q 839 1894 874 1878 q 776 1931 804 1910 q 723 1967 747 1951 q 676 1983 699 1983 q 644 1965 654 1983 q 632 1911 635 1947 q 618 1885 631 1894 q 582 1875 606 1875 z "},"Ẃ":{"ha":2188,"x_min":35,"x_max":2153,"o":"m 553 -19 q 503 -7 521 -19 q 476 36 486 6 l 40 1704 q 44 1738 35 1724 q 83 1761 53 1751 q 130 1767 111 1771 q 154 1740 149 1764 l 557 174 l 1022 1717 q 1047 1756 1031 1744 q 1093 1767 1063 1767 q 1141 1756 1125 1767 q 1165 1717 1157 1744 l 1628 175 l 2033 1740 q 2058 1767 2039 1764 q 2104 1761 2078 1771 q 2144 1738 2135 1751 q 2147 1704 2153 1724 l 1706 36 q 1680 -7 1697 6 q 1628 -19 1663 -19 q 1578 -7 1594 -19 q 1551 36 1561 6 l 1093 1572 l 631 36 q 605 -7 622 6 q 553 -19 588 -19 m 1017 1831 q 982 1849 999 1831 q 965 1881 965 1867 q 967 1892 965 1886 q 978 1907 969 1899 l 1197 2114 q 1210 2125 1204 2121 q 1228 2129 1217 2129 q 1258 2117 1242 2129 q 1288 2088 1275 2104 q 1300 2054 1300 2071 q 1297 2038 1300 2044 q 1279 2019 1293 2031 l 1044 1844 q 1028 1835 1035 1839 q 1017 1831 1022 1831 z "},"Ŵ":{"ha":2188,"x_min":35,"x_max":2153,"o":"m 553 -19 q 503 -7 521 -19 q 476 36 486 6 l 40 1704 q 44 1738 35 1724 q 83 1761 53 1751 q 130 1767 111 1771 q 154 1740 149 1764 l 557 174 l 1022 1717 q 1047 1756 1031 1744 q 1093 1767 1063 1767 q 1141 1756 1125 1767 q 1165 1717 1157 1744 l 1628 175 l 2033 1740 q 2058 1767 2039 1764 q 2104 1761 2078 1771 q 2144 1738 2135 1751 q 2147 1704 2153 1724 l 1706 36 q 1680 -7 1697 6 q 1628 -19 1663 -19 q 1578 -7 1594 -19 q 1551 36 1561 6 l 1093 1572 l 631 36 q 605 -7 622 6 q 553 -19 588 -19 m 867 1831 q 835 1847 853 1831 q 818 1878 818 1864 q 818 1888 818 1882 q 825 1900 818 1893 l 1032 2101 q 1054 2120 1042 2111 q 1093 2129 1067 2129 q 1131 2120 1119 2129 q 1153 2101 1143 2111 l 1363 1900 q 1370 1888 1369 1893 q 1371 1878 1371 1882 q 1353 1847 1371 1864 q 1321 1831 1335 1831 q 1306 1835 1313 1831 q 1288 1849 1299 1840 l 1093 1990 l 901 1849 q 883 1835 890 1840 q 867 1831 875 1831 z "},"Ẅ":{"ha":2188,"x_min":35,"x_max":2153,"o":"m 553 -19 q 503 -7 521 -19 q 476 36 486 6 l 40 1704 q 44 1738 35 1724 q 83 1761 53 1751 q 130 1767 111 1771 q 154 1740 149 1764 l 557 174 l 1022 1717 q 1047 1756 1031 1744 q 1093 1767 1063 1767 q 1141 1756 1125 1767 q 1165 1717 1157 1744 l 1628 175 l 2033 1740 q 2058 1767 2039 1764 q 2104 1761 2078 1771 q 2144 1738 2135 1751 q 2147 1704 2153 1724 l 1706 36 q 1680 -7 1697 6 q 1628 -19 1663 -19 q 1578 -7 1594 -19 q 1551 36 1561 6 l 1093 1572 l 631 36 q 605 -7 622 6 q 553 -19 588 -19 m 913 1885 q 853 1907 874 1885 q 833 1972 833 1929 q 853 2038 833 2017 q 913 2060 874 2060 q 969 2038 950 2060 q 989 1972 989 2017 q 971 1906 990 1928 q 913 1885 951 1885 m 1276 1885 q 1218 1907 1238 1885 q 1199 1972 1199 1929 q 1218 2038 1199 2017 q 1276 2060 1238 2060 q 1333 2038 1314 2060 q 1353 1972 1353 2017 q 1334 1907 1354 1929 q 1276 1885 1314 1885 z "},"Ẁ":{"ha":2188,"x_min":35,"x_max":2153,"o":"m 553 -19 q 503 -7 521 -19 q 476 36 486 6 l 40 1704 q 44 1738 35 1724 q 83 1761 53 1751 q 130 1767 111 1771 q 154 1740 149 1764 l 557 174 l 1022 1717 q 1047 1756 1031 1744 q 1093 1767 1063 1767 q 1141 1756 1125 1767 q 1165 1717 1157 1744 l 1628 175 l 2033 1740 q 2058 1767 2039 1764 q 2104 1761 2078 1771 q 2144 1738 2135 1751 q 2147 1704 2153 1724 l 1706 36 q 1680 -7 1697 6 q 1628 -19 1663 -19 q 1578 -7 1594 -19 q 1551 36 1561 6 l 1093 1572 l 631 36 q 605 -7 622 6 q 553 -19 588 -19 m 1169 1831 q 1158 1835 1164 1831 q 1142 1844 1151 1839 l 908 2019 q 891 2038 894 2031 q 888 2054 888 2044 q 899 2088 888 2071 q 928 2117 911 2104 q 958 2129 946 2129 q 976 2125 969 2129 q 989 2114 982 2121 l 1208 1907 q 1220 1892 1218 1899 q 1222 1881 1222 1886 q 1205 1849 1222 1867 q 1169 1831 1188 1831 z "},"Ý":{"ha":1179,"x_min":3,"x_max":1176,"o":"m 585 -19 q 524 19 524 -19 l 524 747 l 13 1690 q 11 1724 3 1708 q 47 1753 19 1739 q 91 1768 74 1768 q 122 1744 108 1768 l 586 879 l 1060 1744 q 1090 1768 1074 1768 q 1132 1753 1106 1768 q 1169 1724 1161 1739 q 1167 1690 1176 1708 l 646 746 l 646 19 q 585 -19 646 -19 m 514 1831 q 479 1849 496 1831 q 463 1881 463 1867 q 465 1892 463 1886 q 475 1907 467 1899 l 694 2114 q 708 2125 701 2121 q 725 2129 714 2129 q 756 2117 739 2129 q 785 2088 772 2104 q 797 2054 797 2071 q 794 2038 797 2044 q 776 2019 790 2031 l 542 1844 q 526 1835 532 1839 q 514 1831 519 1831 z "},"Ŷ":{"ha":1179,"x_min":3,"x_max":1176,"o":"m 585 -19 q 524 19 524 -19 l 524 747 l 13 1690 q 11 1724 3 1708 q 47 1753 19 1739 q 91 1768 74 1768 q 122 1744 108 1768 l 586 879 l 1060 1744 q 1090 1768 1074 1768 q 1132 1753 1106 1768 q 1169 1724 1161 1739 q 1167 1690 1176 1708 l 646 746 l 646 19 q 585 -19 646 -19 m 364 1831 q 333 1847 350 1831 q 315 1878 315 1864 q 315 1888 315 1882 q 322 1900 315 1893 l 529 2101 q 551 2120 539 2111 q 590 2129 564 2129 q 628 2120 617 2129 q 650 2101 640 2111 l 860 1900 q 867 1888 867 1893 q 868 1878 868 1882 q 850 1847 868 1864 q 818 1831 832 1831 q 803 1835 810 1831 q 785 1849 796 1840 l 590 1990 l 399 1849 q 380 1835 388 1840 q 364 1831 372 1831 z "},"Ÿ":{"ha":1179,"x_min":3,"x_max":1176,"o":"m 585 -19 q 524 19 524 -19 l 524 747 l 13 1690 q 11 1724 3 1708 q 47 1753 19 1739 q 91 1768 74 1768 q 122 1744 108 1768 l 586 879 l 1060 1744 q 1090 1768 1074 1768 q 1132 1753 1106 1768 q 1169 1724 1161 1739 q 1167 1690 1176 1708 l 646 746 l 646 19 q 585 -19 646 -19 m 410 1885 q 351 1907 371 1885 q 331 1972 331 1929 q 351 2038 331 2017 q 410 2060 371 2060 q 467 2038 447 2060 q 486 1972 486 2017 q 468 1906 488 1928 q 410 1885 449 1885 m 774 1885 q 715 1907 735 1885 q 696 1972 696 1929 q 715 2038 696 2017 q 774 2060 735 2060 q 831 2038 811 2060 q 850 1972 850 2017 q 831 1907 851 1929 q 774 1885 811 1885 z "},"Ỳ":{"ha":1179,"x_min":3,"x_max":1176,"o":"m 585 -19 q 524 19 524 -19 l 524 747 l 13 1690 q 11 1724 3 1708 q 47 1753 19 1739 q 91 1768 74 1768 q 122 1744 108 1768 l 586 879 l 1060 1744 q 1090 1768 1074 1768 q 1132 1753 1106 1768 q 1169 1724 1161 1739 q 1167 1690 1176 1708 l 646 746 l 646 19 q 585 -19 646 -19 m 667 1831 q 655 1835 661 1831 q 639 1844 649 1839 l 406 2019 q 388 2038 392 2031 q 385 2054 385 2044 q 397 2088 385 2071 q 426 2117 408 2104 q 456 2129 443 2129 q 473 2125 467 2129 q 486 2114 479 2121 l 706 1907 q 717 1892 715 1899 q 719 1881 719 1886 q 702 1849 719 1867 q 667 1831 685 1831 z "},"Ỵ":{"ha":1179,"x_min":3,"x_max":1176,"o":"m 585 -19 q 524 19 524 -19 l 524 747 l 13 1690 q 11 1724 3 1708 q 47 1753 19 1739 q 91 1768 74 1768 q 122 1744 108 1768 l 586 879 l 1060 1744 q 1090 1768 1074 1768 q 1132 1753 1106 1768 q 1169 1724 1161 1739 q 1167 1690 1176 1708 l 646 746 l 646 19 q 585 -19 646 -19 m 582 -326 q 524 -305 543 -326 q 504 -239 504 -283 q 524 -173 504 -194 q 582 -151 543 -151 q 639 -173 619 -151 q 658 -239 658 -194 q 640 -305 660 -283 q 582 -326 619 -326 z "},"Ỷ":{"ha":1179,"x_min":3,"x_max":1176,"o":"m 585 -19 q 524 19 524 -19 l 524 747 l 13 1690 q 11 1724 3 1708 q 47 1753 19 1739 q 91 1768 74 1768 q 122 1744 108 1768 l 586 879 l 1060 1744 q 1090 1768 1074 1768 q 1132 1753 1106 1768 q 1169 1724 1161 1739 q 1167 1690 1176 1708 l 646 746 l 646 19 q 585 -19 646 -19 m 608 2165 q 718 2132 676 2165 q 760 2044 760 2099 q 743 1981 760 2008 q 688 1925 726 1953 q 662 1899 669 1911 q 657 1875 654 1888 l 658 1864 q 651 1839 663 1850 q 621 1823 639 1828 q 587 1822 603 1818 q 564 1842 571 1826 l 549 1878 q 550 1938 538 1910 q 593 1988 563 1965 q 621 2013 613 2001 q 629 2035 629 2024 q 617 2055 629 2046 q 586 2064 606 2064 q 540 2058 563 2064 q 506 2042 518 2051 q 447 2064 472 2021 q 456 2118 431 2096 q 524 2152 485 2139 q 608 2165 564 2165 z "},"Ỹ":{"ha":1179,"x_min":3,"x_max":1176,"o":"m 585 -19 q 524 19 524 -19 l 524 747 l 13 1690 q 11 1724 3 1708 q 47 1753 19 1739 q 91 1768 74 1768 q 122 1744 108 1768 l 586 879 l 1060 1744 q 1090 1768 1074 1768 q 1132 1753 1106 1768 q 1169 1724 1161 1739 q 1167 1690 1176 1708 l 646 746 l 646 19 q 585 -19 646 -19 m 372 1875 q 325 1913 325 1875 q 362 2044 326 1999 q 467 2089 397 2089 q 544 2073 510 2089 q 606 2037 578 2057 q 658 2001 633 2017 q 706 1985 682 1985 q 739 2007 728 1985 q 751 2061 750 2029 q 799 2090 756 2090 q 837 2081 825 2090 q 849 2053 849 2071 q 812 1922 847 1965 q 706 1878 776 1878 q 629 1894 664 1878 q 566 1931 594 1910 q 513 1967 538 1951 q 467 1983 489 1983 q 435 1965 444 1983 q 422 1911 425 1947 q 408 1885 421 1894 q 372 1875 396 1875 z "},"Ź":{"ha":1136,"x_min":29,"x_max":1107,"o":"m 79 0 q 50 13 63 0 q 33 45 38 26 q 38 81 29 64 l 918 1625 l 129 1625 q 100 1638 108 1625 q 92 1681 92 1650 q 100 1724 92 1713 q 129 1736 108 1736 l 1036 1736 q 1077 1708 1063 1736 q 1078 1656 1092 1681 l 199 111 l 1068 111 q 1098 99 1089 111 q 1107 56 1107 88 q 1098 13 1107 25 q 1068 0 1089 0 l 79 0 m 492 1831 q 457 1849 474 1831 q 440 1881 440 1867 q 442 1892 440 1886 q 453 1907 444 1899 l 672 2114 q 685 2125 679 2121 q 703 2129 692 2129 q 733 2117 717 2129 q 763 2088 750 2104 q 775 2054 775 2071 q 772 2038 775 2044 q 754 2019 768 2031 l 519 1844 q 503 1835 510 1839 q 492 1831 497 1831 z "},"Ž":{"ha":1136,"x_min":29,"x_max":1107,"o":"m 79 0 q 50 13 63 0 q 33 45 38 26 q 38 81 29 64 l 918 1625 l 129 1625 q 100 1638 108 1625 q 92 1681 92 1650 q 100 1724 92 1713 q 129 1736 108 1736 l 1036 1736 q 1077 1708 1063 1736 q 1078 1656 1092 1681 l 199 111 l 1068 111 q 1098 99 1089 111 q 1107 56 1107 88 q 1098 13 1107 25 q 1068 0 1089 0 l 79 0 m 797 2129 q 828 2113 810 2129 q 846 2082 846 2097 q 845 2074 846 2079 q 838 2060 844 2068 l 631 1858 q 609 1840 621 1850 q 569 1831 597 1831 q 531 1840 543 1831 q 511 1858 519 1850 l 300 2060 q 293 2074 293 2068 q 293 2082 293 2079 q 310 2113 293 2097 q 342 2129 328 2129 q 358 2124 350 2129 q 376 2113 365 2119 l 569 1969 l 763 2113 q 781 2124 774 2119 q 797 2129 788 2129 z "},"Ż":{"ha":1136,"x_min":29,"x_max":1107,"o":"m 79 0 q 50 13 63 0 q 33 45 38 26 q 38 81 29 64 l 918 1625 l 129 1625 q 100 1638 108 1625 q 92 1681 92 1650 q 100 1724 92 1713 q 129 1736 108 1736 l 1036 1736 q 1077 1708 1063 1736 q 1078 1656 1092 1681 l 199 111 l 1068 111 q 1098 99 1089 111 q 1107 56 1107 88 q 1098 13 1107 25 q 1068 0 1089 0 l 79 0 m 568 1883 q 510 1905 529 1883 q 490 1969 490 1926 q 510 2036 490 2014 q 568 2058 529 2058 q 625 2036 606 2058 q 644 1969 644 2014 q 626 1905 646 1926 q 568 1883 606 1883 z "},"á":{"ha":867,"x_min":88,"x_max":867,"o":"m 358 -24 q 218 15 279 -24 q 122 131 157 53 q 88 326 88 208 q 101 460 88 399 q 140 569 114 521 q 204 651 167 618 q 290 703 242 685 q 397 721 339 721 q 489 706 442 721 q 578 668 536 692 l 578 675 q 593 706 578 696 q 639 715 608 715 q 684 706 669 715 q 699 678 699 697 l 699 133 q 704 103 699 115 q 719 86 710 92 q 742 81 729 81 q 765 84 756 81 q 783 94 774 88 q 804 111 792 101 q 826 116 814 119 q 851 101 839 113 q 865 72 864 88 q 860 46 867 57 q 821 8 844 24 q 770 -15 797 -7 q 715 -24 743 -24 q 660 -17 683 -24 q 619 5 636 -10 q 594 40 603 19 q 581 88 585 61 q 579 94 581 89 q 578 104 578 99 q 509 25 546 53 q 433 -13 472 -3 q 358 -24 394 -24 m 210 332 q 228 201 210 256 q 283 117 246 146 q 375 88 319 88 q 452 101 415 88 q 521 147 489 115 q 578 231 553 179 l 578 567 q 494 602 535 593 q 410 611 454 611 q 343 600 374 611 q 288 567 313 589 q 245 511 263 544 q 219 433 228 478 q 210 332 210 389 m 382 847 q 346 864 367 847 q 325 894 325 881 q 326 903 325 899 q 333 917 328 907 l 482 1144 q 497 1160 489 1156 q 515 1165 504 1165 q 548 1155 529 1165 q 581 1130 567 1144 q 596 1103 596 1115 q 592 1087 596 1093 q 579 1069 589 1081 l 408 865 q 382 847 392 847 z "},"ă":{"ha":867,"x_min":88,"x_max":867,"o":"m 358 -24 q 218 15 279 -24 q 122 131 157 53 q 88 326 88 208 q 101 460 88 399 q 140 569 114 521 q 204 651 167 618 q 290 703 242 685 q 397 721 339 721 q 489 706 442 721 q 578 668 536 692 l 578 675 q 593 706 578 696 q 639 715 608 715 q 684 706 669 715 q 699 678 699 697 l 699 133 q 704 103 699 115 q 719 86 710 92 q 742 81 729 81 q 765 84 756 81 q 783 94 774 88 q 804 111 792 101 q 826 116 814 119 q 851 101 839 113 q 865 72 864 88 q 860 46 867 57 q 821 8 844 24 q 770 -15 797 -7 q 715 -24 743 -24 q 660 -17 683 -24 q 619 5 636 -10 q 594 40 603 19 q 581 88 585 61 q 579 94 581 89 q 578 104 578 99 q 509 25 546 53 q 433 -13 472 -3 q 358 -24 394 -24 m 210 332 q 228 201 210 256 q 283 117 246 146 q 375 88 319 88 q 452 101 415 88 q 521 147 489 115 q 578 231 553 179 l 578 567 q 494 602 535 593 q 410 611 454 611 q 343 600 374 611 q 288 567 313 589 q 245 511 263 544 q 219 433 228 478 q 210 332 210 389 m 425 858 q 251 928 315 858 q 181 1124 186 999 q 190 1152 179 1140 q 228 1164 201 1164 q 264 1153 254 1164 q 278 1124 274 1142 q 326 1021 290 1061 q 425 981 361 981 q 525 1021 490 981 q 572 1124 560 1061 q 585 1153 576 1143 q 621 1164 594 1164 q 660 1152 647 1164 q 669 1124 672 1140 q 635 985 667 1044 q 549 892 603 925 q 425 858 494 858 z "},"ǎ":{"ha":867,"x_min":88,"x_max":867,"o":"m 358 -24 q 218 15 279 -24 q 122 131 157 53 q 88 326 88 208 q 101 460 88 399 q 140 569 114 521 q 204 651 167 618 q 290 703 242 685 q 397 721 339 721 q 489 706 442 721 q 578 668 536 692 l 578 675 q 593 706 578 696 q 639 715 608 715 q 684 706 669 715 q 699 678 699 697 l 699 133 q 704 103 699 115 q 719 86 710 92 q 742 81 729 81 q 765 84 756 81 q 783 94 774 88 q 804 111 792 101 q 826 116 814 119 q 851 101 839 113 q 865 72 864 88 q 860 46 867 57 q 821 8 844 24 q 770 -15 797 -7 q 715 -24 743 -24 q 660 -17 683 -24 q 619 5 636 -10 q 594 40 603 19 q 581 88 585 61 q 579 94 581 89 q 578 104 578 99 q 509 25 546 53 q 433 -13 472 -3 q 358 -24 394 -24 m 210 332 q 228 201 210 256 q 283 117 246 146 q 375 88 319 88 q 452 101 415 88 q 521 147 489 115 q 578 231 553 179 l 578 567 q 494 602 535 593 q 410 611 454 611 q 343 600 374 611 q 288 567 313 589 q 245 511 263 544 q 219 433 228 478 q 210 332 210 389 m 624 1174 q 654 1158 636 1174 q 672 1126 672 1142 q 671 1119 672 1124 q 663 1104 669 1114 l 486 883 q 465 865 478 875 q 425 856 453 856 q 386 865 399 856 q 367 883 374 875 l 188 1104 q 181 1119 182 1114 q 179 1126 179 1124 q 197 1158 179 1142 q 228 1174 214 1174 q 244 1169 236 1174 q 263 1157 253 1164 l 425 994 l 589 1157 q 606 1169 597 1164 q 624 1174 614 1174 z "},"â":{"ha":867,"x_min":88,"x_max":867,"o":"m 358 -24 q 218 15 279 -24 q 122 131 157 53 q 88 326 88 208 q 101 460 88 399 q 140 569 114 521 q 204 651 167 618 q 290 703 242 685 q 397 721 339 721 q 489 706 442 721 q 578 668 536 692 l 578 675 q 593 706 578 696 q 639 715 608 715 q 684 706 669 715 q 699 678 699 697 l 699 133 q 704 103 699 115 q 719 86 710 92 q 742 81 729 81 q 765 84 756 81 q 783 94 774 88 q 804 111 792 101 q 826 116 814 119 q 851 101 839 113 q 865 72 864 88 q 860 46 867 57 q 821 8 844 24 q 770 -15 797 -7 q 715 -24 743 -24 q 660 -17 683 -24 q 619 5 636 -10 q 594 40 603 19 q 581 88 585 61 q 579 94 581 89 q 578 104 578 99 q 509 25 546 53 q 433 -13 472 -3 q 358 -24 394 -24 m 210 332 q 228 201 210 256 q 283 117 246 146 q 375 88 319 88 q 452 101 415 88 q 521 147 489 115 q 578 231 553 179 l 578 567 q 494 602 535 593 q 410 611 454 611 q 343 600 374 611 q 288 567 313 589 q 245 511 263 544 q 219 433 228 478 q 210 332 210 389 m 228 847 q 197 864 214 847 q 179 894 179 881 q 181 903 179 899 q 188 917 182 907 l 364 1138 q 385 1156 372 1147 q 425 1165 399 1165 q 464 1156 451 1165 q 485 1138 476 1147 l 663 917 q 671 903 669 907 q 672 894 672 899 q 654 864 672 881 q 624 847 636 847 q 606 852 614 847 q 589 865 597 857 l 425 1026 l 263 865 q 244 852 253 857 q 228 847 236 847 z "},"ä":{"ha":867,"x_min":88,"x_max":867,"o":"m 358 -24 q 218 15 279 -24 q 122 131 157 53 q 88 326 88 208 q 101 460 88 399 q 140 569 114 521 q 204 651 167 618 q 290 703 242 685 q 397 721 339 721 q 489 706 442 721 q 578 668 536 692 l 578 675 q 593 706 578 696 q 639 715 608 715 q 684 706 669 715 q 699 678 699 697 l 699 133 q 704 103 699 115 q 719 86 710 92 q 742 81 729 81 q 765 84 756 81 q 783 94 774 88 q 804 111 792 101 q 826 116 814 119 q 851 101 839 113 q 865 72 864 88 q 860 46 867 57 q 821 8 844 24 q 770 -15 797 -7 q 715 -24 743 -24 q 660 -17 683 -24 q 619 5 636 -10 q 594 40 603 19 q 581 88 585 61 q 579 94 581 89 q 578 104 578 99 q 509 25 546 53 q 433 -13 472 -3 q 358 -24 394 -24 m 210 332 q 228 201 210 256 q 283 117 246 146 q 375 88 319 88 q 452 101 415 88 q 521 147 489 115 q 578 231 553 179 l 578 567 q 494 602 535 593 q 410 611 454 611 q 343 600 374 611 q 288 567 313 589 q 245 511 263 544 q 219 433 228 478 q 210 332 210 389 m 263 929 q 204 951 224 929 q 185 1015 185 972 q 204 1082 185 1060 q 263 1104 224 1104 q 320 1082 301 1104 q 339 1015 339 1060 q 322 951 342 972 q 263 929 301 929 m 589 929 q 531 951 550 929 q 511 1015 511 972 q 531 1082 511 1060 q 589 1104 550 1104 q 646 1082 626 1104 q 665 1015 665 1060 q 647 951 667 972 q 589 929 626 929 z "},"ǽ":{"ha":1240,"x_min":88,"x_max":1204,"o":"m 88 297 q 104 428 88 365 q 153 544 121 490 q 233 637 186 597 q 343 699 281 676 q 481 721 406 721 q 597 711 544 721 q 699 685 650 701 q 799 647 747 668 q 742 490 763 569 q 721 331 721 411 q 745 203 721 258 q 815 116 769 147 q 921 85 860 85 q 992 95 963 85 q 1049 127 1022 106 q 1103 179 1075 149 q 1140 201 1122 201 q 1178 185 1158 200 q 1201 152 1197 169 q 1192 117 1204 135 q 1108 33 1151 64 q 1017 -12 1064 1 q 917 -26 969 -26 q 749 18 819 -26 q 640 141 678 63 q 601 318 601 219 q 612 447 601 389 q 638 554 622 506 q 671 640 654 603 l 719 546 q 601 592 656 574 q 476 610 547 610 q 367 587 417 610 q 283 522 318 564 q 228 425 247 481 q 210 303 210 369 q 225 181 210 229 q 270 110 240 133 q 340 88 300 88 q 420 110 382 88 q 493 184 458 133 q 562 319 528 235 q 629 525 596 403 l 721 511 q 643 262 683 364 q 556 97 603 160 q 453 5 508 33 q 332 -24 399 -24 q 153 60 218 -24 q 88 297 88 143 m 1175 536 q 1151 433 1175 478 q 1083 356 1128 388 q 977 303 1039 324 q 840 272 915 282 q 678 263 764 263 l 678 361 q 789 367 735 361 q 891 387 843 374 q 975 420 939 400 q 1032 467 1011 440 q 1053 526 1053 493 q 1022 590 1053 571 q 943 610 992 610 q 833 593 886 610 q 736 543 781 576 l 707 650 q 815 702 761 683 q 950 721 869 721 q 1113 675 1050 721 q 1175 536 1175 629 m 660 847 q 624 864 644 847 q 603 894 603 881 q 604 903 603 899 q 611 917 606 907 l 760 1144 q 774 1160 767 1156 q 793 1165 782 1165 q 826 1155 807 1165 q 859 1130 844 1144 q 874 1103 874 1115 q 870 1087 874 1093 q 857 1069 867 1081 l 686 865 q 660 847 669 847 z "},"à":{"ha":867,"x_min":88,"x_max":867,"o":"m 358 -24 q 218 15 279 -24 q 122 131 157 53 q 88 326 88 208 q 101 460 88 399 q 140 569 114 521 q 204 651 167 618 q 290 703 242 685 q 397 721 339 721 q 489 706 442 721 q 578 668 536 692 l 578 675 q 593 706 578 696 q 639 715 608 715 q 684 706 669 715 q 699 678 699 697 l 699 133 q 704 103 699 115 q 719 86 710 92 q 742 81 729 81 q 765 84 756 81 q 783 94 774 88 q 804 111 792 101 q 826 116 814 119 q 851 101 839 113 q 865 72 864 88 q 860 46 867 57 q 821 8 844 24 q 770 -15 797 -7 q 715 -24 743 -24 q 660 -17 683 -24 q 619 5 636 -10 q 594 40 603 19 q 581 88 585 61 q 579 94 581 89 q 578 104 578 99 q 509 25 546 53 q 433 -13 472 -3 q 358 -24 394 -24 m 210 332 q 228 201 210 256 q 283 117 246 146 q 375 88 319 88 q 452 101 415 88 q 521 147 489 115 q 578 231 553 179 l 578 567 q 494 602 535 593 q 410 611 454 611 q 343 600 374 611 q 288 567 313 589 q 245 511 263 544 q 219 433 228 478 q 210 332 210 389 m 467 847 q 455 851 461 847 q 440 865 449 856 l 269 1069 q 256 1087 260 1081 q 253 1103 253 1093 q 267 1130 253 1115 q 301 1155 282 1144 q 333 1165 319 1165 q 367 1144 353 1165 l 515 917 q 523 903 522 907 q 524 894 524 899 q 503 864 524 881 q 467 847 482 847 z "},"ā":{"ha":867,"x_min":88,"x_max":867,"o":"m 358 -24 q 218 15 279 -24 q 122 131 157 53 q 88 326 88 208 q 101 460 88 399 q 140 569 114 521 q 204 651 167 618 q 290 703 242 685 q 397 721 339 721 q 489 706 442 721 q 578 668 536 692 l 578 675 q 593 706 578 696 q 639 715 608 715 q 684 706 669 715 q 699 678 699 697 l 699 133 q 704 103 699 115 q 719 86 710 92 q 742 81 729 81 q 765 84 756 81 q 783 94 774 88 q 804 111 792 101 q 826 116 814 119 q 851 101 839 113 q 865 72 864 88 q 860 46 867 57 q 821 8 844 24 q 770 -15 797 -7 q 715 -24 743 -24 q 660 -17 683 -24 q 619 5 636 -10 q 594 40 603 19 q 581 88 585 61 q 579 94 581 89 q 578 104 578 99 q 509 25 546 53 q 433 -13 472 -3 q 358 -24 394 -24 m 210 332 q 228 201 210 256 q 283 117 246 146 q 375 88 319 88 q 452 101 415 88 q 521 147 489 115 q 578 231 553 179 l 578 567 q 494 602 535 593 q 410 611 454 611 q 343 600 374 611 q 288 567 313 589 q 245 511 263 544 q 219 433 228 478 q 210 332 210 389 m 239 953 q 208 969 215 953 q 201 1011 201 986 q 208 1054 201 1038 q 239 1071 215 1071 l 611 1071 q 642 1054 636 1071 q 649 1011 649 1038 q 642 969 649 986 q 611 953 636 953 l 239 953 z "},"ą":{"ha":867,"x_min":88,"x_max":867,"o":"m 358 -24 q 218 15 279 -24 q 122 131 157 53 q 88 326 88 208 q 101 460 88 399 q 140 569 114 521 q 204 651 167 618 q 290 703 242 685 q 397 721 339 721 q 489 706 442 721 q 578 668 536 692 l 578 675 q 593 706 578 696 q 639 715 608 715 q 684 706 669 715 q 699 678 699 697 l 699 133 q 704 103 699 115 q 719 86 710 92 q 742 81 729 81 q 765 84 756 81 q 783 94 774 88 q 804 111 792 101 q 826 116 814 119 q 851 101 839 113 q 865 72 864 88 q 860 46 867 57 q 821 8 844 24 q 770 -15 797 -7 q 715 -24 743 -24 q 660 -17 683 -24 q 619 5 636 -10 q 594 40 603 19 q 581 88 585 61 q 579 94 581 89 q 578 104 578 99 q 509 25 546 53 q 433 -13 472 -3 q 358 -24 394 -24 m 210 332 q 228 201 210 256 q 283 117 246 146 q 375 88 319 88 q 452 101 415 88 q 521 147 489 115 q 578 231 553 179 l 578 567 q 494 602 535 593 q 410 611 454 611 q 343 600 374 611 q 288 567 313 589 q 245 511 263 544 q 219 433 228 478 q 210 332 210 389 m 682 -357 q 588 -326 628 -357 q 549 -236 549 -296 q 561 -167 549 -199 q 598 -104 574 -135 q 658 -42 622 -74 q 740 26 693 -10 l 826 28 l 826 15 q 765 -37 794 -11 q 710 -90 735 -64 q 672 -143 686 -117 q 657 -196 657 -169 q 670 -238 657 -225 q 706 -251 683 -251 q 743 -243 726 -251 q 786 -214 760 -235 q 810 -206 796 -207 q 838 -218 824 -206 q 855 -250 851 -232 q 851 -279 858 -268 q 805 -321 835 -303 q 742 -348 775 -339 q 682 -357 710 -357 z "},"å":{"ha":867,"x_min":88,"x_max":867,"o":"m 358 -24 q 218 15 279 -24 q 122 131 157 53 q 88 326 88 208 q 101 460 88 399 q 140 569 114 521 q 204 651 167 618 q 290 703 242 685 q 397 721 339 721 q 489 706 442 721 q 578 668 536 692 l 578 675 q 593 706 578 696 q 639 715 608 715 q 684 706 669 715 q 699 678 699 697 l 699 133 q 704 103 699 115 q 719 86 710 92 q 742 81 729 81 q 765 84 756 81 q 783 94 774 88 q 804 111 792 101 q 826 116 814 119 q 851 101 839 113 q 865 72 864 88 q 860 46 867 57 q 821 8 844 24 q 770 -15 797 -7 q 715 -24 743 -24 q 660 -17 683 -24 q 619 5 636 -10 q 594 40 603 19 q 581 88 585 61 q 579 94 581 89 q 578 104 578 99 q 509 25 546 53 q 433 -13 472 -3 q 358 -24 394 -24 m 210 332 q 228 201 210 256 q 283 117 246 146 q 375 88 319 88 q 452 101 415 88 q 521 147 489 115 q 578 231 553 179 l 578 567 q 494 602 535 593 q 410 611 454 611 q 343 600 374 611 q 288 567 313 589 q 245 511 263 544 q 219 433 228 478 q 210 332 210 389 m 425 835 q 288 885 340 835 q 236 1015 236 935 q 260 1110 236 1069 q 326 1172 283 1150 q 425 1194 369 1194 q 562 1146 510 1194 q 614 1015 614 1097 q 590 921 614 961 q 524 858 567 881 q 425 835 482 835 m 425 918 q 474 931 454 918 q 505 965 494 943 q 515 1015 515 986 q 492 1085 515 1060 q 425 1111 468 1111 q 376 1099 397 1111 q 345 1066 356 1088 q 335 1015 335 1044 q 358 945 335 972 q 425 918 382 918 z "},"ã":{"ha":867,"x_min":88,"x_max":867,"o":"m 358 -24 q 218 15 279 -24 q 122 131 157 53 q 88 326 88 208 q 101 460 88 399 q 140 569 114 521 q 204 651 167 618 q 290 703 242 685 q 397 721 339 721 q 489 706 442 721 q 578 668 536 692 l 578 675 q 593 706 578 696 q 639 715 608 715 q 684 706 669 715 q 699 678 699 697 l 699 133 q 704 103 699 115 q 719 86 710 92 q 742 81 729 81 q 765 84 756 81 q 783 94 774 88 q 804 111 792 101 q 826 116 814 119 q 851 101 839 113 q 865 72 864 88 q 860 46 867 57 q 821 8 844 24 q 770 -15 797 -7 q 715 -24 743 -24 q 660 -17 683 -24 q 619 5 636 -10 q 594 40 603 19 q 581 88 585 61 q 579 94 581 89 q 578 104 578 99 q 509 25 546 53 q 433 -13 472 -3 q 358 -24 394 -24 m 210 332 q 228 201 210 256 q 283 117 246 146 q 375 88 319 88 q 452 101 415 88 q 521 147 489 115 q 578 231 553 179 l 578 567 q 494 602 535 593 q 410 611 454 611 q 343 600 374 611 q 288 567 313 589 q 245 511 263 544 q 219 433 228 478 q 210 332 210 389 m 215 889 q 168 925 168 889 q 210 1069 169 1026 q 314 1113 250 1113 q 387 1097 356 1113 q 443 1060 418 1081 q 490 1024 468 1040 q 535 1008 513 1008 q 565 1028 553 1008 q 578 1085 576 1049 q 625 1115 581 1115 q 664 1106 653 1115 q 675 1076 675 1096 q 640 941 674 992 q 526 890 606 890 q 454 906 486 890 q 397 944 422 922 q 349 981 371 965 q 307 997 328 997 q 279 979 290 997 q 265 925 268 961 q 251 898 264 907 q 215 889 239 889 z "},"ắ":{"ha":867,"x_min":88,"x_max":867,"o":"m 358 -24 q 218 15 279 -24 q 122 131 157 53 q 88 326 88 208 q 101 460 88 399 q 140 569 114 521 q 204 651 167 618 q 290 703 242 685 q 397 721 339 721 q 489 706 442 721 q 578 668 536 692 l 578 675 q 593 706 578 696 q 639 715 608 715 q 684 706 669 715 q 699 678 699 697 l 699 133 q 704 103 699 115 q 719 86 710 92 q 742 81 729 81 q 765 84 756 81 q 783 94 774 88 q 804 111 792 101 q 826 116 814 119 q 851 101 839 113 q 865 72 864 88 q 860 46 867 57 q 821 8 844 24 q 770 -15 797 -7 q 715 -24 743 -24 q 660 -17 683 -24 q 619 5 636 -10 q 594 40 603 19 q 581 88 585 61 q 579 94 581 89 q 578 104 578 99 q 509 25 546 53 q 433 -13 472 -3 q 358 -24 394 -24 m 210 332 q 228 201 210 256 q 283 117 246 146 q 375 88 319 88 q 452 101 415 88 q 521 147 489 115 q 578 231 553 179 l 578 567 q 494 602 535 593 q 410 611 454 611 q 343 600 374 611 q 288 567 313 589 q 245 511 263 544 q 219 433 228 478 q 210 332 210 389 m 425 858 q 251 928 315 858 q 181 1124 186 999 q 190 1152 179 1140 q 228 1164 201 1164 q 264 1153 254 1164 q 278 1124 274 1142 q 326 1021 290 1061 q 425 981 361 981 q 525 1021 490 981 q 572 1124 560 1061 q 585 1153 576 1143 q 621 1164 594 1164 q 660 1152 647 1164 q 669 1124 672 1140 q 635 985 667 1044 q 549 892 603 925 q 425 858 494 858 m 386 1161 q 350 1178 371 1161 q 329 1208 329 1194 q 331 1217 329 1213 q 338 1231 332 1221 l 486 1458 q 501 1474 493 1469 q 519 1479 508 1479 q 552 1469 533 1479 q 585 1444 571 1458 q 600 1417 600 1429 q 597 1401 600 1407 q 583 1383 593 1394 l 413 1179 q 386 1161 396 1161 z "},"ặ":{"ha":867,"x_min":88,"x_max":867,"o":"m 358 -24 q 218 15 279 -24 q 122 131 157 53 q 88 326 88 208 q 101 460 88 399 q 140 569 114 521 q 204 651 167 618 q 290 703 242 685 q 397 721 339 721 q 489 706 442 721 q 578 668 536 692 l 578 675 q 593 706 578 696 q 639 715 608 715 q 684 706 669 715 q 699 678 699 697 l 699 133 q 704 103 699 115 q 719 86 710 92 q 742 81 729 81 q 765 84 756 81 q 783 94 774 88 q 804 111 792 101 q 826 116 814 119 q 851 101 839 113 q 865 72 864 88 q 860 46 867 57 q 821 8 844 24 q 770 -15 797 -7 q 715 -24 743 -24 q 660 -17 683 -24 q 619 5 636 -10 q 594 40 603 19 q 581 88 585 61 q 579 94 581 89 q 578 104 578 99 q 509 25 546 53 q 433 -13 472 -3 q 358 -24 394 -24 m 210 332 q 228 201 210 256 q 283 117 246 146 q 375 88 319 88 q 452 101 415 88 q 521 147 489 115 q 578 231 553 179 l 578 567 q 494 602 535 593 q 410 611 454 611 q 343 600 374 611 q 288 567 313 589 q 245 511 263 544 q 219 433 228 478 q 210 332 210 389 m 389 -326 q 331 -305 350 -326 q 311 -239 311 -283 q 331 -173 311 -194 q 389 -151 350 -151 q 446 -173 426 -151 q 465 -239 465 -194 q 447 -305 467 -283 q 389 -326 426 -326 m 425 858 q 251 928 315 858 q 181 1124 186 999 q 190 1152 179 1140 q 228 1164 201 1164 q 264 1153 254 1164 q 278 1124 274 1142 q 326 1021 290 1061 q 425 981 361 981 q 525 1021 490 981 q 572 1124 560 1061 q 585 1153 576 1143 q 621 1164 594 1164 q 660 1152 647 1164 q 669 1124 672 1140 q 635 985 667 1044 q 549 892 603 925 q 425 858 494 858 z "},"ằ":{"ha":867,"x_min":88,"x_max":867,"o":"m 358 -24 q 218 15 279 -24 q 122 131 157 53 q 88 326 88 208 q 101 460 88 399 q 140 569 114 521 q 204 651 167 618 q 290 703 242 685 q 397 721 339 721 q 489 706 442 721 q 578 668 536 692 l 578 675 q 593 706 578 696 q 639 715 608 715 q 684 706 669 715 q 699 678 699 697 l 699 133 q 704 103 699 115 q 719 86 710 92 q 742 81 729 81 q 765 84 756 81 q 783 94 774 88 q 804 111 792 101 q 826 116 814 119 q 851 101 839 113 q 865 72 864 88 q 860 46 867 57 q 821 8 844 24 q 770 -15 797 -7 q 715 -24 743 -24 q 660 -17 683 -24 q 619 5 636 -10 q 594 40 603 19 q 581 88 585 61 q 579 94 581 89 q 578 104 578 99 q 509 25 546 53 q 433 -13 472 -3 q 358 -24 394 -24 m 210 332 q 228 201 210 256 q 283 117 246 146 q 375 88 319 88 q 452 101 415 88 q 521 147 489 115 q 578 231 553 179 l 578 567 q 494 602 535 593 q 410 611 454 611 q 343 600 374 611 q 288 567 313 589 q 245 511 263 544 q 219 433 228 478 q 210 332 210 389 m 425 858 q 251 928 315 858 q 181 1124 186 999 q 190 1152 179 1140 q 228 1164 201 1164 q 264 1153 254 1164 q 278 1124 274 1142 q 326 1021 290 1061 q 425 981 361 981 q 525 1021 490 981 q 572 1124 560 1061 q 585 1153 576 1143 q 621 1164 594 1164 q 660 1152 647 1164 q 669 1124 672 1140 q 635 985 667 1044 q 549 892 603 925 q 425 858 494 858 m 467 1160 q 455 1164 461 1160 q 440 1178 449 1168 l 269 1382 q 256 1399 260 1393 q 253 1415 253 1406 q 267 1442 253 1428 q 301 1467 282 1457 q 333 1478 319 1478 q 367 1457 353 1478 l 515 1229 q 523 1215 522 1219 q 524 1207 524 1211 q 503 1176 524 1193 q 467 1160 482 1160 z "},"ẳ":{"ha":867,"x_min":88,"x_max":867,"o":"m 358 -24 q 218 15 279 -24 q 122 131 157 53 q 88 326 88 208 q 101 460 88 399 q 140 569 114 521 q 204 651 167 618 q 290 703 242 685 q 397 721 339 721 q 489 706 442 721 q 578 668 536 692 l 578 675 q 593 706 578 696 q 639 715 608 715 q 684 706 669 715 q 699 678 699 697 l 699 133 q 704 103 699 115 q 719 86 710 92 q 742 81 729 81 q 765 84 756 81 q 783 94 774 88 q 804 111 792 101 q 826 116 814 119 q 851 101 839 113 q 865 72 864 88 q 860 46 867 57 q 821 8 844 24 q 770 -15 797 -7 q 715 -24 743 -24 q 660 -17 683 -24 q 619 5 636 -10 q 594 40 603 19 q 581 88 585 61 q 579 94 581 89 q 578 104 578 99 q 509 25 546 53 q 433 -13 472 -3 q 358 -24 394 -24 m 210 332 q 228 201 210 256 q 283 117 246 146 q 375 88 319 88 q 452 101 415 88 q 521 147 489 115 q 578 231 553 179 l 578 567 q 494 602 535 593 q 410 611 454 611 q 343 600 374 611 q 288 567 313 589 q 245 511 263 544 q 219 433 228 478 q 210 332 210 389 m 425 858 q 251 928 315 858 q 181 1124 186 999 q 190 1152 179 1140 q 228 1164 201 1164 q 264 1153 254 1164 q 278 1124 274 1142 q 326 1021 290 1061 q 425 981 361 981 q 525 1021 490 981 q 572 1124 560 1061 q 585 1153 576 1143 q 621 1164 594 1164 q 660 1152 647 1164 q 669 1124 672 1140 q 635 985 667 1044 q 549 892 603 925 q 425 858 494 858 m 431 1456 q 541 1422 500 1456 q 582 1336 582 1389 q 565 1272 582 1299 q 511 1218 547 1246 q 487 1192 493 1204 q 483 1168 481 1181 l 486 1151 q 477 1126 489 1138 q 447 1110 465 1115 q 413 1110 429 1106 q 390 1129 397 1114 l 375 1171 q 376 1235 363 1207 q 417 1281 390 1263 q 444 1307 438 1296 q 451 1328 451 1318 q 439 1348 451 1340 q 408 1356 426 1356 q 369 1349 390 1356 q 335 1335 347 1342 q 302 1329 317 1322 q 276 1357 288 1336 q 285 1411 258 1389 q 349 1443 311 1431 q 431 1456 388 1456 z "},"ẵ":{"ha":867,"x_min":88,"x_max":867,"o":"m 358 -24 q 218 15 279 -24 q 122 131 157 53 q 88 326 88 208 q 101 460 88 399 q 140 569 114 521 q 204 651 167 618 q 290 703 242 685 q 397 721 339 721 q 489 706 442 721 q 578 668 536 692 l 578 675 q 593 706 578 696 q 639 715 608 715 q 684 706 669 715 q 699 678 699 697 l 699 133 q 704 103 699 115 q 719 86 710 92 q 742 81 729 81 q 765 84 756 81 q 783 94 774 88 q 804 111 792 101 q 826 116 814 119 q 851 101 839 113 q 865 72 864 88 q 860 46 867 57 q 821 8 844 24 q 770 -15 797 -7 q 715 -24 743 -24 q 660 -17 683 -24 q 619 5 636 -10 q 594 40 603 19 q 581 88 585 61 q 579 94 581 89 q 578 104 578 99 q 509 25 546 53 q 433 -13 472 -3 q 358 -24 394 -24 m 210 332 q 228 201 210 256 q 283 117 246 146 q 375 88 319 88 q 452 101 415 88 q 521 147 489 115 q 578 231 553 179 l 578 567 q 494 602 535 593 q 410 611 454 611 q 343 600 374 611 q 288 567 313 589 q 245 511 263 544 q 219 433 228 478 q 210 332 210 389 m 425 858 q 251 928 315 858 q 181 1124 186 999 q 190 1152 179 1140 q 228 1164 201 1164 q 264 1153 254 1164 q 278 1124 274 1142 q 326 1021 290 1061 q 425 981 361 981 q 525 1021 490 981 q 572 1124 560 1061 q 585 1153 576 1143 q 621 1164 594 1164 q 660 1152 647 1164 q 669 1124 672 1140 q 635 985 667 1044 q 549 892 603 925 q 425 858 494 858 m 215 1219 q 168 1256 168 1219 q 210 1400 169 1357 q 314 1443 250 1443 q 387 1427 356 1443 q 443 1391 418 1411 q 490 1355 468 1371 q 535 1339 513 1339 q 565 1359 553 1339 q 578 1415 576 1379 q 625 1446 581 1446 q 664 1436 653 1446 q 675 1407 675 1426 q 640 1272 674 1322 q 526 1221 606 1221 q 454 1237 486 1221 q 397 1274 422 1253 q 349 1312 371 1296 q 307 1328 328 1328 q 279 1310 290 1328 q 265 1256 268 1292 q 251 1228 264 1238 q 215 1219 239 1219 z "},"ấ":{"ha":867,"x_min":88,"x_max":867,"o":"m 358 -24 q 218 15 279 -24 q 122 131 157 53 q 88 326 88 208 q 101 460 88 399 q 140 569 114 521 q 204 651 167 618 q 290 703 242 685 q 397 721 339 721 q 489 706 442 721 q 578 668 536 692 l 578 675 q 593 706 578 696 q 639 715 608 715 q 684 706 669 715 q 699 678 699 697 l 699 133 q 704 103 699 115 q 719 86 710 92 q 742 81 729 81 q 765 84 756 81 q 783 94 774 88 q 804 111 792 101 q 826 116 814 119 q 851 101 839 113 q 865 72 864 88 q 860 46 867 57 q 821 8 844 24 q 770 -15 797 -7 q 715 -24 743 -24 q 660 -17 683 -24 q 619 5 636 -10 q 594 40 603 19 q 581 88 585 61 q 579 94 581 89 q 578 104 578 99 q 509 25 546 53 q 433 -13 472 -3 q 358 -24 394 -24 m 210 332 q 228 201 210 256 q 283 117 246 146 q 375 88 319 88 q 452 101 415 88 q 521 147 489 115 q 578 231 553 179 l 578 567 q 494 602 535 593 q 410 611 454 611 q 343 600 374 611 q 288 567 313 589 q 245 511 263 544 q 219 433 228 478 q 210 332 210 389 m 228 847 q 197 864 214 847 q 179 894 179 881 q 181 903 179 899 q 188 917 182 907 l 364 1138 q 385 1156 372 1147 q 425 1165 399 1165 q 464 1156 451 1165 q 485 1138 476 1147 l 663 917 q 671 903 669 907 q 672 894 672 899 q 654 864 672 881 q 624 847 636 847 q 606 852 614 847 q 589 865 597 857 l 425 1026 l 263 865 q 244 852 253 857 q 228 847 236 847 m 636 1056 q 600 1072 621 1056 q 579 1103 579 1089 q 581 1111 579 1107 q 588 1125 582 1115 l 736 1353 q 751 1369 743 1364 q 769 1374 758 1374 q 802 1363 783 1374 q 835 1338 821 1353 q 850 1311 850 1324 q 847 1295 850 1301 q 833 1278 843 1289 l 663 1074 q 636 1056 646 1056 z "},"ậ":{"ha":867,"x_min":88,"x_max":867,"o":"m 358 -24 q 218 15 279 -24 q 122 131 157 53 q 88 326 88 208 q 101 460 88 399 q 140 569 114 521 q 204 651 167 618 q 290 703 242 685 q 397 721 339 721 q 489 706 442 721 q 578 668 536 692 l 578 675 q 593 706 578 696 q 639 715 608 715 q 684 706 669 715 q 699 678 699 697 l 699 133 q 704 103 699 115 q 719 86 710 92 q 742 81 729 81 q 765 84 756 81 q 783 94 774 88 q 804 111 792 101 q 826 116 814 119 q 851 101 839 113 q 865 72 864 88 q 860 46 867 57 q 821 8 844 24 q 770 -15 797 -7 q 715 -24 743 -24 q 660 -17 683 -24 q 619 5 636 -10 q 594 40 603 19 q 581 88 585 61 q 579 94 581 89 q 578 104 578 99 q 509 25 546 53 q 433 -13 472 -3 q 358 -24 394 -24 m 210 332 q 228 201 210 256 q 283 117 246 146 q 375 88 319 88 q 452 101 415 88 q 521 147 489 115 q 578 231 553 179 l 578 567 q 494 602 535 593 q 410 611 454 611 q 343 600 374 611 q 288 567 313 589 q 245 511 263 544 q 219 433 228 478 q 210 332 210 389 m 389 -326 q 331 -305 350 -326 q 311 -239 311 -283 q 331 -173 311 -194 q 389 -151 350 -151 q 446 -173 426 -151 q 465 -239 465 -194 q 447 -305 467 -283 q 389 -326 426 -326 m 228 847 q 197 864 214 847 q 179 894 179 881 q 181 903 179 899 q 188 917 182 907 l 364 1138 q 385 1156 372 1147 q 425 1165 399 1165 q 464 1156 451 1165 q 485 1138 476 1147 l 663 917 q 671 903 669 907 q 672 894 672 899 q 654 864 672 881 q 624 847 636 847 q 606 852 614 847 q 589 865 597 857 l 425 1026 l 263 865 q 244 852 253 857 q 228 847 236 847 z "},"ầ":{"ha":867,"x_min":88,"x_max":867,"o":"m 358 -24 q 218 15 279 -24 q 122 131 157 53 q 88 326 88 208 q 101 460 88 399 q 140 569 114 521 q 204 651 167 618 q 290 703 242 685 q 397 721 339 721 q 489 706 442 721 q 578 668 536 692 l 578 675 q 593 706 578 696 q 639 715 608 715 q 684 706 669 715 q 699 678 699 697 l 699 133 q 704 103 699 115 q 719 86 710 92 q 742 81 729 81 q 765 84 756 81 q 783 94 774 88 q 804 111 792 101 q 826 116 814 119 q 851 101 839 113 q 865 72 864 88 q 860 46 867 57 q 821 8 844 24 q 770 -15 797 -7 q 715 -24 743 -24 q 660 -17 683 -24 q 619 5 636 -10 q 594 40 603 19 q 581 88 585 61 q 579 94 581 89 q 578 104 578 99 q 509 25 546 53 q 433 -13 472 -3 q 358 -24 394 -24 m 210 332 q 228 201 210 256 q 283 117 246 146 q 375 88 319 88 q 452 101 415 88 q 521 147 489 115 q 578 231 553 179 l 578 567 q 494 602 535 593 q 410 611 454 611 q 343 600 374 611 q 288 567 313 589 q 245 511 263 544 q 219 433 228 478 q 210 332 210 389 m 228 847 q 197 864 214 847 q 179 894 179 881 q 181 903 179 899 q 188 917 182 907 l 364 1138 q 385 1156 372 1147 q 425 1165 399 1165 q 464 1156 451 1165 q 485 1138 476 1147 l 663 917 q 671 903 669 907 q 672 894 672 899 q 654 864 672 881 q 624 847 636 847 q 606 852 614 847 q 589 865 597 857 l 425 1026 l 263 865 q 244 852 253 857 q 228 847 236 847 m 688 1056 q 676 1060 682 1056 q 661 1074 669 1064 l 490 1278 q 477 1295 481 1289 q 474 1311 474 1301 q 488 1338 474 1324 q 522 1363 503 1353 q 554 1374 540 1374 q 588 1353 574 1374 l 736 1125 q 744 1111 743 1115 q 744 1103 744 1107 q 724 1072 744 1089 q 688 1056 703 1056 z "},"ẩ":{"ha":867,"x_min":88,"x_max":867,"o":"m 358 -24 q 218 15 279 -24 q 122 131 157 53 q 88 326 88 208 q 101 460 88 399 q 140 569 114 521 q 204 651 167 618 q 290 703 242 685 q 397 721 339 721 q 489 706 442 721 q 578 668 536 692 l 578 675 q 593 706 578 696 q 639 715 608 715 q 684 706 669 715 q 699 678 699 697 l 699 133 q 704 103 699 115 q 719 86 710 92 q 742 81 729 81 q 765 84 756 81 q 783 94 774 88 q 804 111 792 101 q 826 116 814 119 q 851 101 839 113 q 865 72 864 88 q 860 46 867 57 q 821 8 844 24 q 770 -15 797 -7 q 715 -24 743 -24 q 660 -17 683 -24 q 619 5 636 -10 q 594 40 603 19 q 581 88 585 61 q 579 94 581 89 q 578 104 578 99 q 509 25 546 53 q 433 -13 472 -3 q 358 -24 394 -24 m 210 332 q 228 201 210 256 q 283 117 246 146 q 375 88 319 88 q 452 101 415 88 q 521 147 489 115 q 578 231 553 179 l 578 567 q 494 602 535 593 q 410 611 454 611 q 343 600 374 611 q 288 567 313 589 q 245 511 263 544 q 219 433 228 478 q 210 332 210 389 m 228 847 q 197 864 214 847 q 179 894 179 881 q 181 903 179 899 q 188 917 182 907 l 364 1138 q 385 1156 372 1147 q 425 1165 399 1165 q 464 1156 451 1165 q 485 1138 476 1147 l 663 917 q 671 903 669 907 q 672 894 672 899 q 654 864 672 881 q 624 847 636 847 q 606 852 614 847 q 589 865 597 857 l 425 1026 l 263 865 q 244 852 253 857 q 228 847 236 847 m 658 1390 q 769 1357 728 1390 q 810 1271 810 1324 q 792 1207 810 1233 q 739 1153 775 1181 q 715 1127 721 1139 q 711 1103 708 1115 l 714 1086 q 705 1061 717 1072 q 675 1045 693 1050 q 641 1044 657 1040 q 618 1064 625 1049 l 603 1106 q 604 1169 590 1142 q 644 1215 618 1197 q 672 1242 665 1231 q 679 1263 679 1253 q 667 1283 679 1275 q 636 1290 654 1290 q 597 1283 618 1290 q 563 1269 575 1276 q 530 1264 544 1257 q 504 1292 515 1271 q 513 1346 486 1324 q 577 1378 539 1365 q 658 1390 615 1390 z "},"ẫ":{"ha":867,"x_min":88,"x_max":867,"o":"m 358 -24 q 218 15 279 -24 q 122 131 157 53 q 88 326 88 208 q 101 460 88 399 q 140 569 114 521 q 204 651 167 618 q 290 703 242 685 q 397 721 339 721 q 489 706 442 721 q 578 668 536 692 l 578 675 q 593 706 578 696 q 639 715 608 715 q 684 706 669 715 q 699 678 699 697 l 699 133 q 704 103 699 115 q 719 86 710 92 q 742 81 729 81 q 765 84 756 81 q 783 94 774 88 q 804 111 792 101 q 826 116 814 119 q 851 101 839 113 q 865 72 864 88 q 860 46 867 57 q 821 8 844 24 q 770 -15 797 -7 q 715 -24 743 -24 q 660 -17 683 -24 q 619 5 636 -10 q 594 40 603 19 q 581 88 585 61 q 579 94 581 89 q 578 104 578 99 q 509 25 546 53 q 433 -13 472 -3 q 358 -24 394 -24 m 210 332 q 228 201 210 256 q 283 117 246 146 q 375 88 319 88 q 452 101 415 88 q 521 147 489 115 q 578 231 553 179 l 578 567 q 494 602 535 593 q 410 611 454 611 q 343 600 374 611 q 288 567 313 589 q 245 511 263 544 q 219 433 228 478 q 210 332 210 389 m 228 847 q 197 864 214 847 q 179 894 179 881 q 181 903 179 899 q 188 917 182 907 l 364 1138 q 385 1156 372 1147 q 425 1165 399 1165 q 464 1156 451 1165 q 485 1138 476 1147 l 663 917 q 671 903 669 907 q 672 894 672 899 q 654 864 672 881 q 624 847 636 847 q 606 852 614 847 q 589 865 597 857 l 425 1026 l 263 865 q 244 852 253 857 q 228 847 236 847 m 215 1219 q 168 1256 168 1219 q 210 1400 169 1357 q 314 1443 250 1443 q 387 1427 356 1443 q 443 1391 418 1411 q 490 1355 468 1371 q 535 1339 513 1339 q 565 1359 553 1339 q 578 1415 576 1379 q 625 1446 581 1446 q 664 1436 653 1446 q 675 1407 675 1426 q 640 1272 674 1322 q 526 1221 606 1221 q 454 1237 486 1221 q 397 1274 422 1253 q 349 1312 371 1296 q 307 1328 328 1328 q 279 1310 290 1328 q 265 1256 268 1292 q 251 1228 264 1238 q 215 1219 239 1219 z "},"ạ":{"ha":867,"x_min":88,"x_max":867,"o":"m 358 -24 q 218 15 279 -24 q 122 131 157 53 q 88 326 88 208 q 101 460 88 399 q 140 569 114 521 q 204 651 167 618 q 290 703 242 685 q 397 721 339 721 q 489 706 442 721 q 578 668 536 692 l 578 675 q 593 706 578 696 q 639 715 608 715 q 684 706 669 715 q 699 678 699 697 l 699 133 q 704 103 699 115 q 719 86 710 92 q 742 81 729 81 q 765 84 756 81 q 783 94 774 88 q 804 111 792 101 q 826 116 814 119 q 851 101 839 113 q 865 72 864 88 q 860 46 867 57 q 821 8 844 24 q 770 -15 797 -7 q 715 -24 743 -24 q 660 -17 683 -24 q 619 5 636 -10 q 594 40 603 19 q 581 88 585 61 q 579 94 581 89 q 578 104 578 99 q 509 25 546 53 q 433 -13 472 -3 q 358 -24 394 -24 m 210 332 q 228 201 210 256 q 283 117 246 146 q 375 88 319 88 q 452 101 415 88 q 521 147 489 115 q 578 231 553 179 l 578 567 q 494 602 535 593 q 410 611 454 611 q 343 600 374 611 q 288 567 313 589 q 245 511 263 544 q 219 433 228 478 q 210 332 210 389 m 389 -326 q 331 -305 350 -326 q 311 -239 311 -283 q 331 -173 311 -194 q 389 -151 350 -151 q 446 -173 426 -151 q 465 -239 465 -194 q 447 -305 467 -283 q 389 -326 426 -326 z "}}}
